<?xml version="1.0" encoding="UTF-8"?>
<!DOCTYPE svg PUBLIC "-//W3C//DTD SVG 1.1//EN" "http://www.w3.org/Graphics/SVG/1.1/DTD/svg11.dtd">
<svg xmlns="http://www.w3.org/2000/svg" version="1.1" width="1200px" height="1350px" style="shape-rendering:geometricPrecision; text-rendering:geometricPrecision; image-rendering:optimizeQuality; fill-rule:evenodd; clip-rule:evenodd" xmlns:xlink="http://www.w3.org/1999/xlink">
<g><path style="opacity:0.998" fill="#a179dc" d="M 584.5,-0.5 C 594.167,-0.5 603.833,-0.5 613.5,-0.5C 630.352,2.62089 646.352,8.45422 661.5,17C 819.242,108.4 977.242,199.4 1135.5,290C 1155.89,300.561 1171.89,315.727 1183.5,335.5C 1117.7,372.902 1052.03,410.569 986.5,448.5C 914.189,329.62 809.189,257.787 671.5,233C 516.778,212.493 384.945,257.659 276,368.5C 173.277,484.026 136.943,618.026 167,770.5C 177.036,813.779 192.869,854.779 214.5,893.5C 147.002,931.412 80.0019,970.079 13.5,1009.5C 6.22638,996.346 1.55972,982.346 -0.5,967.5C -0.5,771.167 -0.5,574.833 -0.5,378.5C 4.29197,343.08 21.6253,315.58 51.5,296C 212.493,203.839 373.16,111.172 533.5,18C 549.518,8.72005 566.518,2.55338 584.5,-0.5 Z"/></g>
<g><path style="opacity:1" fill="#fefefe" d="M 986.5,448.5 C 922.33,485.753 857.997,522.753 793.5,559.5C 738.76,477.644 662.093,442.478 563.5,454C 486.442,469.923 431.275,513.423 398,584.5C 378.397,632.33 375.063,681.33 388,731.5C 392.955,749.561 400.122,766.561 409.5,782.5C 445.091,842.53 497.424,879.03 566.5,892C 665.056,902.214 741.056,866.048 794.5,783.5C 859.032,820.596 923.366,857.929 987.5,895.5C 911.136,1021.56 799.47,1094.72 652.5,1115C 502.28,1128.83 375.446,1081.33 272,972.5C 250.366,947.871 231.199,921.538 214.5,893.5C 192.869,854.779 177.036,813.779 167,770.5C 136.943,618.026 173.277,484.026 276,368.5C 384.945,257.659 516.778,212.493 671.5,233C 809.189,257.787 914.189,329.62 986.5,448.5 Z"/></g>
<g><path style="opacity:1" fill="#390091" d="M 1183.5,335.5 C 1190.93,348.871 1195.43,363.204 1197,378.5C 1197.63,513.833 1198.13,649.166 1198.5,784.5C 1198.63,845.513 1198.13,906.513 1197,967.5C 1195.37,982.539 1190.87,996.539 1183.5,1009.5C 1118.45,971.136 1053.11,933.136 987.5,895.5C 923.366,857.929 859.032,820.596 794.5,783.5C 729.901,746.196 665.234,708.862 600.5,671.5C 664.67,633.914 729.003,596.581 793.5,559.5C 857.997,522.753 922.33,485.753 986.5,448.5C 1052.03,410.569 1117.7,372.902 1183.5,335.5 Z"/></g>
<g><path style="opacity:1" fill="#a179db" d="M 793.5,559.5 C 729.003,596.581 664.67,633.914 600.5,671.5C 537.059,707.39 473.725,743.557 410.5,780C 409.748,780.671 409.414,781.504 409.5,782.5C 400.122,766.561 392.955,749.561 388,731.5C 375.063,681.33 378.397,632.33 398,584.5C 431.275,513.423 486.442,469.923 563.5,454C 662.093,442.478 738.76,477.644 793.5,559.5 Z"/></g>
<g><path style="opacity:1" fill="#fefdfe" d="M 945.5,607.5 C 966.66,608.497 987.993,608.831 1009.5,608.5C 1009.5,587.167 1009.5,565.833 1009.5,544.5C 1019.83,544.5 1030.17,544.5 1040.5,544.5C 1040.5,565.5 1040.5,586.5 1040.5,607.5C 1061.5,607.5 1082.5,607.5 1103.5,607.5C 1103.5,618.167 1103.5,628.833 1103.5,639.5C 1082.5,639.5 1061.5,639.5 1040.5,639.5C 1040.5,660.5 1040.5,681.5 1040.5,702.5C 1061.5,702.5 1082.5,702.5 1103.5,702.5C 1103.5,713.167 1103.5,723.833 1103.5,734.5C 1082.5,734.5 1061.5,734.5 1040.5,734.5C 1040.5,755.5 1040.5,776.5 1040.5,797.5C 1030.17,797.5 1019.83,797.5 1009.5,797.5C 1009.5,776.167 1009.5,754.833 1009.5,733.5C 988.167,733.5 966.833,733.5 945.5,733.5C 945.5,754.833 945.5,776.167 945.5,797.5C 935.167,797.5 924.833,797.5 914.5,797.5C 914.5,776.5 914.5,755.5 914.5,734.5C 893.673,733.503 872.673,733.169 851.5,733.5C 851.5,723.167 851.5,712.833 851.5,702.5C 872.5,702.5 893.5,702.5 914.5,702.5C 914.5,681.5 914.5,660.5 914.5,639.5C 893.5,639.5 872.5,639.5 851.5,639.5C 851.5,628.833 851.5,618.167 851.5,607.5C 872.5,607.5 893.5,607.5 914.5,607.5C 914.5,586.5 914.5,565.5 914.5,544.5C 924.833,544.5 935.167,544.5 945.5,544.5C 945.5,565.5 945.5,586.5 945.5,607.5 Z"/></g>
<g><path style="opacity:1" fill="#b7a2d7" d="M 1009.5,544.5 C 1009.5,565.833 1009.5,587.167 1009.5,608.5C 987.993,608.831 966.66,608.497 945.5,607.5C 966.5,607.5 987.5,607.5 1008.5,607.5C 1008.17,586.327 1008.5,565.327 1009.5,544.5 Z"/></g>
<g><path style="opacity:1" fill="#3c0492" d="M 945.5,639.5 C 966.833,639.5 988.167,639.5 1009.5,639.5C 1009.5,660.5 1009.5,681.5 1009.5,702.5C 988.167,702.5 966.833,702.5 945.5,702.5C 945.5,681.5 945.5,660.5 945.5,639.5 Z"/></g>
<g><path style="opacity:1" fill="#280068" d="M 600.5,671.5 C 665.234,708.862 729.901,746.196 794.5,783.5C 741.056,866.048 665.056,902.214 566.5,892C 497.424,879.03 445.091,842.53 409.5,782.5C 409.414,781.504 409.748,780.671 410.5,780C 473.725,743.557 537.059,707.39 600.5,671.5 Z"/></g>
<g><path style="opacity:1" fill="#a58acc" d="M 851.5,702.5 C 851.5,712.833 851.5,723.167 851.5,733.5C 872.673,733.169 893.673,733.503 914.5,734.5C 893.167,734.5 871.833,734.5 850.5,734.5C 850.172,723.654 850.506,712.987 851.5,702.5 Z"/></g>
<g><path style="opacity:1" fill="#987ac5" d="M 1009.5,797.5 C 1008.5,776.673 1008.17,755.673 1008.5,734.5C 987.833,734.5 967.167,734.5 946.5,734.5C 946.831,755.673 946.497,776.673 945.5,797.5C 945.5,776.167 945.5,754.833 945.5,733.5C 966.833,733.5 988.167,733.5 1009.5,733.5C 1009.5,754.833 1009.5,776.167 1009.5,797.5 Z"/></g>
<g><path style="opacity:1" fill="#280068" d="M 214.5,893.5 C 231.199,921.538 250.366,947.871 272,972.5C 375.446,1081.33 502.28,1128.83 652.5,1115C 799.47,1094.72 911.136,1021.56 987.5,895.5C 1053.11,933.136 1118.45,971.136 1183.5,1009.5C 1177.27,1021.25 1168.94,1031.41 1158.5,1040C 1147.18,1048.66 1135.18,1056.33 1122.5,1063C 964.091,1154.4 805.424,1245.4 646.5,1336C 607.036,1352.32 569.036,1349.32 532.5,1327C 373.663,1235.08 214.663,1143.41 55.5,1052C 37.9546,1041.29 23.9546,1027.12 13.5,1009.5C 80.0019,970.079 147.002,931.412 214.5,893.5 Z"/></g>
</svg>
