<?xml version="1.0" encoding="UTF-8"?>
<!DOCTYPE svg PUBLIC "-//W3C//DTD SVG 1.1//EN" "http://www.w3.org/Graphics/SVG/1.1/DTD/svg11.dtd">
<svg xmlns="http://www.w3.org/2000/svg" version="1.1" width="766px" height="325px" style="shape-rendering:geometricPrecision; text-rendering:geometricPrecision; image-rendering:optimizeQuality; fill-rule:evenodd; clip-rule:evenodd" xmlns:xlink="http://www.w3.org/1999/xlink">
<g><path style="opacity:0.004" fill="#000000" d="M 338.5,2.5 C 339.833,3.16667 339.833,3.16667 338.5,2.5 Z"/></g>
<g><path style="opacity:1" fill="#020202" d="M 404.5,15.5 C 421.121,30.7497 433.787,48.7497 442.5,69.5C 466.009,67.6593 489.009,70.1593 511.5,77C 530.392,85.1198 534.892,98.2865 525,116.5C 513.086,132.75 497.919,144.917 479.5,153C 462.835,159.756 445.835,165.756 428.5,171C 410.946,174.927 393.279,178.427 375.5,181.5C 351.193,183.659 326.86,183.993 302.5,182.5C 286.376,181.307 271.043,177.141 256.5,170C 253.333,167.5 250.167,165 247,162.5C 246.333,159.5 246.333,156.5 247,153.5C 250.167,149 254,145.167 258.5,142C 264.383,138.565 270.05,134.899 275.5,131C 279.879,130.488 283.212,128.488 285.5,125C 283.097,117.62 280.264,110.453 277,103.5C 274.723,95.9473 272.889,88.2806 271.5,80.5C 271.648,72.723 273.981,65.723 278.5,59.5C 286.759,50.4095 296.092,42.5761 306.5,36C 321.712,26.871 337.712,19.371 354.5,13.5C 360.344,11.4053 366.011,9.072 371.5,6.5C 371.833,6.5 372.167,6.5 372.5,6.5C 384.39,5.13919 395.056,8.13919 404.5,15.5 Z"/></g>
<g><path style="opacity:1" fill="#9eac9d" d="M 406.5,14.5 C 405.508,14.3284 404.842,14.6618 404.5,15.5C 395.056,8.13919 384.39,5.13919 372.5,6.5C 374.109,5.22908 375.942,4.22908 378,3.5C 387.411,4.39705 396.244,7.23038 404.5,12C 405.381,12.7083 406.047,13.5416 406.5,14.5 Z"/></g>
<g><path style="opacity:0.004" fill="#000000" d="M 199.5,10.5 C 200.833,11.1667 200.833,11.1667 199.5,10.5 Z"/></g>
<g><path style="opacity:0.437" fill="#5b6357" d="M 371.5,6.5 C 366.011,9.072 360.344,11.4053 354.5,13.5C 353.432,12.5655 352.099,12.2322 350.5,12.5C 356.71,10.4008 362.876,8.06745 369,5.5C 369.671,6.25244 370.504,6.58577 371.5,6.5 Z"/></g>
<g><path style="opacity:0.004" fill="#000000" d="M 180.5,15.5 C 181.833,16.1667 181.833,16.1667 180.5,15.5 Z"/></g>
<g><path style="opacity:0.004" fill="#000000" d="M 441.5,16.5 C 442.833,17.1667 442.833,17.1667 441.5,16.5 Z"/></g>
<g><path style="opacity:0.004" fill="#000000" d="M 130.5,19.5 C 131.833,20.1667 131.833,20.1667 130.5,19.5 Z"/></g>
<g><path style="opacity:0.004" fill="#000000" d="M 492.5,33.5 C 493.833,34.1667 493.833,34.1667 492.5,33.5 Z"/></g>
<g><path style="opacity:0.004" fill="#000000" d="M 270.5,38.5 C 271.833,39.1667 271.833,39.1667 270.5,38.5 Z"/></g>
<g><path style="opacity:0.004" fill="#000000" d="M 242.5,41.5 C 243.833,42.1667 243.833,42.1667 242.5,41.5 Z"/></g>
<g><path style="opacity:0.004" fill="#000000" d="M 484.5,49.5 C 485.833,50.1667 485.833,50.1667 484.5,49.5 Z"/></g>
<g><path style="opacity:0.004" fill="#000000" d="M 54.5,51.5 C 55.8333,52.1667 55.8333,52.1667 54.5,51.5 Z"/></g>
<g><path style="opacity:0.004" fill="#000000" d="M 100.5,53.5 C 101.833,54.1667 101.833,54.1667 100.5,53.5 Z"/></g>
<g><path style="opacity:0.004" fill="#000000" d="M 116.5,54.5 C 117.833,55.1667 117.833,55.1667 116.5,54.5 Z"/></g>
<g><path style="opacity:0.004" fill="#000000" d="M 707.5,60.5 C 708.833,61.1667 708.833,61.1667 707.5,60.5 Z"/></g>
<g><path style="opacity:1" fill="#bfd0c0" d="M 446.5,61.5 C 462.895,61.7394 479.228,62.906 495.5,65C 505.265,66.8599 514.265,70.3599 522.5,75.5C 520.801,75.6602 519.134,75.4935 517.5,75C 515.844,73.1706 513.844,71.8372 511.5,71C 507.313,70.8135 503.479,69.6468 500,67.5C 498.893,67.5852 497.893,67.9186 497,68.5C 492.289,67.4014 487.622,66.4014 483,65.5C 481.293,65.6484 479.626,65.9818 478,66.5C 473.324,64.9718 468.49,63.8052 463.5,63C 457.652,62.8272 451.985,62.3272 446.5,61.5 Z"/></g>
<g><path style="opacity:0.004" fill="#000000" d="M 751.5,66.5 C 752.833,67.1667 752.833,67.1667 751.5,66.5 Z"/></g>
<g><path style="opacity:0.004" fill="#000000" d="M 235.5,69.5 C 236.833,70.1667 236.833,70.1667 235.5,69.5 Z"/></g>
<g><path style="opacity:0.267" fill="#8b7958" d="M 265.5,78.5 C 265.517,80.5648 265.85,82.5648 266.5,84.5C 253.842,81.9431 241.175,81.9431 228.5,84.5C 225.217,83.673 221.884,83.3396 218.5,83.5C 228.217,82.7973 238.05,81.7973 248,80.5C 251.042,80.3648 253.875,81.0315 256.5,82.5C 260.032,82.1107 263.032,80.7773 265.5,78.5 Z"/></g>
<g><path style="opacity:1" fill="#ab804d" d="M 266.5,84.5 C 267.338,84.8417 267.672,85.5084 267.5,86.5C 250.127,85.1609 232.794,85.6609 215.5,88C 209.153,90.9993 202.486,93.166 195.5,94.5C 194.776,97.4512 194.943,100.451 196,103.5C 200.759,115.38 204.092,127.713 206,140.5C 206.561,141.022 207.228,141.355 208,141.5C 209.406,140.586 210.906,139.92 212.5,139.5C 210.042,143.262 206.708,144.262 202.5,142.5C 201.571,141.311 201.238,139.978 201.5,138.5C 201.534,135.801 200.867,133.301 199.5,131C 199.957,130.586 200.291,130.086 200.5,129.5C 199.138,126.112 197.471,122.945 195.5,120C 195.269,109.158 192.602,99.6584 187.5,91.5C 190.098,89.3312 193.098,87.8312 196.5,87C 201.841,87.1371 206.841,85.9704 211.5,83.5C 213.865,84.8217 216.198,84.8217 218.5,83.5C 221.884,83.3396 225.217,83.673 228.5,84.5C 241.175,81.9431 253.842,81.9431 266.5,84.5 Z"/></g>
<g><path style="opacity:1" fill="#f9ae3d" d="M 267.5,86.5 C 270.301,97.568 273.301,108.568 276.5,119.5C 257.732,118.524 240.065,122.691 223.5,132C 219.805,134.51 216.138,137.01 212.5,139.5C 210.906,139.92 209.406,140.586 208,141.5C 207.228,141.355 206.561,141.022 206,140.5C 204.092,127.713 200.759,115.38 196,103.5C 194.943,100.451 194.776,97.4512 195.5,94.5C 202.486,93.166 209.153,90.9993 215.5,88C 232.794,85.6609 250.127,85.1609 267.5,86.5 Z"/></g>
<g><path style="opacity:0.004" fill="#000000" d="M 696.5,88.5 C 697.833,89.1667 697.833,89.1667 696.5,88.5 Z"/></g>
<g><path style="opacity:0.004" fill="#000000" d="M 170.5,89.5 C 171.833,90.1667 171.833,90.1667 170.5,89.5 Z"/></g>
<g><path style="opacity:0.004" fill="#000000" d="M 115.5,91.5 C 116.833,92.1667 116.833,92.1667 115.5,91.5 Z"/></g>
<g><path style="opacity:0.141" fill="#605b3b" d="M 187.5,91.5 C 192.602,99.6584 195.269,109.158 195.5,120C 197.471,122.945 199.138,126.112 200.5,129.5C 200.291,130.086 199.957,130.586 199.5,131C 200.867,133.301 201.534,135.801 201.5,138.5C 198.406,131.056 195.406,123.556 192.5,116C 192.735,115.127 193.069,114.293 193.5,113.5C 191.766,107.291 189.599,101.291 187,95.5C 186.235,93.9343 186.402,92.6009 187.5,91.5 Z"/></g>
<g><path style="opacity:0.004" fill="#000000" d="M 609.5,98.5 C 610.833,99.1667 610.833,99.1667 609.5,98.5 Z"/></g>
<g><path style="opacity:0.004" fill="#000000" d="M 724.5,99.5 C 725.833,100.167 725.833,100.167 724.5,99.5 Z"/></g>
<g><path style="opacity:0.004" fill="#000000" d="M 547.5,106.5 C 548.833,107.167 548.833,107.167 547.5,106.5 Z"/></g>
<g><path style="opacity:0.004" fill="#000000" d="M 568.5,106.5 C 569.833,107.167 569.833,107.167 568.5,106.5 Z"/></g>
<g><path style="opacity:0.004" fill="#000000" d="M 542.5,134.5 C 543.833,135.167 543.833,135.167 542.5,134.5 Z"/></g>
<g><path style="opacity:1" fill="#e7eae6" d="M 350.5,12.5 C 352.099,12.2322 353.432,12.5655 354.5,13.5C 337.712,19.371 321.712,26.871 306.5,36C 296.092,42.5761 286.759,50.4095 278.5,59.5C 273.981,65.723 271.648,72.723 271.5,80.5C 272.889,88.2806 274.723,95.9473 277,103.5C 280.264,110.453 283.097,117.62 285.5,125C 283.212,128.488 279.879,130.488 275.5,131C 270.05,134.899 264.383,138.565 258.5,142C 254,145.167 250.167,149 247,153.5C 246.333,156.5 246.333,159.5 247,162.5C 250.167,165 253.333,167.5 256.5,170C 271.043,177.141 286.376,181.307 302.5,182.5C 303.609,183.29 304.942,183.79 306.5,184C 324.5,184.667 342.5,184.667 360.5,184C 365.643,183.162 370.643,182.328 375.5,181.5C 393.279,178.427 410.946,174.927 428.5,171C 445.835,165.756 462.835,159.756 479.5,153C 497.919,144.917 513.086,132.75 525,116.5C 534.892,98.2865 530.392,85.1198 511.5,77C 489.009,70.1593 466.009,67.6593 442.5,69.5C 433.787,48.7497 421.121,30.7497 404.5,15.5C 404.842,14.6618 405.508,14.3284 406.5,14.5C 420.901,24.7352 432.734,37.4019 442,52.5C 443.033,55.7845 444.533,58.7845 446.5,61.5C 451.985,62.3272 457.652,62.8272 463.5,63C 468.49,63.8052 473.324,64.9718 478,66.5C 479.626,65.9818 481.293,65.6484 483,65.5C 487.622,66.4014 492.289,67.4014 497,68.5C 497.893,67.9186 498.893,67.5852 500,67.5C 503.479,69.6468 507.313,70.8135 511.5,71C 513.844,71.8372 515.844,73.1706 517.5,75C 519.134,75.4935 520.801,75.6602 522.5,75.5C 535.424,84.8308 539.257,97.1641 534,112.5C 529.033,122.138 522.533,130.638 514.5,138C 505.118,145.347 495.451,152.18 485.5,158.5C 483.5,158.5 481.5,158.5 479.5,158.5C 467.207,163.165 454.873,167.832 442.5,172.5C 432.613,174.856 422.947,177.523 413.5,180.5C 405.742,181.251 398.075,182.418 390.5,184C 389.328,184.419 388.328,185.085 387.5,186C 365.568,188.402 343.568,189.902 321.5,190.5C 321.137,191.183 320.804,191.85 320.5,192.5C 316.431,190.85 312.097,189.85 307.5,189.5C 283.799,189.201 262.299,182.201 243,168.5C 238.323,160.747 238.49,153.081 243.5,145.5C 249.004,140.833 254.67,136.333 260.5,132C 264.387,128.889 268.72,126.556 273.5,125C 274.971,123.417 275.971,121.583 276.5,119.5C 273.301,108.568 270.301,97.568 267.5,86.5C 267.672,85.5084 267.338,84.8417 266.5,84.5C 265.85,82.5648 265.517,80.5648 265.5,78.5C 265.67,77.1779 265.337,76.0113 264.5,75C 267.311,62.3173 273.978,51.984 284.5,44C 293.562,36.5247 303.562,30.5247 314.5,26C 326.219,20.8151 338.219,16.3151 350.5,12.5 Z"/></g>
<g><path style="opacity:1" fill="#f4f4f4" d="M 351.5,142.5 C 334.818,142.687 318.151,142.353 301.5,141.5C 296.666,141.438 292.666,139.604 289.5,136C 292.817,135.502 296.15,135.335 299.5,135.5C 304.656,136.166 309.989,136.499 315.5,136.5C 324.379,136.625 333.046,135.959 341.5,134.5C 383.888,127.97 418.554,107.97 445.5,74.5C 448.644,79.0486 451.144,84.0486 453,89.5C 453.667,90.5 453.667,91.5 453,92.5C 437.05,111.115 417.55,124.615 394.5,133C 380.489,137.668 366.155,140.835 351.5,142.5 Z"/></g>
<g><path style="opacity:1" fill="#f0f0f0" d="M 371.5,22.5 C 372.573,23.2506 372.74,24.2506 372,25.5C 359.443,53.924 337.61,67.0907 306.5,65C 303.044,64.8198 299.711,64.1532 296.5,63C 325.848,59.9097 350.348,47.4097 370,25.5C 370.513,24.4734 371.013,23.4734 371.5,22.5 Z"/></g>
<g><path style="opacity:1" fill="#6f6f6f" d="M 341.5,134.5 C 333.046,135.959 324.379,136.625 315.5,136.5C 309.989,136.499 304.656,136.166 299.5,135.5C 313.513,135.596 327.513,135.263 341.5,134.5 Z"/></g>
<g><path style="opacity:1" fill="#a7a7a7" d="M 301.5,141.5 C 318.151,142.353 334.818,142.687 351.5,142.5C 334.776,145.322 318.109,144.988 301.5,141.5 Z"/></g>
<g><path style="opacity:0.004" fill="#000000" d="M 243.5,145.5 C 242.833,144.167 242.833,144.167 243.5,145.5 Z"/></g>
<g><path style="opacity:0.944" fill="#000100" d="M 6.5,149.5 C 27.8359,149.333 49.1693,149.5 70.5,150C 89.7132,152.217 99.5465,163.05 100,182.5C 100.578,192.856 100.245,203.19 99,213.5C 97.4334,222.228 93.6001,229.728 87.5,236C 85.0427,237.562 82.376,238.562 79.5,239C 82.681,240.633 86.0143,241.966 89.5,243C 95.5902,246.77 98.7569,252.27 99,259.5C 99.3333,274.167 99.6667,288.833 100,303.5C 101.363,304.893 102.196,306.559 102.5,308.5C 101.698,311.449 101.364,314.449 101.5,317.5C 88.5,317.5 75.5,317.5 62.5,317.5C 62.6666,298.164 62.5,278.83 62,259.5C 59.9441,250.303 54.2774,246.636 45,248.5C 44.8333,249.833 44.6667,251.167 44.5,252.5C 45.7707,264.53 45.7707,276.53 44.5,288.5C 45.2826,293.447 45.7826,298.447 46,303.5C 47,304.167 48,304.833 49,305.5C 49.7599,309.225 49.5932,312.892 48.5,316.5C 33.9367,317.823 19.4367,317.823 5,316.5C 4.33333,312.833 4.33333,309.167 5,305.5C 6,304.5 7,303.5 8,302.5C 8.66667,257.167 8.66667,211.833 8,166.5C 4.0734,161.081 3.5734,155.414 6.5,149.5 Z M 45.5,167.5 C 51.9329,166.478 57.4329,168.145 62,172.5C 62.9581,174.199 63.4581,176.033 63.5,178C 62.7225,193.151 62.2225,208.317 62,223.5C 60.8906,225.815 59.0573,227.315 56.5,228C 52.8484,228.499 49.1817,228.665 45.5,228.5C 45.232,208.108 45.232,187.775 45.5,167.5 Z"/></g>
<g><path style="opacity:0.946" fill="#010201" d="M 663.5,149.5 C 676.014,149.47 688.681,149.637 701.5,150C 703.032,150.7 704.032,151.866 704.5,153.5C 703.746,156.777 703.246,160.11 703,163.5C 702.333,164.167 701.667,164.833 701,165.5C 700.333,192.833 700.333,220.167 701,247.5C 703.208,252.105 706.875,254.105 712,253.5C 715.944,253.411 719.777,252.744 723.5,251.5C 724.667,223.173 724.833,194.839 724,166.5C 719.699,162.033 718.365,156.7 720,150.5C 733.881,149.288 747.881,149.288 762,150.5C 762.667,154.833 762.667,159.167 762,163.5C 761,164.5 760,165.5 759,166.5C 758.667,208.5 758.333,250.5 758,292.5C 756.593,303.496 750.76,310.996 740.5,315C 729.546,318.916 718.213,320.749 706.5,320.5C 699.158,320.128 691.825,319.628 684.5,319C 680.153,318.308 675.986,317.142 672,315.5C 671.187,307.92 671.353,300.42 672.5,293C 677.846,292.085 682.18,293.751 685.5,298C 695.103,300.576 704.769,300.91 714.5,299C 722.727,295.89 726.061,289.89 724.5,281C 724.167,277.833 723.833,274.667 723.5,271.5C 709.279,274.74 694.945,275.24 680.5,273C 674.13,271.564 669.963,267.731 668,261.5C 666.728,229.86 666.061,198.194 666,166.5C 662.446,161.255 661.613,155.588 663.5,149.5 Z"/></g>
<g><path style="opacity:0.004" fill="#000000" d="M 101.5,160.5 C 102.833,161.167 102.833,161.167 101.5,160.5 Z"/></g>
<g><path style="opacity:0.004" fill="#000000" d="M 131.5,163.5 C 132.833,164.167 132.833,164.167 131.5,163.5 Z"/></g>
<g><path style="opacity:1" fill="#5095ab" d="M 479.5,158.5 C 483.385,177.697 476.385,191.197 458.5,199C 450.578,201.738 442.578,202.072 434.5,200C 429.658,195.325 424.991,190.491 420.5,185.5C 419.587,183.914 419.587,182.414 420.5,181C 428.714,178.888 436.714,176.222 444.5,173C 443.906,172.536 443.239,172.369 442.5,172.5C 454.873,167.832 467.207,163.165 479.5,158.5 Z"/></g>
<g><path style="opacity:0.004" fill="#000000" d="M 577.5,165.5 C 578.833,166.167 578.833,166.167 577.5,165.5 Z"/></g>
<g><path style="opacity:0.927" fill="#030504" d="M 479.5,158.5 C 481.5,158.5 483.5,158.5 485.5,158.5C 489.371,172.176 486.704,184.343 477.5,195C 481.421,195.203 485.255,195.703 489,196.5C 489.455,205.05 489.455,213.716 489,222.5C 487.27,225.548 484.77,226.214 481.5,224.5C 479.64,219.072 477.306,213.905 474.5,209C 472.155,208.83 469.821,209.163 467.5,210C 466.978,210.561 466.645,211.228 466.5,212C 467.323,243.804 467.823,275.637 468,307.5C 468.638,308.609 469.138,309.775 469.5,311C 468.713,313.099 468.38,315.266 468.5,317.5C 458.251,317.819 448.084,317.486 438,316.5C 436.773,312.409 437.606,308.909 440.5,306C 441.154,301.242 440.487,296.575 438.5,292C 439.827,281.097 440.494,270.097 440.5,259C 439.521,245.658 439.521,232.325 440.5,219C 442.585,210.081 439.419,207.247 431,210.5C 428.789,215.164 426.956,219.998 425.5,225C 422.975,225.896 420.808,225.396 419,223.5C 405.71,238.893 388.877,246.227 368.5,245.5C 368.167,254.167 367.833,262.833 367.5,271.5C 367.372,281.237 367.872,290.904 369,300.5C 369.833,301.333 370.667,302.167 371.5,303C 375.5,303.667 379.5,303.667 383.5,303C 385,302.167 386.167,301 387,299.5C 388.428,294.353 389.595,289.186 390.5,284C 395.167,283.333 399.833,283.333 404.5,284C 406.373,293.769 405.207,302.936 401,311.5C 397.572,315.268 393.405,317.768 388.5,319C 379.833,319.667 371.167,319.667 362.5,319C 350.808,315.973 343.974,308.473 342,296.5C 339.971,275.226 338.971,253.892 339,232.5C 328.255,221.341 322.089,208.007 320.5,192.5C 320.804,191.85 321.137,191.183 321.5,190.5C 343.568,189.902 365.568,188.402 387.5,186C 388.328,185.085 389.328,184.419 390.5,184C 398.075,182.418 405.742,181.251 413.5,180.5C 415.144,180.714 416.644,180.38 418,179.5C 418.002,182.051 418.836,184.051 420.5,185.5C 424.991,190.491 429.658,195.325 434.5,200C 442.578,202.072 450.578,201.738 458.5,199C 476.385,191.197 483.385,177.697 479.5,158.5 Z"/></g>
<g><path style="opacity:0.004" fill="#000000" d="M 603.5,167.5 C 604.833,168.167 604.833,168.167 603.5,167.5 Z"/></g>
<g><path style="opacity:0.004" fill="#000000" d="M 170.5,175.5 C 171.833,176.167 171.833,176.167 170.5,175.5 Z"/></g>
<g><path style="opacity:0.004" fill="#000000" d="M 0.5,178.5 C 1.83333,179.167 1.83333,179.167 0.5,178.5 Z"/></g>
<g><path style="opacity:0.004" fill="#000000" d="M 225.5,178.5 C 226.833,179.167 226.833,179.167 225.5,178.5 Z"/></g>
<g><path style="opacity:0.004" fill="#000000" d="M 711.5,179.5 C 712.833,180.167 712.833,180.167 711.5,179.5 Z"/></g>
<g><path style="opacity:1" fill="#868686" d="M 375.5,181.5 C 370.643,182.328 365.643,183.162 360.5,184C 342.5,184.667 324.5,184.667 306.5,184C 304.942,183.79 303.609,183.29 302.5,182.5C 326.86,183.993 351.193,183.659 375.5,181.5 Z"/></g>
<g><path style="opacity:1" fill="#242f35" d="M 442.5,172.5 C 443.239,172.369 443.906,172.536 444.5,173C 436.714,176.222 428.714,178.888 420.5,181C 419.587,182.414 419.587,183.914 420.5,185.5C 418.836,184.051 418.002,182.051 418,179.5C 416.644,180.38 415.144,180.714 413.5,180.5C 422.947,177.523 432.613,174.856 442.5,172.5 Z"/></g>
<g><path style="opacity:1" fill="#4f94ab" d="M 410.5,183.5 C 412.167,183.5 413.833,183.5 415.5,183.5C 422.341,212.399 411.674,230.566 383.5,238C 354.823,241.671 337.156,229.504 330.5,201.5C 344.861,199.218 359.194,196.718 373.5,194C 384.604,190.524 395.938,187.858 407.5,186C 408.942,185.623 409.942,184.79 410.5,183.5 Z"/></g>
<g><path style="opacity:0.94" fill="#030503" d="M 530.5,191.5 C 540.5,191.664 549.833,194.164 558.5,199C 564.535,204.904 568.035,212.07 569,220.5C 569.836,245.851 569.502,271.185 568,296.5C 565.83,304.693 561.33,311.193 554.5,316C 542.298,320.269 529.965,320.603 517.5,317C 507.92,311.698 502.42,303.531 501,292.5C 500.201,287.913 500.368,283.413 501.5,279C 500.809,277.933 500.309,276.766 500,275.5C 499.027,255.443 499.694,235.443 502,215.5C 503.587,208.488 507.087,202.655 512.5,198C 518.305,194.914 524.305,192.747 530.5,191.5 Z M 534.5,205.5 C 537.315,206.324 539.482,207.991 541,210.5C 541.667,241.167 541.667,271.833 541,302.5C 536.951,307.818 532.951,307.818 529,302.5C 528.76,287.32 528.26,272.154 527.5,257C 528.262,241.513 528.762,226.013 529,210.5C 530.73,208.598 532.563,206.931 534.5,205.5 Z"/></g>
<g><path style="opacity:0.004" fill="#000000" d="M 224.5,192.5 C 225.833,193.167 225.833,193.167 224.5,192.5 Z"/></g>
<g><path style="opacity:0.906" fill="#020402" d="M 123.5,194.5 C 141.17,194.333 158.836,194.5 176.5,195C 177.126,195.75 177.626,196.584 178,197.5C 178.667,204.5 178.667,211.5 178,218.5C 177.3,220.032 176.134,221.032 174.5,221.5C 170.221,220.726 165.887,220.226 161.5,220C 160.54,216.27 160.207,212.437 160.5,208.5C 155.5,208.5 150.5,208.5 145.5,208.5C 146.787,221.042 146.787,233.542 145.5,246C 149.297,247.424 153.297,247.924 157.5,247.5C 157.141,245.234 157.808,243.401 159.5,242C 162.76,241.216 165.927,241.383 169,242.5C 169.781,243.729 170.281,245.062 170.5,246.5C 169.197,252.673 168.863,258.839 169.5,265C 168.876,267.291 167.376,268.457 165,268.5C 162.708,268.219 160.542,267.552 158.5,266.5C 158.136,264.267 157.136,262.434 155.5,261C 152.24,260.216 149.073,260.383 146,261.5C 146.465,276.084 146.632,290.751 146.5,305.5C 151.167,305.5 155.833,305.5 160.5,305.5C 160.192,299.575 160.525,293.741 161.5,288C 166.751,287.196 171.918,287.363 177,288.5C 177.818,298.078 177.651,307.578 176.5,317C 156.503,317.5 136.503,317.667 116.5,317.5C 116.335,314.482 116.502,311.482 117,308.5C 118,307.833 119,307.167 120,306.5C 120.476,274.049 120.642,241.716 120.5,209.5C 119.826,207.483 118.659,205.817 117,204.5C 116.627,202.302 116.127,200.135 115.5,198C 115.645,197.228 115.978,196.561 116.5,196C 119.036,195.814 121.369,195.314 123.5,194.5 Z"/></g>
<g><path style="opacity:0.909" fill="#020502" d="M 192.5,194.5 C 212.178,194.167 231.845,194.5 251.5,195.5C 252.632,202.783 252.799,210.117 252,217.5C 251.594,219.779 250.261,221.113 248,221.5C 243.873,220.761 239.706,220.261 235.5,220C 234.536,215.934 234.203,211.767 234.5,207.5C 229.5,207.5 224.5,207.5 219.5,207.5C 220.706,220.529 220.706,233.529 219.5,246.5C 221.465,247.292 223.465,247.959 225.5,248.5C 227.409,247.652 229.409,247.318 231.5,247.5C 231.141,245.234 231.808,243.401 233.5,242C 236.562,241.259 239.562,241.425 242.5,242.5C 243.815,250.725 243.815,258.892 242.5,267C 239.118,267.824 235.784,267.657 232.5,266.5C 231.652,264.591 231.318,262.591 231.5,260.5C 227.563,260.207 223.73,260.54 220,261.5C 220.213,276.812 220.546,292.145 221,307.5C 223.751,310.457 224.251,313.791 222.5,317.5C 213.477,317.284 204.477,317.617 195.5,318.5C 193.68,318.351 192.18,317.684 191,316.5C 192.44,310.08 193.274,303.413 193.5,296.5C 192.749,266.173 192.249,235.839 192,205.5C 189.962,201.58 190.129,197.913 192.5,194.5 Z"/></g>
<g><path style="opacity:0.941" fill="#020402" d="M 292.5,193.5 C 301.085,193.183 309.585,193.517 318,194.5C 319.258,199.351 318.424,203.685 315.5,207.5C 319.089,236.14 322.589,264.807 326,293.5C 326.705,300.276 328.205,306.776 330.5,313C 330.441,314.436 330.108,315.769 329.5,317C 319.172,317.5 308.839,317.666 298.5,317.5C 297.215,313.375 297.882,309.541 300.5,306C 298.894,299.304 298.228,292.471 298.5,285.5C 291.675,285.587 284.842,285.92 278,286.5C 277.531,292.386 276.698,298.219 275.5,304C 277.998,308.103 278.998,312.603 278.5,317.5C 270.804,317.831 263.138,317.497 255.5,316.5C 254.907,314.618 254.24,312.785 253.5,311C 255.774,308.656 256.941,305.822 257,302.5C 261.229,271.543 265.062,240.543 268.5,209.5C 266.727,205.041 266.227,200.374 267,195.5C 275.598,194.846 284.098,194.18 292.5,193.5 Z M 285.5,211.5 C 287.5,211.5 289.5,211.5 291.5,211.5C 293.664,230.814 295.664,250.147 297.5,269.5C 291.575,269.808 285.741,269.475 280,268.5C 281.615,249.289 283.448,230.289 285.5,211.5 Z"/></g>
<g><path style="opacity:0.943" fill="#020502" d="M 584.5,194.5 C 601.17,194.333 617.837,194.5 634.5,195C 641.219,195.77 646.386,198.937 650,204.5C 653.735,218.103 654.069,231.77 651,245.5C 649.207,254.63 643.707,259.463 634.5,260C 639.043,260.937 643.376,262.604 647.5,265C 649.049,266.214 650.215,267.714 651,269.5C 651.333,281.5 651.667,293.5 652,305.5C 654.243,309.131 655.077,313.131 654.5,317.5C 644.81,317.832 635.144,317.498 625.5,316.5C 624.682,301.211 624.182,285.878 624,270.5C 620.595,266.826 616.595,265.826 612,267.5C 611.333,280.5 611.333,293.5 612,306.5C 616.575,310.627 616.575,314.627 612,318.5C 602.583,317.515 593.083,317.182 583.5,317.5C 583.489,315.453 583.156,313.453 582.5,311.5C 582.703,309.792 583.536,308.459 585,307.5C 585.667,273.5 585.667,239.5 585,205.5C 582.018,201.855 581.852,198.188 584.5,194.5 Z M 613.5,207.5 C 616.693,207.524 620.026,208.024 623.5,209C 624,209.5 624.5,210 625,210.5C 626.123,215.272 626.957,220.105 627.5,225C 626.584,233.154 625.751,241.321 625,249.5C 620.956,252.109 616.623,252.776 612,251.5C 611.655,237.953 611.488,224.453 611.5,211C 611.862,209.566 612.528,208.399 613.5,207.5 Z"/></g>
<g><path style="opacity:0.004" fill="#000000" d="M 472.5,221.5 C 473.833,222.167 473.833,222.167 472.5,221.5 Z"/></g>
<g><path style="opacity:0.004" fill="#000000" d="M 177.5,222.5 C 178.833,223.167 178.833,223.167 177.5,222.5 Z"/></g>
<g><path style="opacity:0.004" fill="#000000" d="M 424.5,240.5 C 425.833,241.167 425.833,241.167 424.5,240.5 Z"/></g>
<g><path style="opacity:0.004" fill="#000000" d="M 49.5,253.5 C 50.8333,254.167 50.8333,254.167 49.5,253.5 Z"/></g>
<g><path style="opacity:0.004" fill="#000000" d="M 424.5,261.5 C 425.833,262.167 425.833,262.167 424.5,261.5 Z"/></g>
<g><path style="opacity:0.004" fill="#000000" d="M 152.5,262.5 C 153.833,263.167 153.833,263.167 152.5,262.5 Z"/></g>
<g><path style="opacity:0.004" fill="#000000" d="M 244.5,272.5 C 245.833,273.167 245.833,273.167 244.5,272.5 Z"/></g>
<g><path style="opacity:0.004" fill="#000000" d="M 338.5,287.5 C 339.833,288.167 339.833,288.167 338.5,287.5 Z"/></g>
<g><path style="opacity:0.004" fill="#000000" d="M 336.5,295.5 C 337.833,296.167 337.833,296.167 336.5,295.5 Z"/></g>
<g><path style="opacity:0.004" fill="#000000" d="M 380.5,299.5 C 381.833,300.167 381.833,300.167 380.5,299.5 Z"/></g>
<g><path style="opacity:0.004" fill="#000000" d="M 241.5,300.5 C 242.833,301.167 242.833,301.167 241.5,300.5 Z"/></g>
<g><path style="opacity:0.004" fill="#000000" d="M 250.5,308.5 C 251.833,309.167 251.833,309.167 250.5,308.5 Z"/></g>
<g><path style="opacity:0.004" fill="#000000" d="M 49.5,316.5 C 50.8333,317.167 50.8333,317.167 49.5,316.5 Z"/></g>
</svg>
