<?xml version="1.0" encoding="UTF-8"?>
<!DOCTYPE svg PUBLIC "-//W3C//DTD SVG 1.1//EN" "http://www.w3.org/Graphics/SVG/1.1/DTD/svg11.dtd">
<svg xmlns="http://www.w3.org/2000/svg" version="1.1" width="3000px" height="3000px" style="shape-rendering:geometricPrecision; text-rendering:geometricPrecision; image-rendering:optimizeQuality; fill-rule:evenodd; clip-rule:evenodd" xmlns:xlink="http://www.w3.org/1999/xlink">
<g><path style="opacity:0.999" fill="#ff6c37" d="M 1624.5,305.5 C 1922.03,297.288 2186.37,385.455 2417.5,570C 2626.14,743.955 2760.97,964.122 2822,1230.5C 2875.89,1491.04 2847.22,1742.04 2736,1983.5C 2613.39,2236.11 2425.55,2423.28 2172.5,2545C 1933.55,2654.51 1685.22,2682.85 1427.5,2630C 1177.83,2574.64 967.662,2452.8 797,2264.5C 601.473,2041.23 501.64,1780.23 497.5,1481.5C 501.328,1179.03 602.828,915.363 802,690.5C 978.095,499.491 1194.26,377.991 1450.5,326C 1508.19,315.239 1566.19,308.406 1624.5,305.5 Z"/></g>
<g><path style="opacity:1" fill="#fffefe" d="M 2186.5,743.5 C 2230.88,741.754 2270.88,753.921 2306.5,780C 2252.58,832.918 2199.75,886.752 2148,941.5C 2147.11,946.072 2147.78,950.405 2150,954.5C 2189.68,994.014 2229.18,1033.68 2268.5,1073.5C 2204.77,1099.09 2145.77,1090.92 2091.5,1049C 2046.21,1008.84 2025.71,958.34 2030,897.5C 2038.46,836.419 2069.63,791.252 2123.5,762C 2143.58,752.247 2164.58,746.08 2186.5,743.5 Z"/></g>
<g><path style="opacity:1" fill="#fffefe" d="M 2331.5,804.5 C 2368.54,847.632 2381.37,897.298 2370,953.5C 2359.95,996.16 2337.29,1030.16 2302,1055.5C 2264.69,1019.36 2227.86,982.693 2191.5,945.5C 2238.19,898.479 2284.85,851.479 2331.5,804.5 Z"/></g>
<g><path style="opacity:1" fill="#ff6d39" d="M 2319.5,887.5 C 2329.25,886.29 2335.75,890.29 2339,899.5C 2347.42,924.957 2342.92,947.791 2325.5,968C 2319.72,970.394 2313.72,971.061 2307.5,970C 2301.78,962.711 2302.28,955.878 2309,949.5C 2318.15,934.547 2318.82,919.214 2311,903.5C 2310.16,896.18 2313,890.847 2319.5,887.5 Z"/></g>
<g><path style="opacity:1" fill="#fffefe" d="M 1946.5,1015.5 C 1976.16,1012.78 2002.83,1020.28 2026.5,1038C 2009.41,1041.21 1994.08,1048.21 1980.5,1059C 1835.17,1203.67 1689.83,1348.33 1544.5,1493C 1543.83,1493.67 1543.17,1493.67 1542.5,1493C 1515,1465.5 1487.5,1438 1460,1410.5C 1459.33,1409.83 1459.33,1409.17 1460,1408.5C 1556.92,1309.89 1657.75,1216.06 1762.5,1127C 1793.71,1101.79 1826.04,1078.12 1859.5,1056C 1878.02,1044.9 1897.02,1034.57 1916.5,1025C 1926.26,1020.69 1936.26,1017.52 1946.5,1015.5 Z"/></g>
<g><path style="opacity:1" fill="#fffefe" d="M 2028.5,1071.5 C 2061.14,1069.33 2082.64,1083.66 2093,1114.5C 2095.83,1132.52 2091.5,1148.52 2080,1162.5C 1925.83,1296.67 1771.67,1430.83 1617.5,1565C 1616.5,1565.67 1615.5,1565.67 1614.5,1565C 1598.5,1549 1582.5,1533 1566.5,1517C 1712.5,1372.33 1858.5,1227.67 2004.5,1083C 2011.93,1077.78 2019.93,1073.95 2028.5,1071.5 Z"/></g>
<g><path style="opacity:1" fill="#fffefe" d="M 2094.5,1198.5 C 2091.54,1211.55 2087.38,1224.55 2082,1237.5C 2065.96,1272.6 2046.63,1305.6 2024,1336.5C 1979.41,1395.78 1931.08,1452.11 1879,1505.5C 1826.41,1559.09 1772.91,1611.59 1718.5,1663C 1717.83,1663.67 1717.17,1663.67 1716.5,1663C 1693.33,1639.83 1670.17,1616.67 1647,1593.5C 1646.33,1592.83 1646.33,1592.17 1647,1591.5C 1796.06,1460.26 1945.23,1329.26 2094.5,1198.5 Z"/></g>
<g><path style="opacity:1" fill="#fffefd" d="M 1433.5,1434.5 C 1434.24,1434.37 1434.91,1434.54 1435.5,1435C 1458.71,1458.37 1482.04,1481.54 1505.5,1504.5C 1502.37,1506.1 1499.04,1507.27 1495.5,1508C 1438.5,1520.4 1381.5,1532.4 1324.5,1544C 1361.03,1507.63 1397.37,1471.13 1433.5,1434.5 Z"/></g>
<g><path style="opacity:1" fill="#fffcfb" d="M 1542.5,1543.5 C 1558.15,1558.48 1573.48,1573.81 1588.5,1589.5C 1553.84,1594.33 1519.17,1598.5 1484.5,1602C 1504.04,1582.63 1523.37,1563.13 1542.5,1543.5 Z"/></g>
<g><path style="opacity:1" fill="#fffefe" d="M 1607.5,1622.5 C 1611.18,1622.33 1614.85,1622.5 1618.5,1623C 1640.68,1645.01 1662.68,1667.18 1684.5,1689.5C 1532.45,1815.54 1367.12,1922.04 1188.5,2009C 1181.27,2016.03 1178.43,2024.53 1180,2034.5C 1187.17,2064.51 1194.34,2094.51 1201.5,2124.5C 1200.5,2128.84 1197.83,2130.34 1193.5,2129C 1154.64,2090.47 1116.14,2051.64 1078,2012.5C 1077.33,2011.83 1077.33,2011.17 1078,2010.5C 1195.83,1890.67 1313.67,1770.83 1431.5,1651C 1490.23,1641.25 1548.9,1631.75 1607.5,1622.5 Z"/></g>
<g><path style="opacity:1" fill="#fffefd" d="M 1049.5,2037.5 C 1085.58,2070.07 1121.24,2103.24 1156.5,2137C 1091.8,2133.85 1027.13,2129.85 962.5,2125C 991.702,2095.97 1020.7,2066.8 1049.5,2037.5 Z"/></g>
</svg>
