<?xml version="1.0" encoding="UTF-8"?>
<!DOCTYPE svg PUBLIC "-//W3C//DTD SVG 1.1//EN" "http://www.w3.org/Graphics/SVG/1.1/DTD/svg11.dtd">
<svg xmlns="http://www.w3.org/2000/svg" version="1.1" width="1200px" height="382px" style="shape-rendering:geometricPrecision; text-rendering:geometricPrecision; image-rendering:optimizeQuality; fill-rule:evenodd; clip-rule:evenodd" xmlns:xlink="http://www.w3.org/1999/xlink">
<g><path style="opacity:0.993" fill="#888888" d="M 552.5,-0.5 C 557.833,-0.5 563.167,-0.5 568.5,-0.5C 578.481,3.31579 585.315,10.3158 589,20.5C 589.667,97.5 589.667,174.5 589,251.5C 581.758,305.852 553.591,345.019 504.5,369C 489.327,375.526 473.66,379.693 457.5,381.5C 448.833,381.5 440.167,381.5 431.5,381.5C 362.797,371.534 319.63,332.868 302,265.5C 292.894,209.815 309.061,162.981 350.5,125C 398.793,87.9603 451.126,81.2936 507.5,105C 515.919,108.956 523.753,113.789 531,119.5C 531.333,87.1667 531.667,54.8333 532,22.5C 534.817,11.1866 541.65,3.51991 552.5,-0.5 Z"/></g>
<g><path style="opacity:0.997" fill="#9c5789" d="M 151.5,381.5 C 146.833,381.5 142.167,381.5 137.5,381.5C 79.0008,376.173 36.8341,347.173 11,294.5C 5.42499,281.185 1.59166,267.518 -0.5,253.5C -0.5,241.833 -0.5,230.167 -0.5,218.5C 10.7143,153.114 48.381,111.614 112.5,94C 180.216,82.6231 232.716,105.456 270,162.5C 296,211.5 296,260.5 270,309.5C 242.583,353.296 203.083,377.296 151.5,381.5 Z"/></g>
<g><path style="opacity:0.992" fill="#888888" d="M 760.5,381.5 C 751.833,381.5 743.167,381.5 734.5,381.5C 671.175,372.683 629.008,338.016 608,277.5C 593.184,217.575 608.351,166.741 653.5,125C 697.207,90.8813 745.54,82.5479 798.5,100C 852.51,122.354 883.677,162.52 892,220.5C 896.02,283.636 871.186,331.469 817.5,364C 799.467,373.418 780.467,379.251 760.5,381.5 Z"/></g>
<g><path style="opacity:0.992" fill="#888888" d="M 1199.5,220.5 C 1199.5,230.833 1199.5,241.167 1199.5,251.5C 1191.87,304.628 1164.2,343.462 1116.5,368C 1100.75,375.091 1084.42,379.591 1067.5,381.5C 1058.83,381.5 1050.17,381.5 1041.5,381.5C 972.797,371.534 929.63,332.868 912,265.5C 902.082,200.192 924.248,149.026 978.5,112C 1015.69,90.6404 1055.02,85.6404 1096.5,97C 1155.44,117.736 1189.77,158.902 1199.5,220.5 Z"/></g>
<g><path style="opacity:1" fill="#fefefe" d="M 128.5,151.5 C 173.104,147.869 204.604,166.203 223,206.5C 234.265,241.676 227.098,272.509 201.5,299C 172.12,323.733 139.787,328.4 104.5,313C 66.7826,290.718 51.9493,257.885 60,214.5C 70.9458,180.381 93.7792,159.381 128.5,151.5 Z"/></g>
<g><path style="opacity:1" fill="#fefefe" d="M 430.5,151.5 C 480.442,148.035 512.942,170.035 528,217.5C 534.675,259.975 519.509,291.809 482.5,313C 440.703,330.175 405.203,321.675 376,287.5C 358.325,261.762 354.658,234.095 365,204.5C 377.849,175.462 399.682,157.795 430.5,151.5 Z"/></g>
<g><path style="opacity:1" fill="#fefefe" d="M 732.5,151.5 C 776.457,147.549 807.957,165.216 827,204.5C 839.301,242.244 831.134,274.744 802.5,302C 778.273,320.744 751.273,326.078 721.5,318C 678.411,300.349 658.911,268.182 663,221.5C 672.054,183.947 695.221,160.613 732.5,151.5 Z"/></g>
<g><path style="opacity:1" fill="#fefefe" d="M 1039.5,151.5 C 1083.46,147.549 1114.96,165.216 1134,204.5C 1146.3,242.244 1138.13,274.744 1109.5,302C 1085.27,320.744 1058.27,326.078 1028.5,318C 985.411,300.349 965.911,268.182 970,221.5C 979.054,183.947 1002.22,160.613 1039.5,151.5 Z"/></g>
</svg>
