<?xml version="1.0" encoding="UTF-8"?>
<!DOCTYPE svg PUBLIC "-//W3C//DTD SVG 1.1//EN" "http://www.w3.org/Graphics/SVG/1.1/DTD/svg11.dtd">
<svg xmlns="http://www.w3.org/2000/svg" version="1.1" width="1200px" height="1317px" style="shape-rendering:geometricPrecision; text-rendering:geometricPrecision; image-rendering:optimizeQuality; fill-rule:evenodd; clip-rule:evenodd" xmlns:xlink="http://www.w3.org/1999/xlink">
<g><path style="opacity:0.991" fill="#4686b8" d="M 500.5,-0.5 C 511.5,-0.5 522.5,-0.5 533.5,-0.5C 502.167,36.5 470.833,73.5 439.5,110.5C 425.803,84.6591 404.803,75.8258 376.5,84C 352.071,96.6917 342.571,116.525 348,143.5C 353.387,161.054 364.887,172.387 382.5,177.5C 362.517,200.156 342.851,223.156 323.5,246.5C 308.833,246.5 294.167,246.5 279.5,246.5C 279.5,221.167 279.5,195.833 279.5,170.5C 325.911,117.092 371.578,63.0923 416.5,8.5C 444.518,4.31229 472.518,1.31229 500.5,-0.5 Z"/></g>
<g><path style="opacity:0.997" fill="#4280b1" d="M 533.5,-0.5 C 549.167,-0.5 564.833,-0.5 580.5,-0.5C 602.057,1.10327 623.724,3.10327 645.5,5.5C 577.523,85.8139 509.523,166.147 441.5,246.5C 402.167,246.5 362.833,246.5 323.5,246.5C 342.851,223.156 362.517,200.156 382.5,177.5C 409.306,182.203 428.473,172.203 440,147.5C 444.677,135.099 444.511,122.765 439.5,110.5C 470.833,73.5 502.167,36.5 533.5,-0.5 Z"/></g>
<g><path style="opacity:0.998" fill="#3d7aab" d="M 645.5,5.5 C 669.654,7.53861 692.988,13.0386 715.5,22C 721.053,24.6076 726.387,27.4409 731.5,30.5C 728.606,31.8823 726.106,33.8823 724,36.5C 663.667,107.5 603.333,178.5 543,249.5C 542.768,248.263 542.268,247.263 541.5,246.5C 508.167,246.5 474.833,246.5 441.5,246.5C 509.523,166.147 577.523,85.8139 645.5,5.5 Z"/></g>
<g><path style="opacity:0.994" fill="#498abd" d="M 416.5,8.5 C 371.578,63.0923 325.911,117.092 279.5,170.5C 278.748,147.72 279.915,125.054 283,102.5C 289.999,66.5026 310.499,41.6692 344.5,28C 367.846,18.9972 391.846,12.4972 416.5,8.5 Z"/></g>
<g><path style="opacity:0.998" fill="#3874a4" d="M 746.5,40.5 C 763.951,52.2842 777.951,67.2842 788.5,85.5C 786.629,85.8588 785.129,86.8588 784,88.5C 658.998,235.666 533.831,382.666 408.5,529.5C 348.131,533.757 301.964,561.423 270,612.5C 258.817,631.716 251.817,652.383 249,674.5C 247.564,720.481 247.064,766.481 247.5,812.5C 214.498,812.667 181.498,812.5 148.5,812C 131.483,811.247 115.483,807.08 100.5,799.5C 315.833,546.5 531.167,293.5 746.5,40.5 Z"/></g>
<g><path style="opacity:0.998" fill="#3671a1" d="M 788.5,85.5 C 794.074,95.2228 798.074,105.556 800.5,116.5C 798.692,115.683 797.192,116.35 796,118.5C 680.208,255.294 564.042,391.794 447.5,528C 453.681,528.172 459.681,528.672 465.5,529.5C 446.5,529.5 427.5,529.5 408.5,529.5C 533.831,382.666 658.998,235.666 784,88.5C 785.129,86.8588 786.629,85.8588 788.5,85.5 Z"/></g>
<g><path style="opacity:0.998" fill="#346e9e" d="M 800.5,116.5 C 802.416,122.992 803.582,129.659 804,136.5C 804.5,146.828 804.666,157.161 804.5,167.5C 803.671,174.655 803.171,181.989 803,189.5C 706.255,302.679 609.755,416.012 513.5,529.5C 497.5,529.5 481.5,529.5 465.5,529.5C 459.681,528.672 453.681,528.172 447.5,528C 564.042,391.794 680.208,255.294 796,118.5C 797.192,116.35 798.692,115.683 800.5,116.5 Z"/></g>
<g><path style="opacity:0.995" fill="#326b9b" d="M 804.5,167.5 C 804.5,193.5 804.5,219.5 804.5,245.5C 724.031,339.475 643.698,433.642 563.5,528C 569.681,528.172 575.681,528.672 581.5,529.5C 558.833,529.5 536.167,529.5 513.5,529.5C 609.755,416.012 706.255,302.679 803,189.5C 803.171,181.989 803.671,174.655 804.5,167.5 Z"/></g>
<g><path style="opacity:0.994" fill="#306998" d="M 804.5,245.5 C 804.963,302.19 804.463,358.857 803,415.5C 792.719,472.447 759.886,509.28 704.5,526C 698.564,527.387 692.564,528.387 686.5,529C 651.502,529.5 616.502,529.667 581.5,529.5C 575.681,528.672 569.681,528.172 563.5,528C 643.698,433.642 724.031,339.475 804.5,245.5 Z"/></g>
<g><path style="opacity:0.997" fill="#4a8abd" d="M 186.5,279.5 C 125.512,351.819 64.1789,423.819 2.5,495.5C 6.58157,455.843 15.0816,417.176 28,379.5C 59.2524,312.434 112.086,279.1 186.5,279.5 Z"/></g>
<g><path style="opacity:0.998" fill="#4685b8" d="M 186.5,279.5 C 228.167,279.5 269.833,279.5 311.5,279.5C 305.681,280.328 299.681,280.828 293.5,281C 199.375,392.127 104.875,502.961 10,613.5C 7.75776,615.87 6.25776,618.536 5.5,621.5C 3.23714,605.728 1.23714,590.061 -0.5,574.5C -0.5,555.5 -0.5,536.5 -0.5,517.5C 0.296922,510.143 1.29692,502.81 2.5,495.5C 64.1789,423.819 125.512,351.819 186.5,279.5 Z"/></g>
<g><path style="opacity:0.999" fill="#4280b1" d="M 311.5,279.5 C 345.167,279.5 378.833,279.5 412.5,279.5C 286.167,428.167 159.833,576.833 33.5,725.5C 27.7484,714.092 23.2484,702.092 20,689.5C 14.214,667.024 9.38068,644.358 5.5,621.5C 6.25776,618.536 7.75776,615.87 10,613.5C 104.875,502.961 199.375,392.127 293.5,281C 299.681,280.828 305.681,280.328 311.5,279.5 Z"/></g>
<g><path style="opacity:0.999" fill="#3f7cad" d="M 412.5,279.5 C 422.833,279.5 433.167,279.5 443.5,279.5C 311.22,436.113 178.22,592.113 44.5,747.5C 40.2928,740.419 36.6261,733.086 33.5,725.5C 159.833,576.833 286.167,428.167 412.5,279.5 Z"/></g>
<g><path style="opacity:0.999" fill="#3d79aa" d="M 443.5,279.5 C 462.167,279.5 480.833,279.5 499.5,279.5C 504.681,280.167 510.015,280.833 515.5,281.5C 371.079,450.578 227.079,619.912 83.5,789.5C 67.3193,778.487 54.3193,764.487 44.5,747.5C 178.22,592.113 311.22,436.113 443.5,279.5 Z"/></g>
<g><path style="opacity:0.999" fill="#3b77a7" d="M 731.5,30.5 C 737.049,33.0563 742.049,36.3897 746.5,40.5C 531.167,293.5 315.833,546.5 100.5,799.5C 94.3078,796.956 88.6411,793.623 83.5,789.5C 227.079,619.912 371.079,450.578 515.5,281.5C 510.015,280.833 504.681,280.167 499.5,279.5C 513.5,279.5 527.5,279.5 541.5,279.5C 541.5,268.5 541.5,257.5 541.5,246.5C 542.268,247.263 542.768,248.263 543,249.5C 603.333,178.5 663.667,107.5 724,36.5C 726.106,33.8823 728.606,31.8823 731.5,30.5 Z"/></g>
<g><path style="opacity:0.996" fill="#ffe772" d="M 993.5,293.5 C 941.116,331.215 888.45,368.548 835.5,405.5C 836.472,363.52 836.806,321.52 836.5,279.5C 874.501,279.333 912.501,279.5 950.5,280C 965.88,281.406 980.213,285.906 993.5,293.5 Z"/></g>
<g><path style="opacity:0.996" fill="#ffe56d" d="M 993.5,293.5 C 1006,299.998 1016.33,308.998 1024.5,320.5C 956.5,368.833 888.5,417.167 820.5,465.5C 829.261,446.457 834.261,426.457 835.5,405.5C 888.45,368.548 941.116,331.215 993.5,293.5 Z"/></g>
<g><path style="opacity:0.997" fill="#ffe366" d="M 1024.5,320.5 C 1034.75,331.986 1042.75,344.986 1048.5,359.5C 1047.71,360.794 1046.71,361.961 1045.5,363C 790.579,544.711 535.745,726.544 281,908.5C 280.817,905.635 280.317,902.969 279.5,900.5C 279.5,884.167 279.5,867.833 279.5,851.5C 415.351,755.076 551.018,658.409 686.5,561.5C 747.61,552.382 792.277,520.382 820.5,465.5C 888.5,417.167 956.5,368.833 1024.5,320.5 Z"/></g>
<g><path style="opacity:0.999" fill="#ffe160" d="M 1048.5,359.5 C 1054.53,371.915 1059.2,384.915 1062.5,398.5C 1060.7,401.098 1058.36,403.265 1055.5,405C 797.288,589.386 538.954,773.552 280.5,957.5C 279.525,938.546 279.192,919.546 279.5,900.5C 280.317,902.969 280.817,905.635 281,908.5C 535.745,726.544 790.579,544.711 1045.5,363C 1046.71,361.961 1047.71,360.794 1048.5,359.5 Z"/></g>
<g><path style="opacity:0.999" fill="#ffdf5a" d="M 1062.5,398.5 C 1066.75,412.175 1070.08,426.175 1072.5,440.5C 1070.7,443.098 1068.36,445.265 1065.5,447C 895.5,568.333 725.5,689.667 555.5,811C 550.981,811.175 546.647,811.675 542.5,812.5C 542.5,815.167 542.5,817.833 542.5,820.5C 458.934,879.109 375.934,938.443 293.5,998.5C 285.941,985.955 281.608,972.289 280.5,957.5C 538.954,773.552 797.288,589.386 1055.5,405C 1058.36,403.265 1060.7,401.098 1062.5,398.5 Z"/></g>
<g><path style="opacity:0.997" fill="#ffdd54" d="M 1072.5,440.5 C 1076.12,455.26 1079.12,470.26 1081.5,485.5C 1080.08,485.709 1078.74,486.209 1077.5,487C 926.167,595 774.833,703 623.5,811C 627.356,811.177 631.023,811.677 634.5,812.5C 603.833,812.5 573.167,812.5 542.5,812.5C 546.647,811.675 550.981,811.175 555.5,811C 725.5,689.667 895.5,568.333 1065.5,447C 1068.36,445.265 1070.7,443.098 1072.5,440.5 Z"/></g>
<g><path style="opacity:0.999" fill="#ffdb4f" d="M 1081.5,485.5 C 1082.83,496.135 1083.83,506.802 1084.5,517.5C 947.529,615.324 810.529,713.157 673.5,811C 661.993,811.169 650.659,811.669 639.5,812.5C 637.833,812.5 636.167,812.5 634.5,812.5C 631.023,811.677 627.356,811.177 623.5,811C 774.833,703 926.167,595 1077.5,487C 1078.74,486.209 1080.08,485.709 1081.5,485.5 Z"/></g>
<g><path style="opacity:0.993" fill="#ffda4b" d="M 1084.5,517.5 C 1085.39,524.764 1086.05,532.098 1086.5,539.5C 958.698,629.244 831.364,719.744 704.5,811C 708.025,811.179 711.359,811.679 714.5,812.5C 689.5,812.5 664.5,812.5 639.5,812.5C 650.659,811.669 661.993,811.169 673.5,811C 810.529,713.157 947.529,615.324 1084.5,517.5 Z"/></g>
<g><path style="opacity:0.997" fill="#ffd847" d="M 1086.5,539.5 C 1086.94,557.035 1086.27,574.368 1084.5,591.5C 1084.63,590.624 1084.3,589.957 1083.5,589.5C 980.027,663.139 876.694,736.973 773.5,811C 768.981,811.175 764.647,811.675 760.5,812.5C 745.167,812.5 729.833,812.5 714.5,812.5C 711.359,811.679 708.025,811.179 704.5,811C 831.364,719.744 958.698,629.244 1086.5,539.5 Z"/></g>
<g><path style="opacity:0.996" fill="#ffe772" d="M 617.5,561.5 C 505.567,641.478 393.567,721.478 281.5,801.5C 280.832,799.031 280.165,796.698 279.5,794.5C 279.333,757.832 279.5,721.165 280,684.5C 286.834,630.019 315.334,591.852 365.5,570C 377.472,565.672 389.806,563.006 402.5,562C 474.166,561.5 545.833,561.333 617.5,561.5 Z"/></g>
<g><path style="opacity:0.996" fill="#ffe66d" d="M 617.5,561.5 C 640.5,561.5 663.5,561.5 686.5,561.5C 551.018,658.409 415.351,755.076 279.5,851.5C 279.5,832.5 279.5,813.5 279.5,794.5C 280.165,796.698 280.832,799.031 281.5,801.5C 393.567,721.478 505.567,641.478 617.5,561.5 Z"/></g>
<g><path style="opacity:0.994" fill="#ffd641" d="M 1084.5,591.5 C 1083.46,609.42 1080.79,627.087 1076.5,644.5C 998.064,699.756 919.731,755.256 841.5,811C 845.356,811.177 849.023,811.677 852.5,812.5C 821.833,812.5 791.167,812.5 760.5,812.5C 764.647,811.675 768.981,811.175 773.5,811C 876.694,736.973 980.027,663.139 1083.5,589.5C 1084.3,589.957 1084.63,590.624 1084.5,591.5 Z"/></g>
<g><path style="opacity:0.995" fill="#ffd43b" d="M 1076.5,644.5 C 1068.21,677.194 1057.05,708.861 1043,739.5C 1032.81,761.719 1017.97,780.219 998.5,795C 985.008,803.498 970.341,808.831 954.5,811C 920.523,812.419 886.523,812.919 852.5,812.5C 849.023,811.677 845.356,811.177 841.5,811C 919.731,755.256 998.064,699.756 1076.5,644.5 Z"/></g>
<g><path style="opacity:0.997" fill="#ffdd54" d="M 542.5,820.5 C 542.5,828.5 542.5,836.5 542.5,844.5C 549.833,844.5 557.167,844.5 564.5,844.5C 567.641,845.321 570.975,845.821 574.5,846C 488.923,906.943 403.59,968.11 318.5,1029.5C 308.032,1020.9 299.698,1010.57 293.5,998.5C 375.934,938.443 458.934,879.109 542.5,820.5 Z"/></g>
<g><path style="opacity:0.994" fill="#ffdb4f" d="M 564.5,844.5 C 595.5,844.5 626.5,844.5 657.5,844.5C 657.158,845.338 656.492,845.672 655.5,845.5C 644.397,845.046 633.397,845.546 622.5,847C 528.954,914.052 435.288,980.886 341.5,1047.5C 332.918,1042.7 325.252,1036.7 318.5,1029.5C 403.59,968.11 488.923,906.943 574.5,846C 570.975,845.821 567.641,845.321 564.5,844.5 Z"/></g>
<g><path style="opacity:0.997" fill="#ffd847" d="M 657.5,844.5 C 683.833,844.5 710.167,844.5 736.5,844.5C 732.688,845.324 728.688,845.824 724.5,846C 616.961,922.264 509.628,998.764 402.5,1075.5C 387.045,1071.24 372.378,1065.24 358.5,1057.5C 457.714,987.067 556.714,916.4 655.5,845.5C 656.492,845.672 657.158,845.338 657.5,844.5 Z"/></g>
<g><path style="opacity:0.995" fill="#ffd641" d="M 736.5,844.5 C 753.167,844.5 769.833,844.5 786.5,844.5C 788.292,845.309 790.292,845.809 792.5,846C 763.833,866.667 735.167,887.333 706.5,908C 703.714,910.06 700.714,911.56 697.5,912.5C 667.476,910.878 648.81,924.545 641.5,953.5C 581.348,996.804 521.014,1039.97 460.5,1083C 457.638,1084.74 455.304,1086.9 453.5,1089.5C 436.098,1085.9 419.098,1081.24 402.5,1075.5C 509.628,998.764 616.961,922.264 724.5,846C 728.688,845.824 732.688,845.324 736.5,844.5 Z"/></g>
<g><path style="opacity:0.999" fill="#ffda4b" d="M 655.5,845.5 C 556.714,916.4 457.714,987.067 358.5,1057.5C 352.332,1054.92 346.665,1051.59 341.5,1047.5C 435.288,980.886 528.954,914.052 622.5,847C 633.397,845.546 644.397,845.046 655.5,845.5 Z"/></g>
<g><path style="opacity:0.993" fill="#ffd43b" d="M 786.5,844.5 C 792.5,844.5 798.5,844.5 804.5,844.5C 804.667,881.502 804.5,918.502 804,955.5C 799.67,992.675 782.17,1021.84 751.5,1043C 718.969,1063.92 683.636,1078.26 645.5,1086C 581.74,1101.25 517.74,1102.42 453.5,1089.5C 455.304,1086.9 457.638,1084.74 460.5,1083C 521.014,1039.97 581.348,996.804 641.5,953.5C 639.028,980.515 650.362,999.015 675.5,1009C 703.464,1014.6 723.297,1004.44 735,978.5C 742.27,951.871 734.103,931.371 710.5,917C 706.154,915.164 701.821,913.664 697.5,912.5C 700.714,911.56 703.714,910.06 706.5,908C 735.167,887.333 763.833,866.667 792.5,846C 790.292,845.809 788.292,845.309 786.5,844.5 Z"/></g>
<g><path style="opacity:0.008" fill="#787878" d="M 728.5,1195.5 C 734.923,1197.45 741.589,1198.78 748.5,1199.5C 751.219,1200.91 754.219,1201.58 757.5,1201.5C 760.428,1201.57 763.095,1202.23 765.5,1203.5C 768.854,1205.26 772.521,1206.26 776.5,1206.5C 790.845,1211.23 804.845,1217.07 818.5,1224C 822.951,1226.78 827.117,1229.95 831,1233.5C 833.157,1235.82 834.657,1238.48 835.5,1241.5C 835.59,1243.7 835.923,1245.86 836.5,1248C 835.794,1251.28 834.794,1254.45 833.5,1257.5C 830.018,1263.15 825.351,1267.65 819.5,1271C 803.99,1279 787.99,1285.5 771.5,1290.5C 765.906,1291.23 760.573,1292.57 755.5,1294.5C 752.781,1295.91 749.781,1296.58 746.5,1296.5C 741.256,1296.88 736.256,1297.88 731.5,1299.5C 687.687,1307.75 643.354,1312.58 598.5,1314C 530.948,1316.87 463.614,1314.2 396.5,1306C 387.292,1304.9 378.292,1303.4 369.5,1301.5C 366.091,1300.1 362.425,1299.43 358.5,1299.5C 353.256,1299.12 348.256,1298.12 343.5,1296.5C 340.781,1295.09 337.781,1294.42 334.5,1294.5C 332.901,1294.77 331.568,1294.43 330.5,1293.5C 328.095,1292.23 325.428,1291.57 322.5,1291.5C 305.364,1286.5 288.697,1280 272.5,1272C 266.693,1268.67 261.526,1264.51 257,1259.5C 255.878,1257.59 255.045,1255.59 254.5,1253.5C 253.89,1247.49 254.89,1241.83 257.5,1236.5C 264.516,1228.15 273.183,1221.98 283.5,1218C 302.446,1210.27 321.779,1204.1 341.5,1199.5C 387.861,1189.7 434.861,1183.87 482.5,1182C 551.699,1178.57 620.699,1180.91 689.5,1189C 702.738,1190.58 715.738,1192.74 728.5,1195.5 Z"/></g>
<g><path style="opacity:0.016" fill="#7a7a7a" d="M 771.5,1208.5 C 786.027,1213.26 800.027,1219.43 813.5,1227C 833.112,1240.3 833.445,1253.96 814.5,1268C 801.395,1275.64 787.728,1281.8 773.5,1286.5C 759.613,1291.72 745.28,1294.89 730.5,1296C 731.167,1296.33 731.833,1296.67 732.5,1297C 724.538,1299.11 716.538,1300.11 708.5,1300C 709.167,1300.33 709.833,1300.67 710.5,1301C 705.493,1302.34 700.493,1302.68 695.5,1302C 697.935,1303 697.602,1303.5 694.5,1303.5C 692.476,1302.98 690.476,1302.81 688.5,1303C 689.167,1303.33 689.833,1303.67 690.5,1304C 687.62,1304.68 684.787,1304.52 682,1303.5C 680.238,1303.94 680.405,1304.44 682.5,1305C 681.333,1305.17 680.167,1305.33 679,1305.5C 675.002,1306.27 670.169,1306.27 664.5,1305.5C 661.937,1305.74 661.937,1306.24 664.5,1307C 661.131,1307.66 657.797,1307.5 654.5,1306.5C 651.937,1306.74 651.937,1307.24 654.5,1308C 650.798,1308.68 647.131,1308.51 643.5,1307.5C 640.937,1307.74 640.937,1308.24 643.5,1309C 639.304,1309.66 635.138,1309.5 631,1308.5C 628.046,1308.59 627.879,1309.09 630.5,1310C 625.476,1310.66 620.476,1310.5 615.5,1309.5C 612.398,1309.5 612.065,1310 614.5,1311C 608.317,1311.62 602.151,1311.45 596,1310.5C 594.5,1310.67 593,1310.83 591.5,1311C 592.167,1311.33 592.833,1311.67 593.5,1312C 589.333,1312.17 585.167,1312.33 581,1312.5C 557,1311.17 533,1311.17 509,1312.5C 504.833,1312.33 500.667,1312.17 496.5,1312C 497.167,1311.67 497.833,1311.33 498.5,1311C 497.167,1310.83 495.833,1310.67 494.5,1310.5C 488.185,1311.49 481.852,1311.65 475.5,1311C 477.935,1310 477.602,1309.5 474.5,1309.5C 469.524,1310.5 464.524,1310.66 459.5,1310C 462.121,1309.09 461.954,1308.59 459,1308.5C 454.862,1309.5 450.696,1309.66 446.5,1309C 449.063,1308.24 449.063,1307.74 446.5,1307.5C 442.869,1308.51 439.202,1308.68 435.5,1308C 438.063,1307.24 438.063,1306.74 435.5,1306.5C 432.203,1307.5 428.869,1307.66 425.5,1307C 428.063,1306.24 428.063,1305.74 425.5,1305.5C 422.536,1306.47 419.536,1306.64 416.5,1306C 419.063,1305.24 419.063,1304.74 416.5,1304.5C 411.334,1305.23 407,1305.23 403.5,1304.5C 400.398,1304.5 400.065,1304 402.5,1303C 400.524,1302.81 398.524,1302.98 396.5,1303.5C 395.5,1303.33 394.5,1303.17 393.5,1303C 394.696,1302.35 394.696,1301.85 393.5,1301.5C 391.232,1302.54 388.899,1302.71 386.5,1302C 388.595,1301.44 388.762,1300.94 387,1300.5C 380.792,1301.28 374.626,1300.78 368.5,1299C 370.595,1298.44 370.762,1297.94 369,1297.5C 347.798,1295.91 327.298,1291.24 307.5,1283.5C 296.034,1279.1 285.034,1273.6 274.5,1267C 258.631,1255.37 257.964,1243.04 272.5,1230C 286.016,1221.33 300.35,1214.5 315.5,1209.5C 337.7,1201.97 359.033,1197.47 379.5,1196C 376.879,1195.09 377.046,1194.59 380,1194.5C 382.409,1193.9 386.075,1193.9 391,1194.5C 392.762,1194.06 392.595,1193.56 390.5,1193C 393.047,1192.34 395.547,1192.51 398,1193.5C 399.762,1193.06 399.595,1192.56 397.5,1192C 400.047,1191.34 402.547,1191.51 405,1192.5C 406.762,1192.06 406.595,1191.56 404.5,1191C 407.38,1190.32 410.213,1190.48 413,1191.5C 414.762,1191.06 414.595,1190.56 412.5,1190C 415.536,1189.36 418.536,1189.53 421.5,1190.5C 424.063,1190.26 424.063,1189.76 421.5,1189C 424.869,1188.34 428.203,1188.5 431.5,1189.5C 434.063,1189.26 434.063,1188.76 431.5,1188C 434.869,1187.34 438.203,1187.5 441.5,1188.5C 443.373,1188.52 443.706,1188.02 442.5,1187C 446.362,1186.35 450.196,1186.52 454,1187.5C 456.954,1187.41 457.121,1186.91 454.5,1186C 458.857,1185.37 463.191,1185.54 467.5,1186.5C 470.602,1186.5 470.935,1186 468.5,1185C 474.021,1184.35 479.521,1184.51 485,1185.5C 486.167,1185.33 487.333,1185.17 488.5,1185C 487.833,1184.67 487.167,1184.33 486.5,1184C 495.011,1183.4 503.511,1183.56 512,1184.5C 514.167,1184.33 516.333,1184.17 518.5,1184C 517.167,1183.67 515.833,1183.33 514.5,1183C 534.833,1182.33 555.167,1182.33 575.5,1183C 574.167,1183.33 572.833,1183.67 571.5,1184C 579.001,1184.35 586.501,1184.18 594,1183.5C 597.167,1183.67 600.333,1183.83 603.5,1184C 602.833,1184.33 602.167,1184.67 601.5,1185C 605.992,1185.22 610.492,1185.05 615,1184.5C 617.167,1184.67 619.333,1184.83 621.5,1185C 619.065,1186 619.398,1186.5 622.5,1186.5C 626.809,1185.54 631.143,1185.37 635.5,1186C 634.294,1187.02 634.627,1187.52 636.5,1187.5C 640.465,1186.47 644.465,1186.3 648.5,1187C 645.937,1187.76 645.937,1188.26 648.5,1188.5C 651.797,1187.5 655.131,1187.34 658.5,1188C 657.112,1188.89 657.278,1189.39 659,1189.5C 662.121,1188.46 665.287,1188.3 668.5,1189C 665.937,1189.76 665.937,1190.26 668.5,1190.5C 671.464,1189.53 674.464,1189.36 677.5,1190C 675.405,1190.56 675.238,1191.06 677,1191.5C 682.589,1190.9 686.922,1190.9 690,1191.5C 691.167,1191.67 692.333,1191.83 693.5,1192C 691.405,1192.56 691.238,1193.06 693,1193.5C 697.501,1192.49 702.001,1192.66 706.5,1194C 704.405,1194.56 704.238,1195.06 706,1195.5C 708.12,1194.54 710.287,1194.37 712.5,1195C 711.304,1195.65 711.304,1196.15 712.5,1196.5C 714.432,1195.48 716.432,1195.31 718.5,1196C 716.405,1196.56 716.238,1197.06 718,1197.5C 721.842,1196.46 725.675,1196.63 729.5,1198C 727.405,1198.56 727.238,1199.06 729,1199.5C 730.789,1198.59 732.623,1198.42 734.5,1199C 732.405,1199.56 732.238,1200.06 734,1200.5C 746.953,1201.06 759.453,1203.72 771.5,1208.5 Z"/></g>
<g><path style="opacity:0.027" fill="#929292" d="M 653.5,1303.5 C 641.16,1304.17 628.827,1305 616.5,1306C 621.5,1306.33 626.5,1306.67 631.5,1307C 562.9,1312.33 494.567,1311.16 426.5,1303.5C 433.501,1304.06 440.501,1304.23 447.5,1304C 409.604,1300.91 372.271,1294.57 335.5,1285C 323.055,1281.44 311.055,1276.78 299.5,1271C 292.066,1266.9 285.899,1261.4 281,1254.5C 278.557,1247.94 279.557,1241.94 284,1236.5C 295.612,1225.77 309.112,1218.27 324.5,1214C 371.222,1200.52 418.889,1192.52 467.5,1190C 462.845,1189.5 458.179,1189.33 453.5,1189.5C 535.255,1182.54 616.922,1184.7 698.5,1196C 726.817,1200 754.483,1206.66 781.5,1216C 794.22,1220.44 805.387,1227.27 815,1236.5C 821.2,1244.77 820.867,1252.77 814,1260.5C 799.623,1271.94 783.456,1280.11 765.5,1285C 725.556,1296.21 684.889,1302.88 643.5,1305C 647.025,1304.82 650.359,1304.32 653.5,1303.5 Z"/></g>
<g><path style="opacity:0.031" fill="#7f7f7f" d="M 512.5,1188.5 C 584.117,1186.33 655.117,1191.83 725.5,1205C 747.91,1209.27 769.243,1216.6 789.5,1227C 811.022,1241.5 810.689,1255.5 788.5,1269C 763.12,1281.35 736.454,1289.68 708.5,1294C 594.322,1312.51 480.322,1311.51 366.5,1291C 341.237,1286.47 317.57,1277.8 295.5,1265C 280.589,1252.83 280.922,1241.16 296.5,1230C 310.174,1221.5 324.841,1215.17 340.5,1211C 371.718,1202.85 403.385,1197.19 435.5,1194C 461.281,1191.55 486.947,1189.72 512.5,1188.5 Z"/></g>
<g><path style="opacity:0.02" fill="#989998" d="M 453.5,1189.5 C 410.26,1192.99 367.593,1200.49 325.5,1212C 314.091,1215.69 303.091,1220.36 292.5,1226C 270.28,1239.94 269.946,1254.27 291.5,1269C 312.4,1279.73 334.4,1287.39 357.5,1292C 380.509,1296.64 403.509,1300.47 426.5,1303.5C 387.601,1300.55 349.601,1293.05 312.5,1281C 297.647,1276.33 284.813,1268.5 274,1257.5C 268.906,1247.08 271.072,1238.25 280.5,1231C 294.634,1221.5 309.967,1214.5 326.5,1210C 368.118,1198.74 410.452,1191.91 453.5,1189.5 Z"/></g>
<g><path style="opacity:0.024" fill="#7f807f" d="M 453.5,1189.5 C 458.179,1189.33 462.845,1189.5 467.5,1190C 418.889,1192.52 371.222,1200.52 324.5,1214C 309.112,1218.27 295.612,1225.77 284,1236.5C 279.557,1241.94 278.557,1247.94 281,1254.5C 285.899,1261.4 292.066,1266.9 299.5,1271C 311.055,1276.78 323.055,1281.44 335.5,1285C 372.271,1294.57 409.604,1300.91 447.5,1304C 440.501,1304.23 433.501,1304.06 426.5,1303.5C 403.509,1300.47 380.509,1296.64 357.5,1292C 334.4,1287.39 312.4,1279.73 291.5,1269C 269.946,1254.27 270.28,1239.94 292.5,1226C 303.091,1220.36 314.091,1215.69 325.5,1212C 367.593,1200.49 410.26,1192.99 453.5,1189.5 Z"/></g>
<g><path style="opacity:0.043" fill="#878787" d="M 504.5,1190.5 C 538.515,1190.17 572.515,1190.67 606.5,1192C 600.5,1192.33 594.5,1192.67 588.5,1193C 613.599,1192.06 638.599,1193.4 663.5,1197C 660.5,1197.33 657.5,1197.67 654.5,1198C 664.486,1199.5 674.486,1200.5 684.5,1201C 680.181,1200.24 675.848,1199.57 671.5,1199C 705.948,1201.69 739.282,1209.36 771.5,1222C 780.647,1225.65 788.48,1231.15 795,1238.5C 799.76,1247.97 797.927,1256.14 789.5,1263C 781.439,1268.7 772.772,1273.37 763.5,1277C 727.106,1289.15 689.773,1296.81 651.5,1300C 598.267,1305.36 544.934,1306.69 491.5,1304C 498.833,1303.67 506.167,1303.33 513.5,1303C 455.179,1304.21 397.846,1297.21 341.5,1282C 328.012,1278.06 315.345,1272.4 303.5,1265C 289.664,1254.81 288.998,1243.81 301.5,1232C 321.554,1219.76 343.22,1211.42 366.5,1207C 412.199,1197.73 458.199,1192.23 504.5,1190.5 Z"/></g>
<g><path style="opacity:0.024" fill="#7f807f" d="M 653.5,1303.5 C 691.009,1299.63 728.009,1292.47 764.5,1282C 778.282,1277.78 790.949,1271.44 802.5,1263C 811.197,1255.7 812.697,1247.2 807,1237.5C 798.242,1228.87 788.075,1222.37 776.5,1218C 740.812,1205.66 704.145,1197.66 666.5,1194C 705.906,1196.75 744.239,1204.75 781.5,1218C 826.886,1238.38 826.553,1258.38 780.5,1278C 739.306,1292.07 696.973,1300.57 653.5,1303.5 Z"/></g>
<g><path style="opacity:0.004" fill="#000000" d="M 728.5,1195.5 C 735.46,1195.96 742.127,1197.29 748.5,1199.5C 741.589,1198.78 734.923,1197.45 728.5,1195.5 Z"/></g>
<g><path style="opacity:0.055" fill="#919191" d="M 535.5,1193.5 C 594.025,1192.94 652.025,1198.11 709.5,1209C 729.067,1212.74 747.734,1219.08 765.5,1228C 786.386,1240.6 786.719,1253.6 766.5,1267C 743.024,1278.37 718.357,1286.04 692.5,1290C 608.44,1302.95 524.107,1304.95 439.5,1296C 405.675,1292.84 372.675,1285.84 340.5,1275C 298.235,1257.54 297.902,1239.54 339.5,1221C 380.768,1207.51 423.101,1199.51 466.5,1197C 489.639,1195.41 512.639,1194.24 535.5,1193.5 Z"/></g>
<g><path style="opacity:0.059" fill="#868686" d="M 503.5,1197.5 C 555.004,1195.91 606.337,1198.07 657.5,1204C 683.742,1207.11 709.409,1212.78 734.5,1221C 746.205,1224.72 756.372,1230.89 765,1239.5C 768.564,1245.75 768.231,1251.75 764,1257.5C 753.376,1266.73 741.209,1273.23 727.5,1277C 677.739,1290.34 627.073,1297.34 575.5,1298C 514.343,1300.35 453.676,1296.01 393.5,1285C 375.177,1281.34 357.511,1275.67 340.5,1268C 334.416,1264.91 329.249,1260.74 325,1255.5C 320.861,1246.9 322.695,1239.73 330.5,1234C 349.278,1222.4 369.612,1214.74 391.5,1211C 428.659,1203.82 465.992,1199.32 503.5,1197.5 Z"/></g>
<g><path style="opacity:0.063" fill="#8f8f8f" d="M 510.5,1198.5 C 570.954,1196.37 630.954,1200.53 690.5,1211C 709.197,1214.51 727.197,1220.17 744.5,1228C 749.263,1230.8 753.763,1233.96 758,1237.5C 763.371,1243.65 763.705,1249.98 759,1256.5C 755.749,1260.42 751.916,1263.59 747.5,1266C 725.222,1276.4 701.888,1283.4 677.5,1287C 582.257,1301.99 487.257,1300.65 392.5,1283C 372.016,1279.25 353.016,1271.91 335.5,1261C 324.772,1251.03 325.439,1241.7 337.5,1233C 360.304,1220.54 384.637,1212.54 410.5,1209C 443.785,1203.57 477.118,1200.07 510.5,1198.5 Z"/></g>
<g><path style="opacity:0.004" fill="#000000" d="M 341.5,1199.5 C 321.779,1204.1 302.446,1210.27 283.5,1218C 273.183,1221.98 264.516,1228.15 257.5,1236.5C 254.416,1239.61 252.749,1243.44 252.5,1248C 252.701,1250.11 253.367,1251.94 254.5,1253.5C 255.045,1255.59 255.878,1257.59 257,1259.5C 261.526,1264.51 266.693,1268.67 272.5,1272C 288.697,1280 305.364,1286.5 322.5,1291.5C 302.415,1287.19 283.415,1280.03 265.5,1270C 260.981,1266.48 256.815,1262.65 253,1258.5C 247.074,1247.26 249.24,1237.76 259.5,1230C 274.848,1219.66 291.514,1212 309.5,1207C 320.036,1203.87 330.703,1201.37 341.5,1199.5 Z"/></g>
<g><path style="opacity:0.004" fill="#000000" d="M 748.5,1199.5 C 751.781,1199.42 754.781,1200.09 757.5,1201.5C 754.219,1201.58 751.219,1200.91 748.5,1199.5 Z"/></g>
<g><path style="opacity:0.004" fill="#000000" d="M 765.5,1203.5 C 769.479,1203.74 773.146,1204.74 776.5,1206.5C 772.521,1206.26 768.854,1205.26 765.5,1203.5 Z"/></g>
<g><path style="opacity:0.004" fill="#000000" d="M 776.5,1206.5 C 793.808,1210.55 810.141,1217.05 825.5,1226C 831.765,1230.26 836.598,1235.76 840,1242.5C 841.519,1249.18 840.186,1255.18 836,1260.5C 824.827,1270.68 811.993,1278.18 797.5,1283C 789.014,1286.22 780.348,1288.72 771.5,1290.5C 787.99,1285.5 803.99,1279 819.5,1271C 825.351,1267.65 830.018,1263.15 833.5,1257.5C 836.074,1254.97 837.408,1251.8 837.5,1248C 837.503,1245.52 836.837,1243.35 835.5,1241.5C 834.657,1238.48 833.157,1235.82 831,1233.5C 827.117,1229.95 822.951,1226.78 818.5,1224C 804.845,1217.07 790.845,1211.23 776.5,1206.5 Z"/></g>
<g><path style="opacity:0.012" fill="#545554" d="M 771.5,1208.5 C 787.061,1212.08 801.728,1217.91 815.5,1226C 820.019,1229.52 824.185,1233.35 828,1237.5C 832.225,1243.63 832.558,1249.96 829,1256.5C 821.607,1265.62 812.44,1272.46 801.5,1277C 792.435,1281.04 783.102,1284.2 773.5,1286.5C 787.728,1281.8 801.395,1275.64 814.5,1268C 833.445,1253.96 833.112,1240.3 813.5,1227C 800.027,1219.43 786.027,1213.26 771.5,1208.5 Z"/></g>
<g><path style="opacity:0.012" fill="#545554" d="M 315.5,1209.5 C 300.35,1214.5 286.016,1221.33 272.5,1230C 257.964,1243.04 258.631,1255.37 274.5,1267C 285.034,1273.6 296.034,1279.1 307.5,1283.5C 290.927,1279.63 276.427,1271.97 264,1260.5C 257.687,1253.29 257.021,1245.62 262,1237.5C 270.53,1228.32 280.696,1221.48 292.5,1217C 299.89,1213.59 307.556,1211.09 315.5,1209.5 Z"/></g>
<g><path style="opacity:0.098" fill="#989898" d="M 504.5,1201.5 C 527.168,1201.55 550.002,1201.22 573,1200.5C 577.167,1200.67 581.333,1200.83 585.5,1201C 578.833,1201.33 572.167,1201.67 565.5,1202C 576.011,1202.66 586.511,1202.49 597,1201.5C 599.167,1201.67 601.333,1201.83 603.5,1202C 599.5,1202.33 595.5,1202.67 591.5,1203C 598.346,1203.59 605.179,1203.42 612,1202.5C 613.833,1202.67 615.667,1202.83 617.5,1203C 614.167,1203.33 610.833,1203.67 607.5,1204C 645.361,1206.03 682.361,1212.7 718.5,1224C 728.729,1227.36 737.562,1232.86 745,1240.5C 748.409,1246.05 748.076,1251.38 744,1256.5C 733.537,1265.15 721.704,1271.32 708.5,1275C 673.449,1284.45 637.782,1290.12 601.5,1292C 605.167,1292.33 608.833,1292.67 612.5,1293C 602.508,1292.78 592.508,1292.78 582.5,1293C 587.5,1293.33 592.5,1293.67 597.5,1294C 594.833,1294.17 592.167,1294.33 589.5,1294.5C 560.167,1293.17 530.833,1293.17 501.5,1294.5C 498.833,1294.33 496.167,1294.17 493.5,1294C 498.167,1293.67 502.833,1293.33 507.5,1293C 497.824,1292.74 488.157,1292.74 478.5,1293C 481.833,1292.67 485.167,1292.33 488.5,1292C 461.952,1290.35 435.619,1287.01 409.5,1282C 395.143,1279.21 381.143,1275.21 367.5,1270C 360.676,1267.09 354.342,1263.42 348.5,1259C 340.465,1250.39 341.131,1242.39 350.5,1235C 368.119,1224.46 387.119,1217.46 407.5,1214C 428.339,1209.88 449.339,1206.88 470.5,1205C 467.833,1204.67 465.167,1204.33 462.5,1204C 467.504,1203.61 472.504,1203.78 477.5,1204.5C 484.495,1203.93 491.495,1203.43 498.5,1203C 494.5,1202.67 490.5,1202.33 486.5,1202C 488.833,1201.83 491.167,1201.67 493.5,1201.5C 504.156,1202.48 514.823,1202.65 525.5,1202C 518.508,1201.5 511.508,1201.33 504.5,1201.5 Z"/></g>
<g><path style="opacity:0.131" fill="#9f9f9f" d="M 515.5,1214.5 C 558.816,1212.78 601.816,1215.62 644.5,1223C 657.3,1225.6 669.634,1229.6 681.5,1235C 687.129,1237.46 690.796,1241.63 692.5,1247.5C 691.606,1251.91 689.273,1255.41 685.5,1258C 674.882,1264.1 663.548,1268.43 651.5,1271C 585.687,1283.72 519.687,1284.72 453.5,1274C 436.155,1271.58 419.822,1266.25 404.5,1258C 395.528,1250.79 395.861,1243.79 405.5,1237C 426.051,1227.11 447.718,1221.11 470.5,1219C 485.625,1217.21 500.625,1215.71 515.5,1214.5 Z"/></g>
<g><path style="opacity:0.149" fill="#a5a5a5" d="M 509.5,1222.5 C 531.661,1222.78 553.994,1222.44 576.5,1221.5C 577.833,1221.67 579.167,1221.83 580.5,1222C 578.167,1222.33 575.833,1222.67 573.5,1223C 595.215,1223.95 616.548,1227.29 637.5,1233C 645.171,1234.92 651.671,1238.75 657,1244.5C 658.157,1250.35 655.991,1254.52 650.5,1257C 637.14,1263.17 623.14,1267.17 608.5,1269C 599.859,1270.22 591.192,1271.22 582.5,1272C 584.167,1272.33 585.833,1272.67 587.5,1273C 582.853,1273.09 578.186,1272.92 573.5,1272.5C 562.864,1272.67 562.864,1273.17 573.5,1274C 571.833,1274.17 570.167,1274.33 568.5,1274.5C 552.833,1273.17 537.167,1273.17 521.5,1274.5C 519.833,1274.33 518.167,1274.17 516.5,1274C 519.167,1273.67 521.833,1273.33 524.5,1273C 501.845,1272.33 479.512,1269.33 457.5,1264C 447.741,1262.11 439.574,1257.61 433,1250.5C 432.294,1248.03 432.627,1245.7 434,1243.5C 440.456,1237.78 447.956,1233.95 456.5,1232C 476.175,1226.87 496.175,1223.87 516.5,1223C 514.19,1222.5 511.857,1222.34 509.5,1222.5 Z"/></g>
<g><path style="opacity:0.175" fill="#adadad" d="M 521.5,1231.5 C 534.505,1231.45 547.671,1231.12 561,1230.5C 563.5,1230.67 566,1230.83 568.5,1231C 566.833,1231.33 565.167,1231.67 563.5,1232C 567.514,1232.5 571.514,1232.33 575.5,1231.5C 580.774,1231.69 580.774,1232.19 575.5,1233C 583.235,1232.24 590.902,1232.91 598.5,1235C 597.167,1235.33 595.833,1235.67 594.5,1236C 600.773,1237.2 606.773,1239.2 612.5,1242C 617.31,1245.35 617.644,1249.02 613.5,1253C 609.729,1255.22 605.729,1256.89 601.5,1258C 602.5,1258.33 603.5,1258.67 604.5,1259C 598.932,1261.12 593.265,1261.79 587.5,1261C 590.937,1261.65 591.104,1262.15 588,1262.5C 585.522,1261.67 583.022,1261.5 580.5,1262C 585.281,1262.7 585.447,1263.2 581,1263.5C 577.845,1262.72 574.678,1262.56 571.5,1263C 576.727,1263.89 576.56,1264.39 571,1264.5C 565.182,1263.57 559.349,1263.4 553.5,1264C 556.167,1264.33 558.833,1264.67 561.5,1265C 550.5,1265.67 539.5,1265.67 528.5,1265C 531.167,1264.67 533.833,1264.33 536.5,1264C 534.5,1263.83 532.5,1263.67 530.5,1263.5C 525.173,1264.27 519.84,1264.43 514.5,1264C 516.167,1263.67 517.833,1263.33 519.5,1263C 516.145,1262.45 512.812,1262.62 509.5,1263.5C 505.576,1263.3 505.576,1262.8 509.5,1262C 508.667,1261.83 507.833,1261.67 507,1261.5C 504.522,1262.33 502.022,1262.5 499.5,1262C 500.5,1261.67 501.5,1261.33 502.5,1261C 500.32,1260.58 498.154,1260.75 496,1261.5C 493.815,1261.08 491.649,1260.58 489.5,1260C 490.5,1259.67 491.5,1259.33 492.5,1259C 488.483,1257.66 484.483,1256.66 480.5,1256C 482.595,1256.56 482.762,1257.06 481,1257.5C 475.675,1256.34 471.342,1253.68 468,1249.5C 468.141,1244.67 470.641,1241.5 475.5,1240C 486.853,1235.18 496.52,1233.34 504.5,1234.5C 505.167,1234.33 505.833,1234.17 506.5,1234C 505.5,1233.67 504.5,1233.33 503.5,1233C 506.359,1232.45 509.192,1232.61 512,1233.5C 512.833,1233.33 513.667,1233.17 514.5,1233C 513.167,1232.67 511.833,1232.33 510.5,1232C 514.514,1231.5 518.514,1231.67 522.5,1232.5C 523.833,1232.33 525.167,1232.17 526.5,1232C 524.866,1231.51 523.199,1231.34 521.5,1231.5 Z"/></g>
<g><path style="opacity:0.004" fill="#fefffe" d="M 257.5,1236.5 C 254.89,1241.83 253.89,1247.49 254.5,1253.5C 253.367,1251.94 252.701,1250.11 252.5,1248C 252.749,1243.44 254.416,1239.61 257.5,1236.5 Z"/></g>
<g><path style="opacity:0.004" fill="#fefffe" d="M 835.5,1241.5 C 836.837,1243.35 837.503,1245.52 837.5,1248C 837.408,1251.8 836.074,1254.97 833.5,1257.5C 834.794,1254.45 835.794,1251.28 836.5,1248C 835.923,1245.86 835.59,1243.7 835.5,1241.5 Z"/></g>
<g><path style="opacity:0.004" fill="#000000" d="M 771.5,1290.5 C 766.503,1292.75 761.17,1294.08 755.5,1294.5C 760.573,1292.57 765.906,1291.23 771.5,1290.5 Z"/></g>
<g><path style="opacity:0.004" fill="#000000" d="M 322.5,1291.5 C 325.428,1291.57 328.095,1292.23 330.5,1293.5C 327.505,1293.71 324.838,1293.04 322.5,1291.5 Z"/></g>
<g><path style="opacity:0.004" fill="#000000" d="M 334.5,1294.5 C 337.781,1294.42 340.781,1295.09 343.5,1296.5C 340.219,1296.58 337.219,1295.91 334.5,1294.5 Z"/></g>
<g><path style="opacity:0.004" fill="#000000" d="M 746.5,1296.5 C 741.794,1298.37 736.794,1299.37 731.5,1299.5C 736.256,1297.88 741.256,1296.88 746.5,1296.5 Z"/></g>
<g><path style="opacity:0.004" fill="#000000" d="M 358.5,1299.5 C 362.425,1299.43 366.091,1300.1 369.5,1301.5C 365.575,1301.57 361.909,1300.9 358.5,1299.5 Z"/></g>
</svg>
