<?xml version="1.0" encoding="UTF-8"?>
<!DOCTYPE svg PUBLIC "-//W3C//DTD SVG 1.1//EN" "http://www.w3.org/Graphics/SVG/1.1/DTD/svg11.dtd">
<svg xmlns="http://www.w3.org/2000/svg" version="1.1" width="1465px" height="1502px" style="shape-rendering:geometricPrecision; text-rendering:geometricPrecision; image-rendering:optimizeQuality; fill-rule:evenodd; clip-rule:evenodd" xmlns:xlink="http://www.w3.org/1999/xlink">
<g><path style="opacity:0.997" fill="#3dce8d" d="M 652.5,-0.5 C 656.5,-0.5 660.5,-0.5 664.5,-0.5C 697.6,4.09726 717.767,22.7639 725,55.5C 726.817,215.16 727.983,374.826 728.5,534.5C 728.5,550.5 728.5,566.5 728.5,582.5C 728.5,600.5 728.5,618.5 728.5,636.5C 728.821,670.833 729.154,705.167 729.5,739.5C 729.5,746.167 729.5,752.833 729.5,759.5C 730.212,783.827 730.546,808.16 730.5,832.5C 730.5,834.167 730.5,835.833 730.5,837.5C 730.5,865.167 730.5,892.833 730.5,920.5C 730.5,936.167 730.5,951.833 730.5,967.5C 528.5,967.667 326.5,967.5 124.5,967C 64.7485,961.245 24.9152,930.078 5,873.5C 2.72213,865.123 0.888795,856.79 -0.5,848.5C -0.5,839.167 -0.5,829.833 -0.5,820.5C 2.84051,797.988 11.0072,777.321 24,758.5C 219.62,511.879 415.62,265.545 612,19.5C 623.513,8.65974 637.013,1.99308 652.5,-0.5 Z"/></g>
<g><path style="opacity:1" fill="#208356" d="M 728.5,534.5 C 757.5,534.5 786.5,534.5 815.5,534.5C 815.719,535.675 815.386,536.675 814.5,537.5C 785.8,552.558 757.133,567.558 728.5,582.5C 728.5,566.5 728.5,550.5 728.5,534.5 Z"/></g>
<g><path style="opacity:1" fill="#218759" d="M 815.5,534.5 C 829.167,534.5 842.833,534.5 856.5,534.5C 855.266,537.364 853.932,540.197 852.5,543C 847.758,545.12 843.258,547.62 839,550.5C 836.609,556.949 833.942,563.282 831,569.5C 826.503,572.749 821.837,575.749 817,578.5C 813.861,586.249 810.528,593.916 807,601.5C 802.252,603.789 797.752,606.455 793.5,609.5C 790.236,616.792 787.069,624.126 784,631.5C 779.913,634.796 775.413,637.463 770.5,639.5C 766.735,647.632 763.068,655.799 759.5,664C 749.833,669.167 740.167,674.333 730.5,679.5C 729.833,665.006 729.167,650.672 728.5,636.5C 728.5,618.5 728.5,600.5 728.5,582.5C 757.133,567.558 785.8,552.558 814.5,537.5C 815.386,536.675 815.719,535.675 815.5,534.5 Z"/></g>
<g><path style="opacity:1" fill="#228b5c" d="M 856.5,534.5 C 866.5,534.5 876.5,534.5 886.5,534.5C 885.644,537.574 884.31,540.408 882.5,543C 876.747,546.294 870.913,549.46 865,552.5C 860.104,564.625 854.937,576.625 849.5,588.5C 843.178,591.326 837.178,594.659 831.5,598.5C 826.695,610.249 821.695,621.915 816.5,633.5C 810.086,636.789 803.919,640.456 798,644.5C 793.069,655.792 788.236,667.126 783.5,678.5C 777.911,682.213 772.078,685.546 766,688.5C 760.931,700.541 755.764,712.541 750.5,724.5C 744.822,728.341 738.822,731.674 732.5,734.5C 731.675,736.36 730.675,738.026 729.5,739.5C 729.154,705.167 728.821,670.833 728.5,636.5C 729.167,650.672 729.833,665.006 730.5,679.5C 740.167,674.333 749.833,669.167 759.5,664C 763.068,655.799 766.735,647.632 770.5,639.5C 775.413,637.463 779.913,634.796 784,631.5C 787.069,624.126 790.236,616.792 793.5,609.5C 797.752,606.455 802.252,603.789 807,601.5C 810.528,593.916 813.861,586.249 817,578.5C 821.837,575.749 826.503,572.749 831,569.5C 833.942,563.282 836.609,556.949 839,550.5C 843.258,547.62 847.758,545.12 852.5,543C 853.932,540.197 855.266,537.364 856.5,534.5 Z"/></g>
<g><path style="opacity:1" fill="#238e5e" d="M 886.5,534.5 C 894.167,534.5 901.833,534.5 909.5,534.5C 909.249,536.17 908.582,537.67 907.5,539C 903,541.5 898.5,544 894,546.5C 890.833,554.167 887.667,561.833 884.5,569.5C 879.747,572.294 874.914,574.96 870,577.5C 866.833,585.167 863.667,592.833 860.5,600.5C 855.751,603.625 850.917,606.625 846,609.5C 843.528,615.915 840.862,622.248 838,628.5C 833.891,631.764 829.391,634.431 824.5,636.5C 820.73,644.374 817.23,652.374 814,660.5C 809.667,662.833 805.333,665.167 801,667.5C 797.059,675.716 793.392,684.049 790,692.5C 785.667,694.833 781.333,697.167 777,699.5C 773.472,707.084 770.139,714.751 767,722.5C 761.881,725.304 757.047,728.471 752.5,732C 749.333,739.5 746.167,747 743,754.5C 739.245,756.628 735.412,758.628 731.5,760.5C 730.817,760.137 730.15,759.804 729.5,759.5C 729.5,752.833 729.5,746.167 729.5,739.5C 730.675,738.026 731.675,736.36 732.5,734.5C 738.822,731.674 744.822,728.341 750.5,724.5C 755.764,712.541 760.931,700.541 766,688.5C 772.078,685.546 777.911,682.213 783.5,678.5C 788.236,667.126 793.069,655.792 798,644.5C 803.919,640.456 810.086,636.789 816.5,633.5C 821.695,621.915 826.695,610.249 831.5,598.5C 837.178,594.659 843.178,591.326 849.5,588.5C 854.937,576.625 860.104,564.625 865,552.5C 870.913,549.46 876.747,546.294 882.5,543C 884.31,540.408 885.644,537.574 886.5,534.5 Z"/></g>
<g><path style="opacity:1" fill="#249160" d="M 909.5,534.5 C 912.5,534.5 915.5,534.5 918.5,534.5C 909.9,556.625 900.9,578.625 891.5,600.5C 880.747,606.627 869.914,612.627 859,618.5C 846.333,648.5 833.667,678.5 821,708.5C 810.346,713.659 800.013,719.325 790,725.5C 781.942,745.282 773.609,764.949 765,784.5C 763.488,785.257 762.154,786.257 761,787.5C 757.5,795.833 754,804.167 750.5,812.5C 746.494,815.505 742.16,818.005 737.5,820C 735.266,824.31 732.932,828.476 730.5,832.5C 730.546,808.16 730.212,783.827 729.5,759.5C 730.15,759.804 730.817,760.137 731.5,760.5C 735.412,758.628 739.245,756.628 743,754.5C 746.167,747 749.333,739.5 752.5,732C 757.047,728.471 761.881,725.304 767,722.5C 770.139,714.751 773.472,707.084 777,699.5C 781.333,697.167 785.667,694.833 790,692.5C 793.392,684.049 797.059,675.716 801,667.5C 805.333,665.167 809.667,662.833 814,660.5C 817.23,652.374 820.73,644.374 824.5,636.5C 829.391,634.431 833.891,631.764 838,628.5C 840.862,622.248 843.528,615.915 846,609.5C 850.917,606.625 855.751,603.625 860.5,600.5C 863.667,592.833 866.833,585.167 870,577.5C 874.914,574.96 879.747,572.294 884.5,569.5C 887.667,561.833 890.833,554.167 894,546.5C 898.5,544 903,541.5 907.5,539C 908.582,537.67 909.249,536.17 909.5,534.5 Z"/></g>
<g><path style="opacity:1" fill="#269462" d="M 918.5,534.5 C 933.167,534.5 947.833,534.5 962.5,534.5C 960.324,536.515 957.824,538.182 955,539.5C 953.971,544.239 951.137,547.239 946.5,548.5C 943.711,554.032 941.211,559.699 939,565.5C 935.172,568.415 931.172,571.081 927,573.5C 925,578.167 923,582.833 921,587.5C 918.61,589.267 916.943,591.6 916,594.5C 911.37,596.968 906.87,599.634 902.5,602.5C 899.167,610.167 895.833,617.833 892.5,625.5C 889.967,627.394 888.3,629.894 887.5,633C 883.833,635.167 880.167,637.333 876.5,639.5C 874,645.167 871.5,650.833 869,656.5C 866.512,658.743 863.846,660.743 861,662.5C 859,667.167 857,671.833 855,676.5C 853.247,677.627 851.413,678.627 849.5,679.5C 848.258,681.733 846.924,683.899 845.5,686C 841.833,688.167 838.167,690.333 834.5,692.5C 830.236,702.126 826.069,711.792 822,721.5C 816.829,724.753 811.495,727.753 806,730.5C 800.703,742.619 795.203,754.619 789.5,766.5C 786.327,768.587 782.994,770.421 779.5,772C 777.383,773.731 775.883,775.898 775,778.5C 772.667,780.167 770.333,781.833 768,783.5C 764.333,792.5 760.667,801.5 757,810.5C 753.961,814.704 751.128,819.038 748.5,823.5C 743.708,825.799 739.041,828.299 734.5,831C 733.267,833.314 731.933,835.481 730.5,837.5C 730.5,835.833 730.5,834.167 730.5,832.5C 732.932,828.476 735.266,824.31 737.5,820C 742.16,818.005 746.494,815.505 750.5,812.5C 754,804.167 757.5,795.833 761,787.5C 762.154,786.257 763.488,785.257 765,784.5C 773.609,764.949 781.942,745.282 790,725.5C 800.013,719.325 810.346,713.659 821,708.5C 833.667,678.5 846.333,648.5 859,618.5C 869.914,612.627 880.747,606.627 891.5,600.5C 900.9,578.625 909.9,556.625 918.5,534.5 Z"/></g>
<g><path style="opacity:1" fill="#279966" d="M 962.5,534.5 C 980.167,534.5 997.833,534.5 1015.5,534.5C 1012.31,541.389 1009.31,548.389 1006.5,555.5C 1001.42,558.124 996.582,561.124 992,564.5C 989.528,570.915 986.862,577.248 984,583.5C 979.163,586.251 974.497,589.251 970,592.5C 967.069,599.126 964.236,605.792 961.5,612.5C 956.415,615.124 951.582,618.124 947,621.5C 944,628.833 941,636.167 938,643.5C 933.496,646.42 928.829,649.086 924,651.5C 921.442,658.282 918.609,664.949 915.5,671.5C 911.248,674.545 906.748,677.211 902,679.5C 898.472,687.084 895.139,694.751 892,702.5C 887.582,705.293 883.082,707.959 878.5,710.5C 874.73,718.374 871.23,726.374 868,734.5C 863.171,736.914 858.504,739.58 854,742.5C 851.437,749.291 848.604,755.958 845.5,762.5C 840.918,765.041 836.418,767.707 832,770.5C 828.861,778.249 825.528,785.916 822,793.5C 817.252,795.789 812.752,798.455 808.5,801.5C 805.167,809.167 801.833,816.833 798.5,824.5C 793.918,827.041 789.418,829.707 785,832.5C 767.333,874.5 749.667,916.5 732,958.5C 731.831,945.66 731.331,932.993 730.5,920.5C 730.5,892.833 730.5,865.167 730.5,837.5C 731.933,835.481 733.267,833.314 734.5,831C 739.041,828.299 743.708,825.799 748.5,823.5C 751.128,819.038 753.961,814.704 757,810.5C 760.667,801.5 764.333,792.5 768,783.5C 770.333,781.833 772.667,780.167 775,778.5C 775.883,775.898 777.383,773.731 779.5,772C 782.994,770.421 786.327,768.587 789.5,766.5C 795.203,754.619 800.703,742.619 806,730.5C 811.495,727.753 816.829,724.753 822,721.5C 826.069,711.792 830.236,702.126 834.5,692.5C 838.167,690.333 841.833,688.167 845.5,686C 846.924,683.899 848.258,681.733 849.5,679.5C 851.413,678.627 853.247,677.627 855,676.5C 857,671.833 859,667.167 861,662.5C 863.846,660.743 866.512,658.743 869,656.5C 871.5,650.833 874,645.167 876.5,639.5C 880.167,637.333 883.833,635.167 887.5,633C 888.3,629.894 889.967,627.394 892.5,625.5C 895.833,617.833 899.167,610.167 902.5,602.5C 906.87,599.634 911.37,596.968 916,594.5C 916.943,591.6 918.61,589.267 921,587.5C 923,582.833 925,578.167 927,573.5C 931.172,571.081 935.172,568.415 939,565.5C 941.211,559.699 943.711,554.032 946.5,548.5C 951.137,547.239 953.971,544.239 955,539.5C 957.824,538.182 960.324,536.515 962.5,534.5 Z"/></g>
<g><path style="opacity:0.997" fill="#299e69" d="M 1015.5,534.5 C 1024.17,534.5 1032.83,534.5 1041.5,534.5C 1035.48,538.266 1029.31,541.933 1023,545.5C 1018.6,556.207 1014.1,566.874 1009.5,577.5C 1003.42,581.293 997.249,584.959 991,588.5C 986.333,599.167 981.667,609.833 977,620.5C 971.248,623.96 965.415,627.293 959.5,630.5C 954.903,641.126 950.403,651.793 946,662.5C 939.667,666.167 933.333,669.833 927,673.5C 922.943,683.948 918.609,694.282 914,704.5C 907.667,708.5 901.333,712.5 895,716.5C 890.069,727.792 885.236,739.126 880.5,750.5C 874.822,754.341 868.822,757.674 862.5,760.5C 857.063,772.375 851.896,784.375 847,796.5C 841.038,799.633 835.205,802.967 829.5,806.5C 796.781,883.923 764.115,961.256 731.5,1038.5C 731.185,1014.83 730.852,991.166 730.5,967.5C 730.5,951.833 730.5,936.167 730.5,920.5C 731.331,932.993 731.831,945.66 732,958.5C 749.667,916.5 767.333,874.5 785,832.5C 789.418,829.707 793.918,827.041 798.5,824.5C 801.833,816.833 805.167,809.167 808.5,801.5C 812.752,798.455 817.252,795.789 822,793.5C 825.528,785.916 828.861,778.249 832,770.5C 836.418,767.707 840.918,765.041 845.5,762.5C 848.604,755.958 851.437,749.291 854,742.5C 858.504,739.58 863.171,736.914 868,734.5C 871.23,726.374 874.73,718.374 878.5,710.5C 883.082,707.959 887.582,705.293 892,702.5C 895.139,694.751 898.472,687.084 902,679.5C 906.748,677.211 911.248,674.545 915.5,671.5C 918.609,664.949 921.442,658.282 924,651.5C 928.829,649.086 933.496,646.42 938,643.5C 941,636.167 944,628.833 947,621.5C 951.582,618.124 956.415,615.124 961.5,612.5C 964.236,605.792 967.069,599.126 970,592.5C 974.497,589.251 979.163,586.251 984,583.5C 986.862,577.248 989.528,570.915 992,564.5C 996.582,561.124 1001.42,558.124 1006.5,555.5C 1009.31,548.389 1012.31,541.389 1015.5,534.5 Z"/></g>
<g><path style="opacity:0.998" fill="#2aa06b" d="M 1041.5,534.5 C 1050.5,534.5 1059.5,534.5 1068.5,534.5C 1066.85,538.479 1065.18,542.479 1063.5,546.5C 1059.25,549.545 1054.75,552.211 1050,554.5C 1046.83,561.509 1043.66,568.509 1040.5,575.5C 1035.83,578.167 1031.17,580.833 1026.5,583.5C 1023.39,590.051 1020.56,596.718 1018,603.5C 1015.24,604.795 1012.74,606.461 1010.5,608.5C 1007.39,615.051 1004.56,621.718 1002,628.5C 995.261,634.216 987.928,639.216 980,643.5C 977.528,649.915 974.862,656.248 972,662.5C 968.164,665.086 964.164,667.419 960,669.5C 956.952,677.927 953.119,685.927 948.5,693.5C 944.13,696.366 939.63,699.032 935,701.5C 931.829,708.509 928.662,715.509 925.5,722.5C 920.609,724.569 916.109,727.236 912,730.5C 909.39,736.053 907.057,741.719 905,747.5C 903.871,750.794 902.038,753.46 899.5,755.5C 895.824,756.754 892.324,758.421 889,760.5C 885.861,768.249 882.528,775.916 879,783.5C 875.095,786.398 870.929,788.898 866.5,791C 864.959,792.579 863.792,794.413 863,796.5C 819.767,900.056 776.267,1003.39 732.5,1106.5C 732.307,1083.83 731.974,1061.16 731.5,1038.5C 764.115,961.256 796.781,883.923 829.5,806.5C 835.205,802.967 841.038,799.633 847,796.5C 851.896,784.375 857.063,772.375 862.5,760.5C 868.822,757.674 874.822,754.341 880.5,750.5C 885.236,739.126 890.069,727.792 895,716.5C 901.333,712.5 907.667,708.5 914,704.5C 918.609,694.282 922.943,683.948 927,673.5C 933.333,669.833 939.667,666.167 946,662.5C 950.403,651.793 954.903,641.126 959.5,630.5C 965.415,627.293 971.248,623.96 977,620.5C 981.667,609.833 986.333,599.167 991,588.5C 997.249,584.959 1003.42,581.293 1009.5,577.5C 1014.1,566.874 1018.6,556.207 1023,545.5C 1029.31,541.933 1035.48,538.266 1041.5,534.5 Z"/></g>
<g><path style="opacity:0.998" fill="#2ca56f" d="M 1068.5,534.5 C 1080.17,534.5 1091.83,534.5 1103.5,534.5C 1101.41,536.39 1099.08,538.057 1096.5,539.5C 1092.33,549.167 1088.17,558.833 1084,568.5C 1078.16,572.087 1072.16,575.42 1066,578.5C 1061.16,589.509 1056.33,600.509 1051.5,611.5C 1045.5,614.833 1039.5,618.167 1033.5,621.5C 1028.9,632.126 1024.4,642.793 1020,653.5C 1014.16,657.087 1008.16,660.42 1002,663.5C 997.776,674.282 993.276,684.949 988.5,695.5C 982.416,699.293 976.249,702.959 970,706.5C 965.391,716.718 961.057,727.052 957,737.5C 950.994,741.672 944.661,745.338 938,748.5C 870.39,910.038 802.557,1071.37 734.5,1232.5C 733.905,1205.17 733.572,1177.84 733.5,1150.5C 789.072,1019.01 844.405,887.345 899.5,755.5C 902.038,753.46 903.871,750.794 905,747.5C 907.057,741.719 909.39,736.053 912,730.5C 916.109,727.236 920.609,724.569 925.5,722.5C 928.662,715.509 931.829,708.509 935,701.5C 939.63,699.032 944.13,696.366 948.5,693.5C 953.119,685.927 956.952,677.927 960,669.5C 964.164,667.419 968.164,665.086 972,662.5C 974.862,656.248 977.528,649.915 980,643.5C 987.928,639.216 995.261,634.216 1002,628.5C 1004.56,621.718 1007.39,615.051 1010.5,608.5C 1012.74,606.461 1015.24,604.795 1018,603.5C 1020.56,596.718 1023.39,590.051 1026.5,583.5C 1031.17,580.833 1035.83,578.167 1040.5,575.5C 1043.66,568.509 1046.83,561.509 1050,554.5C 1054.75,552.211 1059.25,549.545 1063.5,546.5C 1065.18,542.479 1066.85,538.479 1068.5,534.5 Z"/></g>
<g><path style="opacity:0.998" fill="#2da771" d="M 1103.5,534.5 C 1109.5,534.5 1115.5,534.5 1121.5,534.5C 1120.88,536.229 1119.88,537.729 1118.5,539C 1114.34,540.912 1110.34,543.079 1106.5,545.5C 1103.39,552.051 1100.56,558.718 1098,565.5C 1093.5,568.42 1088.83,571.086 1084,573.5C 1081.07,580.126 1078.24,586.792 1075.5,593.5C 1070.75,596.625 1065.92,599.625 1061,602.5C 1058.44,609.291 1055.6,615.958 1052.5,622.5C 1047.92,625.041 1043.42,627.707 1039,630.5C 1035.86,638.249 1032.53,645.916 1029,653.5C 1024.25,655.789 1019.75,658.455 1015.5,661.5C 1012.39,668.051 1009.56,674.718 1007,681.5C 1002.17,683.914 997.504,686.58 993,689.5C 990.528,695.915 987.862,702.248 985,708.5C 980.332,712.003 975.332,715.003 970,717.5C 966.833,725.167 963.667,732.833 960.5,740.5C 955.751,743.625 950.917,746.625 946,749.5C 875.724,917.704 805.224,1085.7 734.5,1253.5C 734.5,1246.5 734.5,1239.5 734.5,1232.5C 802.557,1071.37 870.39,910.038 938,748.5C 944.661,745.338 950.994,741.672 957,737.5C 961.057,727.052 965.391,716.718 970,706.5C 976.249,702.959 982.416,699.293 988.5,695.5C 993.276,684.949 997.776,674.282 1002,663.5C 1008.16,660.42 1014.16,657.087 1020,653.5C 1024.4,642.793 1028.9,632.126 1033.5,621.5C 1039.5,618.167 1045.5,614.833 1051.5,611.5C 1056.33,600.509 1061.16,589.509 1066,578.5C 1072.16,575.42 1078.16,572.087 1084,568.5C 1088.17,558.833 1092.33,549.167 1096.5,539.5C 1099.08,538.057 1101.41,536.39 1103.5,534.5 Z"/></g>
<g><path style="opacity:0.998" fill="#2eab73" d="M 1121.5,534.5 C 1136.17,534.5 1150.83,534.5 1165.5,534.5C 1164.83,535.267 1163.99,535.934 1163,536.5C 1159.83,543.509 1156.66,550.509 1153.5,557.5C 1149.01,559.579 1144.67,561.912 1140.5,564.5C 1138.03,570.593 1135.36,576.593 1132.5,582.5C 1127.59,584.537 1123.09,587.204 1119,590.5C 1116.53,596.915 1113.86,603.248 1111,609.5C 1109.85,610.636 1108.69,611.636 1107.5,612.5C 1103.82,613.754 1100.32,615.421 1097,617.5C 1094.28,624.616 1091.28,631.616 1088,638.5C 1083.67,640.833 1079.33,643.167 1075,645.5C 1071.47,653.084 1068.14,660.751 1065,668.5C 1060.5,671.749 1055.84,674.749 1051,677.5C 1048.14,683.752 1045.47,690.085 1043,696.5C 1037.62,699.35 1032.62,702.684 1028,706.5C 931.057,938.038 833.89,1169.37 736.5,1400.5C 736.331,1351.49 735.664,1302.49 734.5,1253.5C 805.224,1085.7 875.724,917.704 946,749.5C 950.917,746.625 955.751,743.625 960.5,740.5C 963.667,732.833 966.833,725.167 970,717.5C 975.332,715.003 980.332,712.003 985,708.5C 987.862,702.248 990.528,695.915 993,689.5C 997.504,686.58 1002.17,683.914 1007,681.5C 1009.56,674.718 1012.39,668.051 1015.5,661.5C 1019.75,658.455 1024.25,655.789 1029,653.5C 1032.53,645.916 1035.86,638.249 1039,630.5C 1043.42,627.707 1047.92,625.041 1052.5,622.5C 1055.6,615.958 1058.44,609.291 1061,602.5C 1065.92,599.625 1070.75,596.625 1075.5,593.5C 1078.24,586.792 1081.07,580.126 1084,573.5C 1088.83,571.086 1093.5,568.42 1098,565.5C 1100.56,558.718 1103.39,552.051 1106.5,545.5C 1110.34,543.079 1114.34,540.912 1118.5,539C 1119.88,537.729 1120.88,536.229 1121.5,534.5 Z"/></g>
<g><path style="opacity:0.999" fill="#32b379" d="M 1187.5,534.5 C 1200.83,534.5 1214.17,534.5 1227.5,534.5C 1223.55,538.908 1218.72,542.241 1213,544.5C 1210.42,550.652 1207.59,556.652 1204.5,562.5C 1200.33,565.088 1195.99,567.421 1191.5,569.5C 1188.34,576.491 1185.17,583.491 1182,590.5C 1177.58,593.293 1173.08,595.959 1168.5,598.5C 1165.39,605.051 1162.56,611.718 1160,618.5C 1155.5,621.42 1150.83,624.086 1146,626.5C 1143.44,633.282 1140.61,639.949 1137.5,646.5C 1133.17,649 1128.83,651.5 1124.5,654C 1006.48,933.568 889.146,1213.4 772.5,1493.5C 761.22,1487.89 752.553,1479.55 746.5,1468.5C 860.462,1198.47 973.962,928.137 1087,657.5C 1088.04,655.254 1089.21,653.087 1090.5,651C 1101.24,645.547 1111.74,639.714 1122,633.5C 1131.74,610.126 1141.57,586.793 1151.5,563.5C 1155.32,561.932 1158.32,559.432 1160.5,556C 1168.17,551.833 1175.83,547.667 1183.5,543.5C 1185.22,540.677 1186.55,537.677 1187.5,534.5 Z"/></g>
<g><path style="opacity:0.999" fill="#33b67b" d="M 1227.5,534.5 C 1231.5,534.5 1235.5,534.5 1239.5,534.5C 1238.85,537.945 1237.52,541.111 1235.5,544C 1229.43,546.785 1223.59,549.952 1218,553.5C 1213.54,563.043 1209.37,572.71 1205.5,582.5C 1199.33,586.419 1193,590.086 1186.5,593.5C 1182.57,602.793 1178.74,612.126 1175,621.5C 1169.91,625.298 1164.41,628.465 1158.5,631C 1157,631.833 1155.83,633 1155,634.5C 1033.87,923.084 913.039,1211.75 792.5,1500.5C 785.403,1499.36 778.737,1497.02 772.5,1493.5C 889.146,1213.4 1006.48,933.568 1124.5,654C 1128.83,651.5 1133.17,649 1137.5,646.5C 1140.61,639.949 1143.44,633.282 1146,626.5C 1150.83,624.086 1155.5,621.42 1160,618.5C 1162.56,611.718 1165.39,605.051 1168.5,598.5C 1173.08,595.959 1177.58,593.293 1182,590.5C 1185.17,583.491 1188.34,576.491 1191.5,569.5C 1195.99,567.421 1200.33,565.088 1204.5,562.5C 1207.59,556.652 1210.42,550.652 1213,544.5C 1218.72,542.241 1223.55,538.908 1227.5,534.5 Z"/></g>
<g><path style="opacity:0.999" fill="#34b97d" d="M 1239.5,534.5 C 1249.5,534.5 1259.5,534.5 1269.5,534.5C 1267.51,539.476 1265.51,544.476 1263.5,549.5C 1258.42,552.124 1253.58,555.124 1249,558.5C 1246.79,564.301 1244.29,569.968 1241.5,575.5C 1236.61,577.569 1232.11,580.236 1228,583.5C 1225.53,589.915 1222.86,596.248 1220,602.5C 1214.88,605.304 1210.05,608.471 1205.5,612C 1082.2,905.402 959.201,1198.9 836.5,1492.5C 828.446,1497.34 819.779,1500.34 810.5,1501.5C 805.833,1501.5 801.167,1501.5 796.5,1501.5C 795.432,1500.57 794.099,1500.23 792.5,1500.5C 913.039,1211.75 1033.87,923.084 1155,634.5C 1155.83,633 1157,631.833 1158.5,631C 1164.41,628.465 1169.91,625.298 1175,621.5C 1178.74,612.126 1182.57,602.793 1186.5,593.5C 1193,590.086 1199.33,586.419 1205.5,582.5C 1209.37,572.71 1213.54,563.043 1218,553.5C 1223.59,549.952 1229.43,546.785 1235.5,544C 1237.52,541.111 1238.85,537.945 1239.5,534.5 Z"/></g>
<g><path style="opacity:0.998" fill="#36be81" d="M 1269.5,534.5 C 1282.83,534.5 1296.17,534.5 1309.5,534.5C 1306.73,542.717 1303.39,550.717 1299.5,558.5C 1293.59,561.707 1287.75,565.04 1282,568.5C 1172.4,829.817 1062.9,1091.15 953.5,1352.5C 921.238,1393.94 888.738,1435.27 856,1476.5C 850.479,1483.2 843.979,1488.54 836.5,1492.5C 959.201,1198.9 1082.2,905.402 1205.5,612C 1210.05,608.471 1214.88,605.304 1220,602.5C 1222.86,596.248 1225.53,589.915 1228,583.5C 1232.11,580.236 1236.61,577.569 1241.5,575.5C 1244.29,569.968 1246.79,564.301 1249,558.5C 1253.58,555.124 1258.42,552.124 1263.5,549.5C 1265.51,544.476 1267.51,539.476 1269.5,534.5 Z"/></g>
<g><path style="opacity:0.997" fill="#39c486" d="M 1322.5,534.5 C 1336.31,533.931 1349.98,534.931 1363.5,537.5C 1274.89,748.391 1186.55,959.391 1098.5,1170.5C 1060.18,1219.48 1021.52,1268.15 982.5,1316.5C 1087.56,1064.72 1192.89,813.052 1298.5,561.5C 1299.64,561.092 1300.64,560.425 1301.5,559.5C 1303.64,553.753 1305.97,548.086 1308.5,542.5C 1313.23,539.806 1317.9,537.14 1322.5,534.5 Z"/></g>
<g><path style="opacity:0.996" fill="#3bc888" d="M 1363.5,537.5 C 1368.48,538.569 1373.15,540.235 1377.5,542.5C 1295.56,737.381 1213.89,932.381 1132.5,1127.5C 1121.92,1142.41 1110.59,1156.75 1098.5,1170.5C 1186.55,959.391 1274.89,748.391 1363.5,537.5 Z"/></g>
<g><path style="opacity:0.995" fill="#3ccb8b" d="M 1377.5,542.5 C 1395.43,548.127 1410.76,557.794 1423.5,571.5C 1367.31,705.414 1311.31,839.414 1255.5,973.5C 1214.97,1025.24 1173.97,1076.57 1132.5,1127.5C 1213.89,932.381 1295.56,737.381 1377.5,542.5 Z"/></g>
<g><path style="opacity:0.998" fill="#38c084" d="M 1309.5,534.5 C 1313.83,534.5 1318.17,534.5 1322.5,534.5C 1317.9,537.14 1313.23,539.806 1308.5,542.5C 1305.97,548.086 1303.64,553.753 1301.5,559.5C 1300.64,560.425 1299.64,561.092 1298.5,561.5C 1294.28,563.194 1290.44,565.528 1287,568.5C 1178.88,825.74 1071.04,1083.07 963.5,1340.5C 960.514,1344.82 957.18,1348.82 953.5,1352.5C 1062.9,1091.15 1172.4,829.817 1282,568.5C 1287.75,565.04 1293.59,561.707 1299.5,558.5C 1303.39,550.717 1306.73,542.717 1309.5,534.5 Z"/></g>
<g><path style="opacity:0.997" fill="#38c284" d="M 1298.5,561.5 C 1192.89,813.052 1087.56,1064.72 982.5,1316.5C 976.156,1324.54 969.822,1332.54 963.5,1340.5C 1071.04,1083.07 1178.88,825.74 1287,568.5C 1290.44,565.528 1294.28,563.194 1298.5,561.5 Z"/></g>
<g><path style="opacity:0.999" fill="#30b077" d="M 1165.5,534.5 C 1172.83,534.5 1180.17,534.5 1187.5,534.5C 1186.55,537.677 1185.22,540.677 1183.5,543.5C 1175.83,547.667 1168.17,551.833 1160.5,556C 1158.32,559.432 1155.32,561.932 1151.5,563.5C 1141.57,586.793 1131.74,610.126 1122,633.5C 1111.74,639.714 1101.24,645.547 1090.5,651C 1089.21,653.087 1088.04,655.254 1087,657.5C 973.962,928.137 860.462,1198.47 746.5,1468.5C 739.335,1455.89 736.335,1442.22 737.5,1427.5C 840.462,1183.8 942.962,939.804 1045,695.5C 1045.91,693.336 1047.08,691.336 1048.5,689.5C 1054.24,686.881 1059.74,683.881 1065,680.5C 1069.17,670.833 1073.33,661.167 1077.5,651.5C 1083.91,648.211 1090.08,644.544 1096,640.5C 1100.12,631.259 1103.96,621.926 1107.5,612.5C 1108.69,611.636 1109.85,610.636 1111,609.5C 1113.86,603.248 1116.53,596.915 1119,590.5C 1123.09,587.204 1127.59,584.537 1132.5,582.5C 1135.36,576.593 1138.03,570.593 1140.5,564.5C 1144.67,561.912 1149.01,559.579 1153.5,557.5C 1156.66,550.509 1159.83,543.509 1163,536.5C 1163.99,535.934 1164.83,535.267 1165.5,534.5 Z"/></g>
<g><path style="opacity:0.987" fill="#3ecf8d" d="M 1423.5,571.5 C 1454.37,601.928 1467.54,638.928 1463,682.5C 1459.18,708.798 1448.85,732.132 1432,752.5C 1372.92,826.066 1314.09,899.732 1255.5,973.5C 1311.31,839.414 1367.31,705.414 1423.5,571.5 Z"/></g>
<g><path style="opacity:0.999" fill="#30af75" d="M 1107.5,612.5 C 1103.96,621.926 1100.12,631.259 1096,640.5C 1090.08,644.544 1083.91,648.211 1077.5,651.5C 1073.33,661.167 1069.17,670.833 1065,680.5C 1059.74,683.881 1054.24,686.881 1048.5,689.5C 1047.08,691.336 1045.91,693.336 1045,695.5C 942.962,939.804 840.462,1183.8 737.5,1427.5C 737.804,1418.42 737.471,1409.42 736.5,1400.5C 833.89,1169.37 931.057,938.038 1028,706.5C 1032.62,702.684 1037.62,699.35 1043,696.5C 1045.47,690.085 1048.14,683.752 1051,677.5C 1055.84,674.749 1060.5,671.749 1065,668.5C 1068.14,660.751 1071.47,653.084 1075,645.5C 1079.33,643.167 1083.67,640.833 1088,638.5C 1091.28,631.616 1094.28,624.616 1097,617.5C 1100.32,615.421 1103.82,613.754 1107.5,612.5 Z"/></g>
<g><path style="opacity:0.997" fill="#2ba36d" d="M 899.5,755.5 C 844.405,887.345 789.072,1019.01 733.5,1150.5C 732.845,1135.84 732.512,1121.18 732.5,1106.5C 776.267,1003.39 819.767,900.056 863,796.5C 863.792,794.413 864.959,792.579 866.5,791C 870.929,788.898 875.095,786.398 879,783.5C 882.528,775.916 885.861,768.249 889,760.5C 892.324,758.421 895.824,756.754 899.5,755.5 Z"/></g>
</svg>
