<svg width="162" height="52" viewBox="0 0 162 52" fill="none" xmlns="http://www.w3.org/2000/svg">
<g clip-path="url(#clip0_7_5)">
<path d="M34.9986 5.81854H36.1648C36.3499 5.81854 36.499 5.96758 36.499 6.1527V7.31894C36.499 7.50406 36.3499 7.6531 36.1648 7.6531H34.9986C34.8135 7.6531 34.6644 7.50406 34.6644 7.31894V6.1527C34.6644 5.96758 34.8135 5.81854 34.9986 5.81854Z" fill="#30CAED"/>
<path d="M38.8096 7.32452H40.7101C41.0118 7.32452 41.2547 7.56739 41.2547 7.86908V9.76961C41.2547 10.0713 41.0118 10.3142 40.7101 10.3142H38.8096C38.5079 10.3142 38.2651 10.0713 38.2651 9.76961V7.86908C38.2651 7.56739 38.5079 7.32452 38.8096 7.32452Z" fill="#30CAED"/>
<path d="M35.4203 10.8351H37.3209C37.6225 10.8351 37.8654 11.078 37.8654 11.3796V13.2802C37.8654 13.5819 37.6225 13.8247 37.3209 13.8247H35.4203C35.1187 13.8247 34.8758 13.5819 34.8758 13.2802V11.3796C34.8758 11.078 35.1187 10.8351 35.4203 10.8351Z" fill="#30CAED"/>
<path d="M22.9464 11.501C22.6553 11.501 22.4209 11.7354 22.4209 12.0265V14.36C22.4209 14.6511 22.6553 14.8855 22.9464 14.8855H23.5761V39.29C23.5761 39.5811 23.8105 39.8155 24.1016 39.8155H25.8441V28.1622C25.8441 27.1614 26.6499 26.3556 27.6507 26.3556C28.6516 26.3556 29.4573 27.1614 29.4573 28.1622V39.8155H31.1998C31.4909 39.8155 31.7253 39.5811 31.7253 39.29V14.8855H32.3551C32.6462 14.8855 32.8806 14.6511 32.8806 14.36V12.0265C32.8806 11.7354 32.6462 11.501 32.3551 11.501H30.5716V12.7447C30.5716 13.0358 30.3372 13.2701 30.0461 13.2701H29.3538C29.0627 13.2701 28.8284 13.0358 28.8284 12.7447V11.501H26.4731V12.7447C26.4731 13.0358 26.2388 13.2701 25.9477 13.2701H25.2553C24.9646 13.2701 24.7305 13.0364 24.7298 12.7458V11.501H22.9464Z" fill="url(#paint0_linear_7_5)"/>
<path d="M33.2784 17.3884V20.7729V39.2901C33.2784 39.5812 33.5128 39.8155 33.8039 39.8155H35.5464V29.694C35.5464 28.6932 36.3522 27.8874 37.353 27.8874C38.3539 27.8874 39.1596 28.6932 39.1596 29.694V39.8155H40.9021C41.1932 39.8155 41.4276 39.5812 41.4276 39.2901V20.7729H42.0574C42.3485 20.7729 42.5828 20.5385 42.5828 20.2474V17.9139C42.5828 17.6228 42.3485 17.3884 42.0574 17.3884H40.2739V18.6321C40.2739 18.9232 40.0395 19.1575 39.7484 19.1575H39.0561C38.765 19.1575 38.5307 18.9232 38.5307 18.6321V17.3884H36.1754V18.6321C36.1754 18.9232 35.9411 19.1575 35.65 19.1575H34.9576C34.6668 19.1575 34.4328 18.9238 34.4321 18.6332V17.3884H33.2784Z" fill="url(#paint1_linear_7_5)"/>
<path d="M13.244 17.3884C12.9528 17.3884 12.7185 17.6228 12.7185 17.9139V20.2474C12.7185 20.5385 12.9528 20.7729 13.244 20.7729H13.8738V39.2901C13.8738 39.5812 14.1081 39.8155 14.3992 39.8155H16.1417V29.694C16.1417 28.6932 16.9475 27.8874 17.9483 27.8874C18.9492 27.8874 19.7549 28.6932 19.7549 29.694V39.8155H21.4974C21.7885 39.8155 22.0229 39.5812 22.0229 39.2901V20.7729V17.3884H20.8692V18.6321C20.8692 18.9232 20.6348 19.1575 20.3437 19.1575H19.6514C19.3603 19.1575 19.1259 18.9232 19.1259 18.6321V17.3884H16.7707V18.6321C16.7707 18.9232 16.5364 19.1575 16.2453 19.1575H15.5529C15.2622 19.1575 15.0281 18.9238 15.0275 18.6332V17.3884H13.244Z" fill="url(#paint2_linear_7_5)"/>
<path d="M56.9335 14.6228C56.9335 14.1723 56.8847 13.8156 56.7871 13.5528C56.6895 13.29 56.528 13.091 56.3028 12.9558C56.0775 12.8207 55.7809 12.7343 55.4129 12.6968C55.0487 12.6592 54.5963 12.6404 54.0557 12.6404H51.5271C51.0465 12.6404 50.641 12.6555 50.3107 12.6855C49.984 12.7118 49.7137 12.7681 49.4997 12.8544C49.2857 12.9408 49.1205 13.0647 49.0041 13.2261C48.8877 13.3876 48.8032 13.6016 48.7507 13.8681C48.6981 14.1347 48.6681 14.4632 48.6606 14.8537C48.6531 15.2404 48.6493 15.7041 48.6493 16.2447C48.6493 16.7853 48.6531 17.2509 48.6606 17.6414C48.6718 18.0281 48.7037 18.3547 48.7563 18.6213C48.8089 18.8878 48.8915 19.1018 49.0041 19.2633C49.1205 19.4247 49.2857 19.5486 49.4997 19.635C49.7137 19.7213 49.984 19.7795 50.3107 19.8096C50.6411 19.8358 51.0465 19.849 51.5271 19.849H54.0557C54.4762 19.849 54.8385 19.8377 55.1427 19.8152C55.4468 19.7927 55.7058 19.7514 55.9198 19.6913C56.1338 19.6312 56.3065 19.5486 56.4379 19.4435C56.5693 19.3384 56.6707 19.207 56.742 19.0493C56.8171 18.8878 56.8678 18.6964 56.8941 18.4749C56.9204 18.2496 56.9335 17.9868 56.9335 17.6864H58.0148C58.0148 18.0468 57.9923 18.3735 57.9472 18.6663C57.9021 18.9554 57.8214 19.2145 57.705 19.4435C57.5924 19.6688 57.4403 19.864 57.2489 20.0292C57.0574 20.1944 56.8152 20.3314 56.5224 20.4403C56.2295 20.5454 55.8804 20.6224 55.4749 20.6712C55.0694 20.7238 54.5963 20.75 54.0557 20.75H51.5271C50.8663 20.75 50.3088 20.7087 49.8545 20.6261C49.4039 20.5473 49.0323 20.4272 48.7394 20.2657C48.4466 20.1005 48.2194 19.894 48.058 19.6462C47.9003 19.3984 47.7839 19.1075 47.7088 18.7733C47.6375 18.4392 47.5962 18.0619 47.5849 17.6414C47.5737 17.2209 47.5681 16.7553 47.5681 16.2447C47.5681 15.7341 47.5737 15.2686 47.5849 14.8481C47.5962 14.4276 47.6375 14.0502 47.7088 13.7161C47.7839 13.382 47.9003 13.091 48.058 12.8432C48.2194 12.5954 48.4466 12.3908 48.7394 12.2293C49.0323 12.0641 49.4039 11.9421 49.8545 11.8633C50.3088 11.7807 50.8663 11.7394 51.5271 11.7394H54.0557C54.5963 11.7394 55.0694 11.7657 55.4749 11.8182C55.8804 11.867 56.2295 11.944 56.5224 12.0491C56.8152 12.1505 57.0574 12.28 57.2489 12.4377C57.4403 12.5954 57.5924 12.7812 57.705 12.9952C57.8214 13.2092 57.9021 13.4514 57.9472 13.7217C57.9923 13.9921 58.0148 14.2924 58.0148 14.6228L56.9335 14.6228Z" fill="black"/>
<path d="M68.2869 18.5875H61.4388L60.3575 20.5699H59.096L64.142 11.9196H65.5837L70.6297 20.5699H69.3682L68.2869 18.5875ZM67.7463 17.6864L64.8628 12.6405L61.9794 17.6864H67.7463Z" fill="black"/>
<path d="M77.5228 15.7041C78.116 15.7041 78.6248 15.7285 79.049 15.7773C79.4733 15.8261 79.8299 15.8993 80.119 15.9969C80.4119 16.0908 80.6446 16.209 80.8173 16.3517C80.99 16.4944 81.1233 16.6577 81.2172 16.8417C81.3111 17.0219 81.3711 17.2246 81.3974 17.4499C81.4274 17.6752 81.4425 17.9192 81.4425 18.182C81.4425 18.4448 81.4181 18.6926 81.3692 18.9254C81.3242 19.1544 81.2416 19.3647 81.1214 19.5561C81.0013 19.7476 80.838 19.9184 80.6315 20.0686C80.425 20.2188 80.1622 20.3464 79.843 20.4516C79.5239 20.5567 79.1391 20.6355 78.6886 20.6881C78.2418 20.7444 77.718 20.7726 77.1173 20.7726H75.6756C75.135 20.7726 74.6619 20.7519 74.2564 20.7106C73.851 20.6693 73.5018 20.6074 73.2089 20.5248C72.9161 20.4384 72.6739 20.3314 72.4825 20.2038C72.291 20.0724 72.1371 19.9203 72.0207 19.7476C71.908 19.5712 71.8292 19.3722 71.7841 19.1507C71.7391 18.9254 71.7165 18.6776 71.7165 18.4073H72.7978C72.7978 18.7452 72.8466 19.0099 72.9442 19.2013C73.0418 19.3928 73.2033 19.5374 73.4285 19.635C73.6538 19.7288 73.9485 19.7889 74.3127 19.8152C74.6807 19.8377 75.135 19.849 75.6756 19.849H77.1173C77.748 19.849 78.2718 19.8189 78.6885 19.7589C79.1053 19.6988 79.4375 19.6031 79.6853 19.4717C79.9331 19.3403 80.1077 19.1694 80.2091 18.9592C80.3105 18.7452 80.3611 18.4861 80.3611 18.182C80.3611 17.8779 80.3255 17.6245 80.2542 17.4217C80.1866 17.219 80.0495 17.0576 79.843 16.9374C79.6403 16.8173 79.3531 16.7328 78.9814 16.684C78.6097 16.6314 78.1235 16.6051 77.5228 16.6051H76.036C75.3752 16.6051 74.8083 16.5807 74.3352 16.5319C73.8659 16.4831 73.4717 16.4137 73.1526 16.3236C72.8335 16.2297 72.5782 16.1152 72.3867 15.98C72.1952 15.8411 72.0488 15.6834 71.9474 15.507C71.8498 15.3305 71.786 15.1353 71.7559 14.9213C71.7259 14.7035 71.7109 14.4689 71.7109 14.2173C71.7109 13.9545 71.7334 13.7105 71.7785 13.4852C71.8273 13.2599 71.9155 13.0572 72.0432 12.877C72.1708 12.693 72.3454 12.5297 72.5669 12.387C72.7884 12.2444 73.0719 12.1261 73.4173 12.0322C73.7664 11.9346 74.1851 11.8614 74.6731 11.8126C75.1612 11.7638 75.7357 11.7394 76.3965 11.7394H77.4777C78.0184 11.7394 78.4914 11.76 78.8969 11.8013C79.3024 11.8389 79.6515 11.9008 79.9444 11.9872C80.2372 12.0698 80.4794 12.1749 80.6709 12.3025C80.8661 12.4264 81.02 12.5766 81.1327 12.7531C81.2491 12.9258 81.3298 13.1229 81.3748 13.3444C81.4199 13.5659 81.4424 13.8118 81.4424 14.0821H80.3612C80.3612 13.7442 80.3123 13.4796 80.2147 13.2881C80.1171 13.0966 79.9557 12.9539 79.7304 12.8601C79.5051 12.7625 79.2085 12.7024 78.8406 12.6799C78.4727 12.6536 78.0184 12.6404 77.4777 12.6404H76.3965C75.6756 12.6404 75.0824 12.6667 74.6169 12.7193C74.1513 12.7681 73.7834 12.8526 73.513 12.9727C73.2427 13.0929 73.055 13.2543 72.9499 13.457C72.8448 13.6598 72.7922 13.9132 72.7922 14.2173C72.7922 14.405 72.8053 14.5721 72.8316 14.7185C72.8579 14.865 72.9104 14.9945 72.9893 15.1071C73.0719 15.216 73.1864 15.308 73.3328 15.3831C73.4792 15.4582 73.6726 15.5201 73.9129 15.5689C74.1532 15.6177 74.446 15.6534 74.7914 15.6759C75.1406 15.6947 75.5554 15.7041 76.036 15.7041L77.5228 15.7041Z" fill="black"/>
<path d="M92.6157 11.9196V12.8207H88.2905V20.5699H87.2093V12.8207H82.8842V11.9196H92.6157Z" fill="black"/>
<path d="M94.4178 20.5699V11.9196H103.068V12.8207H95.4991V15.7041H102.708V16.6052H95.4991V19.6688H103.068V20.5699H94.4178Z" fill="black"/>
<path d="M104.51 20.5699V11.9196H105.591V19.6688H112.439V20.5699H104.51Z" fill="black"/>
<path d="M113.881 20.5699V11.9196H114.962V19.6688H121.81V20.5699H113.881Z" fill="black"/>
<path d="M133.35 11.9196V16.2447C133.35 16.7553 133.342 17.2209 133.327 17.6414C133.316 18.0619 133.273 18.4392 133.198 18.7734C133.126 19.1075 133.012 19.3985 132.854 19.6463C132.696 19.8941 132.471 20.1005 132.178 20.2657C131.885 20.4272 131.512 20.5473 131.057 20.6262C130.607 20.7088 130.051 20.7501 129.391 20.7501H126.856C126.195 20.7501 125.638 20.7088 125.184 20.6262C124.733 20.5473 124.361 20.4272 124.069 20.2657C123.776 20.1005 123.549 19.8941 123.387 19.6463C123.229 19.3985 123.113 19.1075 123.038 18.7734C122.967 18.4392 122.925 18.0619 122.914 17.6414C122.903 17.2209 122.897 16.7553 122.897 16.2447V11.9196H123.978V16.2447C123.978 16.7854 123.982 17.2509 123.99 17.6414C124.001 18.0281 124.033 18.3547 124.086 18.6213C124.138 18.8879 124.221 19.1019 124.333 19.2633C124.45 19.4247 124.615 19.5486 124.829 19.635C125.043 19.7214 125.313 19.7795 125.64 19.8096C125.97 19.8359 126.376 19.849 126.856 19.849H129.391C129.867 19.849 130.271 19.8359 130.601 19.8096C130.932 19.7795 131.202 19.7214 131.412 19.635C131.626 19.5486 131.791 19.4247 131.908 19.2633C132.024 19.1019 132.109 18.8879 132.161 18.6213C132.218 18.3547 132.25 18.0281 132.257 17.6414C132.265 17.2509 132.268 16.7854 132.268 16.2447L132.262 11.9196H133.35Z" fill="black"/>
<path d="M136.233 12.6405V20.5699H135.152V11.9196H136.954L141.994 19.4886L147.034 11.9196H148.758V20.5699H147.676V12.7587L142.54 20.5699H141.448L136.233 12.6405Z" fill="black"/>
<path d="M47.568 35.1573H48.1373V39.7118H47.568V35.1573Z" fill="black"/>
<path d="M51.3083 39.7118H50.739V35.1573H51.7383L55.9132 39.1425V35.1573H56.4825V39.7118H55.7235L51.3083 35.6317V39.7118Z" fill="black"/>
<path d="M62.4972 39.2374C62.7482 39.2374 62.9607 39.2305 63.1347 39.2166C63.3086 39.2028 63.4519 39.1751 63.5646 39.1336C63.6773 39.0901 63.7643 39.0278 63.8256 38.9468C63.8868 38.8657 63.9313 38.759 63.959 38.6266C63.9887 38.4921 64.0055 38.3281 64.0094 38.1343C64.0153 37.9386 64.0182 37.7054 64.0182 37.4346C64.0182 37.1637 64.0153 36.9315 64.0094 36.7377C64.0055 36.542 63.9887 36.378 63.959 36.2455C63.9313 36.1111 63.8868 36.0034 63.8256 35.9223C63.7643 35.8413 63.6773 35.78 63.5646 35.7385C63.4519 35.695 63.3086 35.6663 63.1347 35.6525C62.9627 35.6386 62.7502 35.6317 62.4972 35.6317H59.6535V39.2374L62.4972 39.2374ZM59.0842 39.7118V35.1573H62.4972C62.8451 35.1573 63.1376 35.178 63.3749 35.2196C63.614 35.2591 63.8107 35.3204 63.9649 35.4034C64.1211 35.4864 64.2407 35.5902 64.3237 35.7147C64.4087 35.8393 64.47 35.9866 64.5075 36.1566C64.5471 36.3246 64.5698 36.5153 64.5757 36.7288C64.5837 36.9403 64.5876 37.1756 64.5876 37.4346C64.5876 37.6935 64.5837 37.9297 64.5757 38.1432C64.5699 38.3547 64.5471 38.5455 64.5075 38.7155C64.47 38.8835 64.4087 39.0298 64.3237 39.1543C64.2407 39.2789 64.1211 39.3827 63.9649 39.4657C63.8107 39.5487 63.614 39.611 63.3749 39.6525C63.1376 39.692 62.8451 39.7118 62.4972 39.7118L59.0842 39.7118Z" fill="black"/>
<path d="M70.6082 35.0624C70.9561 35.0624 71.2487 35.0841 71.4859 35.1276C71.7251 35.1691 71.9218 35.2334 72.076 35.3203C72.2302 35.4053 72.3488 35.5131 72.4318 35.6436C72.5148 35.774 72.5751 35.9272 72.6127 36.1032C72.6522 36.2791 72.6749 36.4778 72.6809 36.6992C72.6888 36.9206 72.6928 37.1657 72.6928 37.4345C72.6928 37.7034 72.6888 37.9485 72.6809 38.1699C72.675 38.3913 72.6523 38.59 72.6127 38.7659C72.5751 38.9418 72.5148 39.095 72.4318 39.2255C72.3488 39.356 72.2302 39.4647 72.076 39.5517C71.9218 39.6367 71.7251 39.6999 71.4859 39.7414C71.2487 39.7849 70.9561 39.8067 70.6082 39.8067H68.8944C68.5465 39.8067 68.2529 39.7849 68.0137 39.7414C67.7765 39.6999 67.5808 39.6367 67.4266 39.5517C67.2724 39.4647 67.1528 39.356 67.0678 39.2255C66.9848 39.095 66.9235 38.9418 66.884 38.7659C66.8464 38.59 66.8246 38.3913 66.8187 38.1699C66.8129 37.9485 66.8099 37.7034 66.8099 37.4345C66.8099 37.1657 66.8129 36.9206 66.8187 36.6992C66.8246 36.4778 66.8463 36.2791 66.884 36.1032C66.9235 35.9272 66.9848 35.774 67.0678 35.6436C67.1528 35.5131 67.2724 35.4053 67.4266 35.3203C67.5808 35.2334 67.7765 35.1691 68.0137 35.1276C68.2529 35.0841 68.5465 35.0624 68.8944 35.0624H70.6082ZM70.6082 39.3322C70.8593 39.3322 71.0708 39.3253 71.2428 39.3115C71.4167 39.2957 71.5601 39.265 71.6727 39.2196C71.7854 39.1741 71.8724 39.1089 71.9337 39.0239C71.9949 38.9389 72.0394 38.8262 72.0671 38.6858C72.0948 38.5455 72.1106 38.3735 72.1146 38.1699C72.1204 37.9643 72.1234 37.7192 72.1234 37.4345C72.1234 37.1499 72.1204 36.9057 72.1146 36.7021C72.1107 36.4965 72.0949 36.3236 72.0671 36.1832C72.0394 36.0429 71.9949 35.9302 71.9337 35.8452C71.8724 35.7602 71.7854 35.695 71.6727 35.6495C71.562 35.604 71.4197 35.5744 71.2457 35.5605C71.0738 35.5447 70.8612 35.5368 70.6082 35.5368H68.8944C68.6413 35.5368 68.4278 35.5447 68.2539 35.5605C68.0819 35.5744 67.9396 35.604 67.8269 35.6495C67.7142 35.695 67.6272 35.7602 67.5659 35.8452C67.5047 35.9302 67.4602 36.0429 67.4325 36.1832C67.4048 36.3236 67.389 36.4965 67.3851 36.7021C67.3812 36.9057 67.3793 37.1499 67.3793 37.4345C67.3793 37.7192 67.3812 37.9643 67.3851 38.1699C67.391 38.3735 67.4078 38.5455 67.4355 38.6858C67.4632 38.8262 67.5067 38.9389 67.566 39.0239C67.6273 39.1089 67.7143 39.1741 67.827 39.2196C67.9396 39.265 68.082 39.2957 68.2539 39.3115C68.4279 39.3253 68.6414 39.3322 68.8944 39.3322H70.6082Z" fill="black"/>
<path d="M75.674 39.7118H75.1047V35.1573H76.104L80.279 39.1425V35.1573H80.8483V39.7118H80.0892L75.674 35.6317V39.7118Z" fill="black"/>
<path d="M83.45 39.7118V35.1573H88.0045V35.6317H84.0193V37.1499H87.8147V37.6243H84.0193V39.2374H88.0045V39.7118H83.45Z" fill="black"/>
<path d="M93.0968 37.1499C93.4092 37.1499 93.677 37.1627 93.9004 37.1884C94.1238 37.2141 94.3116 37.2527 94.4638 37.3041C94.618 37.3535 94.7405 37.4157 94.8315 37.4909C94.9224 37.566 94.9926 37.652 95.042 37.7488C95.0914 37.8437 95.1231 37.9505 95.1369 38.0691C95.1527 38.1877 95.1606 38.3162 95.1606 38.4545C95.1606 38.5929 95.1478 38.7234 95.1221 38.8459C95.0984 38.9665 95.0549 39.0772 94.9916 39.178C94.9284 39.2789 94.8424 39.3688 94.7337 39.4479C94.6249 39.5269 94.4866 39.5942 94.3185 39.6495C94.1505 39.7049 93.9479 39.7464 93.7107 39.7741C93.4754 39.8037 93.1997 39.8185 92.8834 39.8185H92.1243C91.8396 39.8185 91.5906 39.8076 91.3771 39.7859C91.1636 39.7642 90.9797 39.7315 90.8256 39.6881C90.6714 39.6426 90.5439 39.5863 90.443 39.519C90.3422 39.4499 90.2612 39.3698 90.1999 39.2789C90.1406 39.186 90.0991 39.0812 90.0753 38.9646C90.0516 38.8459 90.0397 38.7155 90.0397 38.5732H90.6091C90.6091 38.7511 90.6348 38.8904 90.6861 38.9912C90.7375 39.0921 90.8225 39.1682 90.9411 39.2196C91.0597 39.269 91.2149 39.3006 91.4067 39.3144C91.6004 39.3263 91.8396 39.3322 92.1242 39.3322H92.8833C93.2154 39.3322 93.4912 39.3164 93.7106 39.2848C93.93 39.2532 94.105 39.2028 94.2355 39.1336C94.3659 39.0644 94.4578 38.9744 94.5112 38.8637C94.5646 38.7511 94.5913 38.6147 94.5913 38.4545C94.5913 38.2944 94.5725 38.161 94.5349 38.0542C94.4994 37.9475 94.4272 37.8625 94.3185 37.7992C94.2117 37.736 94.0605 37.6915 93.8648 37.6658C93.6691 37.6381 93.4131 37.6243 93.0968 37.6243H92.314C91.9661 37.6243 91.6676 37.6114 91.4185 37.5857C91.1714 37.5601 90.9638 37.5235 90.7958 37.476C90.6278 37.4266 90.4934 37.3663 90.3926 37.2952C90.2917 37.222 90.2147 37.139 90.1613 37.0461C90.1099 36.9532 90.0763 36.8504 90.0605 36.7377C90.0447 36.6231 90.0367 36.4995 90.0367 36.3671C90.0367 36.2287 90.0486 36.1002 90.0723 35.9816C90.098 35.863 90.1445 35.7562 90.2117 35.6613C90.2789 35.5645 90.3708 35.4785 90.4875 35.4034C90.6041 35.3283 90.7534 35.266 90.9352 35.2166C91.1191 35.1652 91.3395 35.1266 91.5965 35.1009C91.8535 35.0752 92.1559 35.0624 92.5038 35.0624H93.0731C93.3578 35.0624 93.6069 35.0732 93.8204 35.095C94.0338 35.1148 94.2177 35.1474 94.3719 35.1928C94.5261 35.2363 94.6536 35.2917 94.7544 35.3589C94.8572 35.4241 94.9382 35.5032 94.9975 35.5961C95.0588 35.687 95.1013 35.7908 95.125 35.9075C95.1488 36.0241 95.1606 36.1536 95.1606 36.2959H94.5913C94.5913 36.118 94.5656 35.9786 94.5143 35.8778C94.4629 35.777 94.3779 35.7019 94.2592 35.6525C94.1406 35.6011 93.9845 35.5694 93.7907 35.5576C93.597 35.5437 93.3578 35.5368 93.0732 35.5368H92.5039C92.1243 35.5368 91.812 35.5506 91.5669 35.5783C91.3217 35.604 91.128 35.6485 90.9857 35.7118C90.8434 35.775 90.7445 35.86 90.6892 35.9668C90.6338 36.0735 90.6062 36.2069 90.6062 36.3671C90.6062 36.4659 90.6131 36.5539 90.627 36.631C90.6408 36.7081 90.6685 36.7763 90.7099 36.8356C90.7534 36.8929 90.8137 36.9413 90.8908 36.9809C90.9679 37.0204 91.0697 37.053 91.1962 37.0787C91.3228 37.1044 91.4769 37.1232 91.6588 37.135C91.8426 37.1449 92.0611 37.1499 92.3141 37.1499H93.0968Z" fill="black"/>
<path d="M97.5726 35.1573H98.142V39.7118H97.5726V35.1573Z" fill="black"/>
<path d="M105.203 38.6681H101.598L101.028 39.7118H100.364L103.021 35.1573H103.78L106.437 39.7118H105.773L105.203 38.6681ZM104.919 38.1936L103.4 35.5368L101.882 38.1936H104.919Z" fill="black"/>
<path d="M54.05 31.3415C54.5268 31.3415 54.9305 31.3283 55.2608 31.302C55.5912 31.2757 55.8634 31.2232 56.0774 31.1444C56.2914 31.0618 56.4566 30.9435 56.573 30.7895C56.6894 30.6356 56.7739 30.4329 56.8264 30.1813C56.8828 29.926 56.9147 29.6144 56.9222 29.2465C56.9335 28.8748 56.9391 28.4318 56.9391 27.9174C56.9391 27.403 56.9335 26.9619 56.9222 26.594C56.9147 26.2223 56.8828 25.9107 56.8264 25.6591C56.7739 25.4038 56.6894 25.1992 56.573 25.0453C56.4566 24.8913 56.2914 24.7749 56.0774 24.6961C55.8634 24.6135 55.5912 24.5591 55.2608 24.5328C54.9342 24.5065 54.5306 24.4933 54.05 24.4933H48.6493V31.3415H54.05ZM47.568 32.2425V23.5923H54.05C54.7108 23.5923 55.2665 23.6317 55.717 23.7105C56.1713 23.7856 56.5449 23.902 56.8377 24.0597C57.1343 24.2174 57.3614 24.4145 57.5191 24.651C57.6806 24.8876 57.797 25.1673 57.8683 25.4902C57.9434 25.8093 57.9866 26.1716 57.9978 26.5771C58.0128 26.9788 58.0204 27.4256 58.0204 27.9174C58.0204 28.4092 58.0128 28.8579 57.9978 29.2634C57.9866 29.6651 57.9434 30.0274 57.8683 30.3503C57.797 30.6694 57.6806 30.9472 57.5191 31.1838C57.3614 31.4203 57.1343 31.6174 56.8377 31.7751C56.5449 31.9328 56.1713 32.051 55.717 32.1299C55.2665 32.205 54.7108 32.2425 54.05 32.2425H47.568Z" fill="black"/>
<path d="M59.8225 23.5923H60.9038V32.2425H59.8225V23.5923Z" fill="black"/>
<path d="M72.4431 26.2955C72.4431 25.845 72.3943 25.4883 72.2966 25.2255C72.199 24.9627 72.0376 24.7637 71.8123 24.6285C71.587 24.4934 71.2904 24.407 70.9225 24.3695C70.5546 24.3319 70.1003 24.3132 69.5596 24.3132H66.665C66.1844 24.3132 65.7789 24.3282 65.4485 24.3582C65.1219 24.3845 64.8516 24.4408 64.6376 24.5272C64.4236 24.6135 64.2584 24.7374 64.142 24.8989C64.0256 25.0603 63.9411 25.2743 63.8886 25.5409C63.836 25.8074 63.806 26.136 63.7984 26.5264C63.791 26.9131 63.7872 27.3768 63.7872 27.9174C63.7872 28.4581 63.791 28.9236 63.7984 29.3141C63.8097 29.7008 63.8416 30.0274 63.8942 30.294C63.9468 30.5606 64.0294 30.7746 64.142 30.936C64.2584 31.0975 64.4236 31.2213 64.6376 31.3077C64.8516 31.394 65.1219 31.4522 65.4486 31.4823C65.779 31.5086 66.1844 31.5217 66.665 31.5217H69.5653C69.9858 31.5217 70.3481 31.5104 70.6522 31.4879C70.9563 31.4654 71.2154 31.4241 71.4294 31.364C71.6434 31.304 71.8161 31.2214 71.9475 31.1162C72.0789 31.0111 72.1803 30.8797 72.2516 30.722C72.3267 30.5606 72.3774 30.3691 72.4037 30.1476C72.4299 29.9223 72.4431 29.6595 72.4431 29.3591V28.8185H68.1067V27.9174H73.5243V29.3591C73.5243 29.7196 73.5018 30.0462 73.4567 30.3391C73.4117 30.6281 73.331 30.8872 73.2146 31.1162C73.1019 31.3415 72.9499 31.5367 72.7584 31.7019C72.5669 31.8671 72.3248 32.0042 72.0319 32.113C71.7391 32.2182 71.3899 32.2951 70.9844 32.3439C70.579 32.3965 70.1059 32.4228 69.5653 32.4228H66.665C66.0042 32.4228 65.4466 32.3815 64.9923 32.2989C64.5418 32.22 64.1701 32.0999 63.8773 31.9385C63.5844 31.7733 63.3573 31.5668 63.1959 31.319C63.0382 31.0712 62.9218 30.7802 62.8467 30.4461C62.7754 30.1119 62.7341 29.7346 62.7228 29.3141C62.7116 28.8936 62.7059 28.428 62.7059 27.9174C62.7059 27.4068 62.7116 26.9413 62.7228 26.5208C62.7341 26.1003 62.7753 25.723 62.8467 25.3888C62.9218 25.0547 63.0382 24.7637 63.1959 24.5159C63.3573 24.2681 63.5844 24.0635 63.8773 23.9021C64.1701 23.7369 64.5418 23.6149 64.9923 23.536C65.4466 23.4534 66.0042 23.4121 66.665 23.4121H69.5596C70.1003 23.4121 70.5733 23.4384 70.9788 23.491C71.3843 23.5398 71.7335 23.6167 72.0263 23.7219C72.3192 23.8232 72.5613 23.9528 72.7528 24.1104C72.948 24.2681 73.1019 24.454 73.2146 24.668C73.331 24.882 73.4117 25.1241 73.4567 25.3945C73.5018 25.6648 73.5243 25.9651 73.5243 26.2955L72.4431 26.2955Z" fill="black"/>
<path d="M75.3265 23.5923H76.4078V32.2425H75.3265V23.5923Z" fill="black"/>
<path d="M87.9414 23.5923V24.4933H83.6162V32.2425H82.535V24.4933H78.2098V23.5923H87.9414Z" fill="black"/>
<path d="M95.3302 30.2602H88.482L87.4008 32.2425H86.1393L91.1853 23.5923H92.627L97.6729 32.2425H96.4114L95.3302 30.2602ZM94.7895 29.3591L91.9061 24.3131L89.0227 29.3591H94.7895Z" fill="black"/>
<path d="M99.1146 32.2425V23.5923H100.196V31.3415H107.044V32.2425H99.1146Z" fill="black"/>
<path d="M112.51 35.0624H124.408C125.022 35.0624 125.516 35.5564 125.516 36.1699V38.711C125.516 39.3246 125.022 39.8185 124.408 39.8185H112.51C111.896 39.8185 111.402 39.3246 111.402 38.711V36.1699C111.402 35.5564 111.896 35.0624 112.51 35.0624Z" fill="#30CAED"/>
<path d="M112.64 23.4121H124.278C124.964 23.4121 125.516 23.9642 125.516 24.65V31.1849C125.516 31.8707 124.964 32.4228 124.278 32.4228H112.64C111.955 32.4228 111.402 31.8707 111.402 31.1849V24.65C111.402 23.9642 111.955 23.4121 112.64 23.4121V23.4121Z" fill="#3C84F6"/>
<path d="M128.643 28.1683H138.667C139.136 28.1683 139.514 27.7906 139.514 27.3214V24.2591C139.514 23.7899 139.136 23.4122 138.667 23.4122H128.643C128.174 23.4122 127.796 23.7899 127.796 24.2591V27.3214C127.796 27.7906 128.174 28.1683 128.643 28.1683Z" fill="#3B8AF5"/>
<path d="M128.904 39.8185H138.406C139.02 39.8185 139.514 39.3246 139.514 38.711V31.9154C139.514 31.3018 139.02 30.8079 138.406 30.8079H128.904C128.29 30.8079 127.796 31.3018 127.796 31.9154V38.711C127.796 39.3246 128.29 39.8185 128.904 39.8185V39.8185Z" fill="#33BCEF"/>
<path d="M142.706 35.0624H147.846C148.351 35.0624 148.758 35.4692 148.758 35.9745V38.9064C148.758 39.4117 148.351 39.8185 147.846 39.8185H142.706C142.201 39.8185 141.794 39.4117 141.794 38.9064V35.9745C141.794 35.4692 142.201 35.0624 142.706 35.0624Z" fill="#33B9EF"/>
<path d="M142.836 23.4121H147.715C148.293 23.4121 148.758 23.877 148.758 24.4545V31.3804C148.758 31.9579 148.293 32.4228 147.715 32.4228H142.836C142.259 32.4228 141.794 31.9579 141.794 31.3804V24.4545C141.794 23.877 142.259 23.4121 142.836 23.4121Z" fill="#3B8DF5"/>
</g>
<defs>
<linearGradient id="paint0_linear_7_5" x1="28.4195" y1="39.8217" x2="28.4195" y2="11.504" gradientUnits="userSpaceOnUse">
<stop stop-color="#4169F9"/>
<stop offset="1" stop-color="#30CAED"/>
</linearGradient>
<linearGradient id="paint1_linear_7_5" x1="28.4194" y1="39.8217" x2="28.4194" y2="11.5041" gradientUnits="userSpaceOnUse">
<stop stop-color="#4169F9"/>
<stop offset="1" stop-color="#30CAED"/>
</linearGradient>
<linearGradient id="paint2_linear_7_5" x1="28.4194" y1="39.8217" x2="28.4194" y2="11.5041" gradientUnits="userSpaceOnUse">
<stop stop-color="#4169F9"/>
<stop offset="1" stop-color="#30CAED"/>
</linearGradient>
<clipPath id="clip0_7_5">
<rect width="161.475" height="51.4512" fill="white"/>
</clipPath>
</defs>
</svg>
