<?xml version="1.0" encoding="UTF-8"?>
<!DOCTYPE svg PUBLIC "-//W3C//DTD SVG 1.1//EN" "http://www.w3.org/Graphics/SVG/1.1/DTD/svg11.dtd">
<svg xmlns="http://www.w3.org/2000/svg" version="1.1" width="220px" height="83px" style="shape-rendering:geometricPrecision; text-rendering:geometricPrecision; image-rendering:optimizeQuality; fill-rule:evenodd; clip-rule:evenodd" xmlns:xlink="http://www.w3.org/1999/xlink">
<g><path style="opacity:0.961" fill="#00acd7" d="M 95.5,-0.5 C 101.833,-0.5 108.167,-0.5 114.5,-0.5C 124.845,2.67353 132.678,9.00687 138,18.5C 138.667,19.8333 138.667,21.1667 138,22.5C 130.714,25.1977 123.214,26.6977 115.5,27C 107.791,19.163 99.4575,18.4963 90.5,25C 81.2675,32.8671 79.1008,42.3671 84,53.5C 95.006,63.31 105.173,62.4766 114.5,51C 107.253,50.8149 100.087,50.3149 93,49.5C 93.8545,43.6027 96.0212,38.1027 99.5,33C 111.5,32.6667 123.5,32.3333 135.5,32C 144.126,11.5319 159.459,0.698602 181.5,-0.5C 181.833,-0.5 182.167,-0.5 182.5,-0.5C 201.21,0.557918 213.544,9.89125 219.5,27.5C 219.5,33.8333 219.5,40.1667 219.5,46.5C 212.231,68.097 197.231,80.097 174.5,82.5C 172.833,82.5 171.167,82.5 169.5,82.5C 153.722,80.933 142.389,72.933 135.5,58.5C 118.281,82.3883 96.6141,87.5549 70.5,74C 56.55,59.8891 53.7167,43.7224 62,25.5C 69.8127,12.3622 80.9794,3.6955 95.5,-0.5 Z M 176.5,20.5 C 192.949,21.1126 199.449,29.446 196,45.5C 188.282,60.296 177.116,63.796 162.5,56C 156.067,47.3912 155.901,38.5579 162,29.5C 166.042,25.0704 170.875,22.0704 176.5,20.5 Z"/></g>
<g><path style="opacity:0.792" fill="#00acd7" d="M 18.5,19.5 C 31.85,19.1675 45.1833,19.5008 58.5,20.5C 57.9598,21.7481 57.2931,22.9148 56.5,24C 42.8212,24.8327 29.1545,24.6661 15.5,23.5C 16.5244,22.1482 17.5244,20.8149 18.5,19.5 Z"/></g>
<g><path style="opacity:0.775" fill="#00acd6" d="M -0.5,34.5 C -0.5,33.8333 -0.5,33.1667 -0.5,32.5C 0.267389,31.828 0.934056,30.9947 1.5,30C 18.4967,29.5001 35.4967,29.3334 52.5,29.5C 52.7135,31.1439 52.3802,32.6439 51.5,34C 34.1699,34.4999 16.8365,34.6666 -0.5,34.5 Z"/></g>
<g><path style="opacity:0.778" fill="#01abd7" d="M 26.5,39.5 C 34.5,39.5 42.5,39.5 50.5,39.5C 50.5,41.1667 50.5,42.8333 50.5,44.5C 41.8269,44.6664 33.1603,44.4998 24.5,44C 25.5822,42.6703 26.2488,41.1703 26.5,39.5 Z"/></g>
</svg>
