<?xml version="1.0" encoding="UTF-8"?>
<!DOCTYPE svg PUBLIC "-//W3C//DTD SVG 1.1//EN" "http://www.w3.org/Graphics/SVG/1.1/DTD/svg11.dtd">
<svg xmlns="http://www.w3.org/2000/svg" version="1.1" width="360px" height="270px" style="shape-rendering:geometricPrecision; text-rendering:geometricPrecision; image-rendering:optimizeQuality; fill-rule:evenodd; clip-rule:evenodd" xmlns:xlink="http://www.w3.org/1999/xlink">
<g><path style="opacity:1" fill="#fefffe" d="M -0.5,-0.5 C 4.5,-0.5 9.5,-0.5 14.5,-0.5C 14.5,4.5 14.5,9.5 14.5,14.5C 9.5,14.5 4.5,14.5 -0.5,14.5C -0.5,9.5 -0.5,4.5 -0.5,-0.5 Z"/></g>
<g><path style="opacity:1" fill="#eeeeed" d="M 14.5,-0.5 C 19.5,-0.5 24.5,-0.5 29.5,-0.5C 29.5,4.5 29.5,9.5 29.5,14.5C 24.5,14.5 19.5,14.5 14.5,14.5C 14.5,9.5 14.5,4.5 14.5,-0.5 Z"/></g>
<g><path style="opacity:1" fill="#fefffe" d="M 29.5,-0.5 C 34.5,-0.5 39.5,-0.5 44.5,-0.5C 44.5,4.5 44.5,9.5 44.5,14.5C 39.5,14.5 34.5,14.5 29.5,14.5C 29.5,9.5 29.5,4.5 29.5,-0.5 Z"/></g>
<g><path style="opacity:1" fill="#eeeeed" d="M 44.5,-0.5 C 49.5,-0.5 54.5,-0.5 59.5,-0.5C 59.5,4.5 59.5,9.5 59.5,14.5C 54.5,14.5 49.5,14.5 44.5,14.5C 44.5,9.5 44.5,4.5 44.5,-0.5 Z"/></g>
<g><path style="opacity:1" fill="#fefffe" d="M 59.5,-0.5 C 64.5,-0.5 69.5,-0.5 74.5,-0.5C 74.5,4.5 74.5,9.5 74.5,14.5C 69.5,14.5 64.5,14.5 59.5,14.5C 59.5,9.5 59.5,4.5 59.5,-0.5 Z"/></g>
<g><path style="opacity:1" fill="#eeeeed" d="M 74.5,-0.5 C 79.5,-0.5 84.5,-0.5 89.5,-0.5C 89.5,4.5 89.5,9.5 89.5,14.5C 84.5,14.5 79.5,14.5 74.5,14.5C 74.5,9.5 74.5,4.5 74.5,-0.5 Z"/></g>
<g><path style="opacity:1" fill="#fefffe" d="M 89.5,-0.5 C 94.5,-0.5 99.5,-0.5 104.5,-0.5C 104.5,4.5 104.5,9.5 104.5,14.5C 99.5,14.5 94.5,14.5 89.5,14.5C 89.5,9.5 89.5,4.5 89.5,-0.5 Z"/></g>
<g><path style="opacity:1" fill="#eeeeed" d="M 104.5,-0.5 C 109.5,-0.5 114.5,-0.5 119.5,-0.5C 119.5,4.5 119.5,9.5 119.5,14.5C 114.5,14.5 109.5,14.5 104.5,14.5C 104.5,9.5 104.5,4.5 104.5,-0.5 Z"/></g>
<g><path style="opacity:1" fill="#fefffe" d="M 119.5,-0.5 C 124.5,-0.5 129.5,-0.5 134.5,-0.5C 134.5,4.5 134.5,9.5 134.5,14.5C 129.5,14.5 124.5,14.5 119.5,14.5C 119.5,9.5 119.5,4.5 119.5,-0.5 Z"/></g>
<g><path style="opacity:1" fill="#eeeeed" d="M 134.5,-0.5 C 139.5,-0.5 144.5,-0.5 149.5,-0.5C 149.5,4.5 149.5,9.5 149.5,14.5C 144.5,14.5 139.5,14.5 134.5,14.5C 134.5,9.5 134.5,4.5 134.5,-0.5 Z"/></g>
<g><path style="opacity:1" fill="#fefffe" d="M 149.5,-0.5 C 154.5,-0.5 159.5,-0.5 164.5,-0.5C 164.5,4.5 164.5,9.5 164.5,14.5C 159.5,14.5 154.5,14.5 149.5,14.5C 149.5,9.5 149.5,4.5 149.5,-0.5 Z"/></g>
<g><path style="opacity:1" fill="#eeeeed" d="M 164.5,-0.5 C 169.5,-0.5 174.5,-0.5 179.5,-0.5C 179.5,4.5 179.5,9.5 179.5,14.5C 174.5,14.5 169.5,14.5 164.5,14.5C 164.5,9.5 164.5,4.5 164.5,-0.5 Z"/></g>
<g><path style="opacity:1" fill="#68b6f6" d="M 204.5,-0.5 C 232.5,-0.5 260.5,-0.5 288.5,-0.5C 230.368,58.1321 172.035,116.632 113.5,175C 112.5,175.667 111.5,175.667 110.5,175C 96.9648,161.632 83.6314,148.132 70.5,134.5C 115.167,89.5 159.833,44.5 204.5,-0.5 Z"/></g>
<g><path style="opacity:1" fill="#fefffe" d="M 299.5,-0.5 C 304.5,-0.5 309.5,-0.5 314.5,-0.5C 314.5,4.5 314.5,9.5 314.5,14.5C 309.5,14.5 304.5,14.5 299.5,14.5C 299.5,9.5 299.5,4.5 299.5,-0.5 Z"/></g>
<g><path style="opacity:1" fill="#eeeeed" d="M 314.5,-0.5 C 319.5,-0.5 324.5,-0.5 329.5,-0.5C 329.5,4.5 329.5,9.5 329.5,14.5C 324.5,14.5 319.5,14.5 314.5,14.5C 314.5,9.5 314.5,4.5 314.5,-0.5 Z"/></g>
<g><path style="opacity:1" fill="#fefffe" d="M 329.5,-0.5 C 334.5,-0.5 339.5,-0.5 344.5,-0.5C 344.5,4.5 344.5,9.5 344.5,14.5C 339.5,14.5 334.5,14.5 329.5,14.5C 329.5,9.5 329.5,4.5 329.5,-0.5 Z"/></g>
<g><path style="opacity:1" fill="#eeeeed" d="M 344.5,-0.5 C 349.5,-0.5 354.5,-0.5 359.5,-0.5C 359.5,4.5 359.5,9.5 359.5,14.5C 354.5,14.5 349.5,14.5 344.5,14.5C 344.5,9.5 344.5,4.5 344.5,-0.5 Z"/></g>
<g><path style="opacity:1" fill="#eeeeed" d="M -0.5,14.5 C 4.5,14.5 9.5,14.5 14.5,14.5C 14.5,19.5 14.5,24.5 14.5,29.5C 9.5,29.5 4.5,29.5 -0.5,29.5C -0.5,24.5 -0.5,19.5 -0.5,14.5 Z"/></g>
<g><path style="opacity:1" fill="#fefffe" d="M 14.5,14.5 C 19.5,14.5 24.5,14.5 29.5,14.5C 29.5,19.5 29.5,24.5 29.5,29.5C 24.5,29.5 19.5,29.5 14.5,29.5C 14.5,24.5 14.5,19.5 14.5,14.5 Z"/></g>
<g><path style="opacity:1" fill="#eeeeed" d="M 29.5,14.5 C 34.5,14.5 39.5,14.5 44.5,14.5C 44.5,19.5 44.5,24.5 44.5,29.5C 39.5,29.5 34.5,29.5 29.5,29.5C 29.5,24.5 29.5,19.5 29.5,14.5 Z"/></g>
<g><path style="opacity:1" fill="#fefffe" d="M 44.5,14.5 C 49.5,14.5 54.5,14.5 59.5,14.5C 59.5,19.5 59.5,24.5 59.5,29.5C 54.5,29.5 49.5,29.5 44.5,29.5C 44.5,24.5 44.5,19.5 44.5,14.5 Z"/></g>
<g><path style="opacity:1" fill="#eeeeed" d="M 59.5,14.5 C 64.5,14.5 69.5,14.5 74.5,14.5C 74.5,19.5 74.5,24.5 74.5,29.5C 69.5,29.5 64.5,29.5 59.5,29.5C 59.5,24.5 59.5,19.5 59.5,14.5 Z"/></g>
<g><path style="opacity:1" fill="#fefffe" d="M 74.5,14.5 C 79.5,14.5 84.5,14.5 89.5,14.5C 89.5,19.5 89.5,24.5 89.5,29.5C 84.5,29.5 79.5,29.5 74.5,29.5C 74.5,24.5 74.5,19.5 74.5,14.5 Z"/></g>
<g><path style="opacity:1" fill="#eeeeed" d="M 89.5,14.5 C 94.5,14.5 99.5,14.5 104.5,14.5C 104.5,19.5 104.5,24.5 104.5,29.5C 99.5,29.5 94.5,29.5 89.5,29.5C 89.5,24.5 89.5,19.5 89.5,14.5 Z"/></g>
<g><path style="opacity:1" fill="#fefffe" d="M 104.5,14.5 C 109.5,14.5 114.5,14.5 119.5,14.5C 119.5,19.5 119.5,24.5 119.5,29.5C 114.5,29.5 109.5,29.5 104.5,29.5C 104.5,24.5 104.5,19.5 104.5,14.5 Z"/></g>
<g><path style="opacity:1" fill="#eeeeed" d="M 119.5,14.5 C 124.5,14.5 129.5,14.5 134.5,14.5C 134.5,19.5 134.5,24.5 134.5,29.5C 129.5,29.5 124.5,29.5 119.5,29.5C 119.5,24.5 119.5,19.5 119.5,14.5 Z"/></g>
<g><path style="opacity:1" fill="#fefffe" d="M 134.5,14.5 C 139.5,14.5 144.5,14.5 149.5,14.5C 149.5,19.5 149.5,24.5 149.5,29.5C 144.5,29.5 139.5,29.5 134.5,29.5C 134.5,24.5 134.5,19.5 134.5,14.5 Z"/></g>
<g><path style="opacity:1" fill="#eeeeed" d="M 149.5,14.5 C 154.5,14.5 159.5,14.5 164.5,14.5C 164.5,19.5 164.5,24.5 164.5,29.5C 159.5,29.5 154.5,29.5 149.5,29.5C 149.5,24.5 149.5,19.5 149.5,14.5 Z"/></g>
<g><path style="opacity:1" fill="#fefffe" d="M 299.5,14.5 C 299.5,19.5 299.5,24.5 299.5,29.5C 294.5,29.5 289.5,29.5 284.5,29.5C 284.5,24.5 284.5,19.5 284.5,14.5C 289.5,14.5 294.5,14.5 299.5,14.5 Z"/></g>
<g><path style="opacity:1" fill="#eeeeed" d="M 299.5,14.5 C 304.5,14.5 309.5,14.5 314.5,14.5C 314.5,19.5 314.5,24.5 314.5,29.5C 309.5,29.5 304.5,29.5 299.5,29.5C 299.5,24.5 299.5,19.5 299.5,14.5 Z"/></g>
<g><path style="opacity:1" fill="#fefffe" d="M 314.5,14.5 C 319.5,14.5 324.5,14.5 329.5,14.5C 329.5,19.5 329.5,24.5 329.5,29.5C 324.5,29.5 319.5,29.5 314.5,29.5C 314.5,24.5 314.5,19.5 314.5,14.5 Z"/></g>
<g><path style="opacity:1" fill="#eeeeed" d="M 329.5,14.5 C 334.5,14.5 339.5,14.5 344.5,14.5C 344.5,19.5 344.5,24.5 344.5,29.5C 339.5,29.5 334.5,29.5 329.5,29.5C 329.5,24.5 329.5,19.5 329.5,14.5 Z"/></g>
<g><path style="opacity:1" fill="#fefffe" d="M 344.5,14.5 C 349.5,14.5 354.5,14.5 359.5,14.5C 359.5,19.5 359.5,24.5 359.5,29.5C 354.5,29.5 349.5,29.5 344.5,29.5C 344.5,24.5 344.5,19.5 344.5,14.5 Z"/></g>
<g><path style="opacity:1" fill="#fefffe" d="M -0.5,29.5 C 4.5,29.5 9.5,29.5 14.5,29.5C 14.5,34.5 14.5,39.5 14.5,44.5C 9.5,44.5 4.5,44.5 -0.5,44.5C -0.5,39.5 -0.5,34.5 -0.5,29.5 Z"/></g>
<g><path style="opacity:1" fill="#eeeeed" d="M 14.5,29.5 C 19.5,29.5 24.5,29.5 29.5,29.5C 29.5,34.5 29.5,39.5 29.5,44.5C 24.5,44.5 19.5,44.5 14.5,44.5C 14.5,39.5 14.5,34.5 14.5,29.5 Z"/></g>
<g><path style="opacity:1" fill="#fefffe" d="M 29.5,29.5 C 34.5,29.5 39.5,29.5 44.5,29.5C 44.5,34.5 44.5,39.5 44.5,44.5C 39.5,44.5 34.5,44.5 29.5,44.5C 29.5,39.5 29.5,34.5 29.5,29.5 Z"/></g>
<g><path style="opacity:1" fill="#eeeeed" d="M 44.5,29.5 C 49.5,29.5 54.5,29.5 59.5,29.5C 59.5,34.5 59.5,39.5 59.5,44.5C 54.5,44.5 49.5,44.5 44.5,44.5C 44.5,39.5 44.5,34.5 44.5,29.5 Z"/></g>
<g><path style="opacity:1" fill="#fefffe" d="M 59.5,29.5 C 64.5,29.5 69.5,29.5 74.5,29.5C 74.5,34.5 74.5,39.5 74.5,44.5C 69.5,44.5 64.5,44.5 59.5,44.5C 59.5,39.5 59.5,34.5 59.5,29.5 Z"/></g>
<g><path style="opacity:1" fill="#eeeeed" d="M 74.5,29.5 C 79.5,29.5 84.5,29.5 89.5,29.5C 89.5,34.5 89.5,39.5 89.5,44.5C 84.5,44.5 79.5,44.5 74.5,44.5C 74.5,39.5 74.5,34.5 74.5,29.5 Z"/></g>
<g><path style="opacity:1" fill="#fefffe" d="M 89.5,29.5 C 94.5,29.5 99.5,29.5 104.5,29.5C 104.5,34.5 104.5,39.5 104.5,44.5C 99.5,44.5 94.5,44.5 89.5,44.5C 89.5,39.5 89.5,34.5 89.5,29.5 Z"/></g>
<g><path style="opacity:1" fill="#eeeeed" d="M 104.5,29.5 C 109.5,29.5 114.5,29.5 119.5,29.5C 119.5,34.5 119.5,39.5 119.5,44.5C 114.5,44.5 109.5,44.5 104.5,44.5C 104.5,39.5 104.5,34.5 104.5,29.5 Z"/></g>
<g><path style="opacity:1" fill="#fefffe" d="M 119.5,29.5 C 124.5,29.5 129.5,29.5 134.5,29.5C 134.5,34.5 134.5,39.5 134.5,44.5C 129.5,44.5 124.5,44.5 119.5,44.5C 119.5,39.5 119.5,34.5 119.5,29.5 Z"/></g>
<g><path style="opacity:1" fill="#eeeeed" d="M 134.5,29.5 C 139.5,29.5 144.5,29.5 149.5,29.5C 149.5,34.5 149.5,39.5 149.5,44.5C 144.5,44.5 139.5,44.5 134.5,44.5C 134.5,39.5 134.5,34.5 134.5,29.5 Z"/></g>
<g><path style="opacity:1" fill="#fefffe" d="M 284.5,29.5 C 284.5,34.5 284.5,39.5 284.5,44.5C 279.5,44.5 274.5,44.5 269.5,44.5C 269.5,39.5 269.5,34.5 269.5,29.5C 274.5,29.5 279.5,29.5 284.5,29.5 Z"/></g>
<g><path style="opacity:1" fill="#eeeeed" d="M 284.5,29.5 C 289.5,29.5 294.5,29.5 299.5,29.5C 299.5,34.5 299.5,39.5 299.5,44.5C 294.5,44.5 289.5,44.5 284.5,44.5C 284.5,39.5 284.5,34.5 284.5,29.5 Z"/></g>
<g><path style="opacity:1" fill="#fefffe" d="M 299.5,29.5 C 304.5,29.5 309.5,29.5 314.5,29.5C 314.5,34.5 314.5,39.5 314.5,44.5C 309.5,44.5 304.5,44.5 299.5,44.5C 299.5,39.5 299.5,34.5 299.5,29.5 Z"/></g>
<g><path style="opacity:1" fill="#eeeeed" d="M 314.5,29.5 C 319.5,29.5 324.5,29.5 329.5,29.5C 329.5,34.5 329.5,39.5 329.5,44.5C 324.5,44.5 319.5,44.5 314.5,44.5C 314.5,39.5 314.5,34.5 314.5,29.5 Z"/></g>
<g><path style="opacity:1" fill="#fefffe" d="M 329.5,29.5 C 334.5,29.5 339.5,29.5 344.5,29.5C 344.5,34.5 344.5,39.5 344.5,44.5C 339.5,44.5 334.5,44.5 329.5,44.5C 329.5,39.5 329.5,34.5 329.5,29.5 Z"/></g>
<g><path style="opacity:1" fill="#eeeeed" d="M 344.5,29.5 C 349.5,29.5 354.5,29.5 359.5,29.5C 359.5,34.5 359.5,39.5 359.5,44.5C 354.5,44.5 349.5,44.5 344.5,44.5C 344.5,39.5 344.5,34.5 344.5,29.5 Z"/></g>
<g><path style="opacity:1" fill="#eeeeed" d="M -0.5,44.5 C 4.5,44.5 9.5,44.5 14.5,44.5C 14.5,49.5 14.5,54.5 14.5,59.5C 9.5,59.5 4.5,59.5 -0.5,59.5C -0.5,54.5 -0.5,49.5 -0.5,44.5 Z"/></g>
<g><path style="opacity:1" fill="#fefffe" d="M 14.5,44.5 C 19.5,44.5 24.5,44.5 29.5,44.5C 29.5,49.5 29.5,54.5 29.5,59.5C 24.5,59.5 19.5,59.5 14.5,59.5C 14.5,54.5 14.5,49.5 14.5,44.5 Z"/></g>
<g><path style="opacity:1" fill="#eeeeed" d="M 29.5,44.5 C 34.5,44.5 39.5,44.5 44.5,44.5C 44.5,49.5 44.5,54.5 44.5,59.5C 39.5,59.5 34.5,59.5 29.5,59.5C 29.5,54.5 29.5,49.5 29.5,44.5 Z"/></g>
<g><path style="opacity:1" fill="#fefffe" d="M 44.5,44.5 C 49.5,44.5 54.5,44.5 59.5,44.5C 59.5,49.5 59.5,54.5 59.5,59.5C 54.5,59.5 49.5,59.5 44.5,59.5C 44.5,54.5 44.5,49.5 44.5,44.5 Z"/></g>
<g><path style="opacity:1" fill="#eeeeed" d="M 59.5,44.5 C 64.5,44.5 69.5,44.5 74.5,44.5C 74.5,49.5 74.5,54.5 74.5,59.5C 69.5,59.5 64.5,59.5 59.5,59.5C 59.5,54.5 59.5,49.5 59.5,44.5 Z"/></g>
<g><path style="opacity:1" fill="#fefffe" d="M 74.5,44.5 C 79.5,44.5 84.5,44.5 89.5,44.5C 89.5,49.5 89.5,54.5 89.5,59.5C 84.5,59.5 79.5,59.5 74.5,59.5C 74.5,54.5 74.5,49.5 74.5,44.5 Z"/></g>
<g><path style="opacity:1" fill="#eeeeed" d="M 89.5,44.5 C 94.5,44.5 99.5,44.5 104.5,44.5C 104.5,49.5 104.5,54.5 104.5,59.5C 99.5,59.5 94.5,59.5 89.5,59.5C 89.5,54.5 89.5,49.5 89.5,44.5 Z"/></g>
<g><path style="opacity:1" fill="#fefffe" d="M 104.5,44.5 C 109.5,44.5 114.5,44.5 119.5,44.5C 119.5,49.5 119.5,54.5 119.5,59.5C 114.5,59.5 109.5,59.5 104.5,59.5C 104.5,54.5 104.5,49.5 104.5,44.5 Z"/></g>
<g><path style="opacity:1" fill="#eeeeed" d="M 119.5,44.5 C 124.5,44.5 129.5,44.5 134.5,44.5C 134.5,49.5 134.5,54.5 134.5,59.5C 129.5,59.5 124.5,59.5 119.5,59.5C 119.5,54.5 119.5,49.5 119.5,44.5 Z"/></g>
<g><path style="opacity:1" fill="#fcfcfc" d="M 179.5,-0.5 C 187.833,-0.5 196.167,-0.5 204.5,-0.5C 159.833,44.5 115.167,89.5 70.5,134.5C 66.8333,134.5 63.1667,134.5 59.5,134.5C 59.5,129.5 59.5,124.5 59.5,119.5C 64.5,119.5 69.5,119.5 74.5,119.5C 74.5,114.5 74.5,109.5 74.5,104.5C 79.5,104.5 84.5,104.5 89.5,104.5C 89.5,99.5 89.5,94.5 89.5,89.5C 94.5,89.5 99.5,89.5 104.5,89.5C 104.5,84.5 104.5,79.5 104.5,74.5C 109.5,74.5 114.5,74.5 119.5,74.5C 119.5,69.5 119.5,64.5 119.5,59.5C 124.5,59.5 129.5,59.5 134.5,59.5C 134.5,54.5 134.5,49.5 134.5,44.5C 139.5,44.5 144.5,44.5 149.5,44.5C 149.5,39.5 149.5,34.5 149.5,29.5C 154.5,29.5 159.5,29.5 164.5,29.5C 164.5,24.5 164.5,19.5 164.5,14.5C 169.5,14.5 174.5,14.5 179.5,14.5C 179.5,9.5 179.5,4.5 179.5,-0.5 Z"/></g>
<g><path style="opacity:1" fill="#fefffe" d="M 269.5,44.5 C 269.5,49.5 269.5,54.5 269.5,59.5C 264.5,59.5 259.5,59.5 254.5,59.5C 254.5,54.5 254.5,49.5 254.5,44.5C 259.5,44.5 264.5,44.5 269.5,44.5 Z"/></g>
<g><path style="opacity:1" fill="#eeeeed" d="M 269.5,44.5 C 274.5,44.5 279.5,44.5 284.5,44.5C 284.5,49.5 284.5,54.5 284.5,59.5C 279.5,59.5 274.5,59.5 269.5,59.5C 269.5,54.5 269.5,49.5 269.5,44.5 Z"/></g>
<g><path style="opacity:1" fill="#fefffe" d="M 284.5,44.5 C 289.5,44.5 294.5,44.5 299.5,44.5C 299.5,49.5 299.5,54.5 299.5,59.5C 294.5,59.5 289.5,59.5 284.5,59.5C 284.5,54.5 284.5,49.5 284.5,44.5 Z"/></g>
<g><path style="opacity:1" fill="#eeeeed" d="M 299.5,44.5 C 304.5,44.5 309.5,44.5 314.5,44.5C 314.5,49.5 314.5,54.5 314.5,59.5C 309.5,59.5 304.5,59.5 299.5,59.5C 299.5,54.5 299.5,49.5 299.5,44.5 Z"/></g>
<g><path style="opacity:1" fill="#fefffe" d="M 314.5,44.5 C 319.5,44.5 324.5,44.5 329.5,44.5C 329.5,49.5 329.5,54.5 329.5,59.5C 324.5,59.5 319.5,59.5 314.5,59.5C 314.5,54.5 314.5,49.5 314.5,44.5 Z"/></g>
<g><path style="opacity:1" fill="#eeeeed" d="M 329.5,44.5 C 334.5,44.5 339.5,44.5 344.5,44.5C 344.5,49.5 344.5,54.5 344.5,59.5C 339.5,59.5 334.5,59.5 329.5,59.5C 329.5,54.5 329.5,49.5 329.5,44.5 Z"/></g>
<g><path style="opacity:1" fill="#fefffe" d="M 344.5,44.5 C 349.5,44.5 354.5,44.5 359.5,44.5C 359.5,49.5 359.5,54.5 359.5,59.5C 354.5,59.5 349.5,59.5 344.5,59.5C 344.5,54.5 344.5,49.5 344.5,44.5 Z"/></g>
<g><path style="opacity:1" fill="#fefffe" d="M -0.5,59.5 C 4.5,59.5 9.5,59.5 14.5,59.5C 14.5,64.5 14.5,69.5 14.5,74.5C 9.5,74.5 4.5,74.5 -0.5,74.5C -0.5,69.5 -0.5,64.5 -0.5,59.5 Z"/></g>
<g><path style="opacity:1" fill="#eeeeed" d="M 14.5,59.5 C 19.5,59.5 24.5,59.5 29.5,59.5C 29.5,64.5 29.5,69.5 29.5,74.5C 24.5,74.5 19.5,74.5 14.5,74.5C 14.5,69.5 14.5,64.5 14.5,59.5 Z"/></g>
<g><path style="opacity:1" fill="#fefffe" d="M 29.5,59.5 C 34.5,59.5 39.5,59.5 44.5,59.5C 44.5,64.5 44.5,69.5 44.5,74.5C 39.5,74.5 34.5,74.5 29.5,74.5C 29.5,69.5 29.5,64.5 29.5,59.5 Z"/></g>
<g><path style="opacity:1" fill="#eeeeed" d="M 44.5,59.5 C 49.5,59.5 54.5,59.5 59.5,59.5C 59.5,64.5 59.5,69.5 59.5,74.5C 54.5,74.5 49.5,74.5 44.5,74.5C 44.5,69.5 44.5,64.5 44.5,59.5 Z"/></g>
<g><path style="opacity:1" fill="#fefffe" d="M 59.5,59.5 C 64.5,59.5 69.5,59.5 74.5,59.5C 74.5,64.5 74.5,69.5 74.5,74.5C 69.5,74.5 64.5,74.5 59.5,74.5C 59.5,69.5 59.5,64.5 59.5,59.5 Z"/></g>
<g><path style="opacity:1" fill="#eeeeed" d="M 74.5,59.5 C 79.5,59.5 84.5,59.5 89.5,59.5C 89.5,64.5 89.5,69.5 89.5,74.5C 84.5,74.5 79.5,74.5 74.5,74.5C 74.5,69.5 74.5,64.5 74.5,59.5 Z"/></g>
<g><path style="opacity:1" fill="#fefffe" d="M 89.5,59.5 C 94.5,59.5 99.5,59.5 104.5,59.5C 104.5,64.5 104.5,69.5 104.5,74.5C 99.5,74.5 94.5,74.5 89.5,74.5C 89.5,69.5 89.5,64.5 89.5,59.5 Z"/></g>
<g><path style="opacity:1" fill="#eeeeed" d="M 104.5,59.5 C 109.5,59.5 114.5,59.5 119.5,59.5C 119.5,64.5 119.5,69.5 119.5,74.5C 114.5,74.5 109.5,74.5 104.5,74.5C 104.5,69.5 104.5,64.5 104.5,59.5 Z"/></g>
<g><path style="opacity:1" fill="#fefffe" d="M 254.5,59.5 C 254.5,64.5 254.5,69.5 254.5,74.5C 249.5,74.5 244.5,74.5 239.5,74.5C 239.5,69.5 239.5,64.5 239.5,59.5C 244.5,59.5 249.5,59.5 254.5,59.5 Z"/></g>
<g><path style="opacity:1" fill="#eeeeed" d="M 254.5,59.5 C 259.5,59.5 264.5,59.5 269.5,59.5C 269.5,64.5 269.5,69.5 269.5,74.5C 264.5,74.5 259.5,74.5 254.5,74.5C 254.5,69.5 254.5,64.5 254.5,59.5 Z"/></g>
<g><path style="opacity:1" fill="#fefffe" d="M 269.5,59.5 C 274.5,59.5 279.5,59.5 284.5,59.5C 284.5,64.5 284.5,69.5 284.5,74.5C 279.5,74.5 274.5,74.5 269.5,74.5C 269.5,69.5 269.5,64.5 269.5,59.5 Z"/></g>
<g><path style="opacity:1" fill="#eeeeed" d="M 284.5,59.5 C 289.5,59.5 294.5,59.5 299.5,59.5C 299.5,64.5 299.5,69.5 299.5,74.5C 294.5,74.5 289.5,74.5 284.5,74.5C 284.5,69.5 284.5,64.5 284.5,59.5 Z"/></g>
<g><path style="opacity:1" fill="#fefffe" d="M 299.5,59.5 C 304.5,59.5 309.5,59.5 314.5,59.5C 314.5,64.5 314.5,69.5 314.5,74.5C 309.5,74.5 304.5,74.5 299.5,74.5C 299.5,69.5 299.5,64.5 299.5,59.5 Z"/></g>
<g><path style="opacity:1" fill="#eeeeed" d="M 314.5,59.5 C 319.5,59.5 324.5,59.5 329.5,59.5C 329.5,64.5 329.5,69.5 329.5,74.5C 324.5,74.5 319.5,74.5 314.5,74.5C 314.5,69.5 314.5,64.5 314.5,59.5 Z"/></g>
<g><path style="opacity:1" fill="#fefffe" d="M 329.5,59.5 C 334.5,59.5 339.5,59.5 344.5,59.5C 344.5,64.5 344.5,69.5 344.5,74.5C 339.5,74.5 334.5,74.5 329.5,74.5C 329.5,69.5 329.5,64.5 329.5,59.5 Z"/></g>
<g><path style="opacity:1" fill="#eeeeed" d="M 344.5,59.5 C 349.5,59.5 354.5,59.5 359.5,59.5C 359.5,64.5 359.5,69.5 359.5,74.5C 354.5,74.5 349.5,74.5 344.5,74.5C 344.5,69.5 344.5,64.5 344.5,59.5 Z"/></g>
<g><path style="opacity:1" fill="#eeeeed" d="M -0.5,74.5 C 4.5,74.5 9.5,74.5 14.5,74.5C 14.5,79.5 14.5,84.5 14.5,89.5C 9.5,89.5 4.5,89.5 -0.5,89.5C -0.5,84.5 -0.5,79.5 -0.5,74.5 Z"/></g>
<g><path style="opacity:1" fill="#fefffe" d="M 14.5,74.5 C 19.5,74.5 24.5,74.5 29.5,74.5C 29.5,79.5 29.5,84.5 29.5,89.5C 24.5,89.5 19.5,89.5 14.5,89.5C 14.5,84.5 14.5,79.5 14.5,74.5 Z"/></g>
<g><path style="opacity:1" fill="#eeeeed" d="M 29.5,74.5 C 34.5,74.5 39.5,74.5 44.5,74.5C 44.5,79.5 44.5,84.5 44.5,89.5C 39.5,89.5 34.5,89.5 29.5,89.5C 29.5,84.5 29.5,79.5 29.5,74.5 Z"/></g>
<g><path style="opacity:1" fill="#fefffe" d="M 44.5,74.5 C 49.5,74.5 54.5,74.5 59.5,74.5C 59.5,79.5 59.5,84.5 59.5,89.5C 54.5,89.5 49.5,89.5 44.5,89.5C 44.5,84.5 44.5,79.5 44.5,74.5 Z"/></g>
<g><path style="opacity:1" fill="#eeeeed" d="M 59.5,74.5 C 64.5,74.5 69.5,74.5 74.5,74.5C 74.5,79.5 74.5,84.5 74.5,89.5C 69.5,89.5 64.5,89.5 59.5,89.5C 59.5,84.5 59.5,79.5 59.5,74.5 Z"/></g>
<g><path style="opacity:1" fill="#fefffe" d="M 74.5,74.5 C 79.5,74.5 84.5,74.5 89.5,74.5C 89.5,79.5 89.5,84.5 89.5,89.5C 84.5,89.5 79.5,89.5 74.5,89.5C 74.5,84.5 74.5,79.5 74.5,74.5 Z"/></g>
<g><path style="opacity:1" fill="#eeeeed" d="M 89.5,74.5 C 94.5,74.5 99.5,74.5 104.5,74.5C 104.5,79.5 104.5,84.5 104.5,89.5C 99.5,89.5 94.5,89.5 89.5,89.5C 89.5,84.5 89.5,79.5 89.5,74.5 Z"/></g>
<g><path style="opacity:1" fill="#f1f0f0" d="M 288.5,-0.5 C 292.167,-0.5 295.833,-0.5 299.5,-0.5C 299.5,4.5 299.5,9.5 299.5,14.5C 294.5,14.5 289.5,14.5 284.5,14.5C 284.5,19.5 284.5,24.5 284.5,29.5C 279.5,29.5 274.5,29.5 269.5,29.5C 269.5,34.5 269.5,39.5 269.5,44.5C 264.5,44.5 259.5,44.5 254.5,44.5C 254.5,49.5 254.5,54.5 254.5,59.5C 249.5,59.5 244.5,59.5 239.5,59.5C 239.5,64.5 239.5,69.5 239.5,74.5C 234.5,74.5 229.5,74.5 224.5,74.5C 224.5,79.5 224.5,84.5 224.5,89.5C 219.5,89.5 214.5,89.5 209.5,89.5C 209.5,94.5 209.5,99.5 209.5,104.5C 204.5,104.5 199.5,104.5 194.5,104.5C 194.5,109.5 194.5,114.5 194.5,119.5C 189.5,119.5 184.5,119.5 179.5,119.5C 179.5,124.5 179.5,129.5 179.5,134.5C 174.5,134.5 169.5,134.5 164.5,134.5C 164.5,139.5 164.5,144.5 164.5,149.5C 159.5,149.5 154.5,149.5 149.5,149.5C 149.5,154.5 149.5,159.5 149.5,164.5C 144.5,164.5 139.5,164.5 134.5,164.5C 134.5,169.5 134.5,174.5 134.5,179.5C 129.5,179.5 124.5,179.5 119.5,179.5C 119.5,184.5 119.5,189.5 119.5,194.5C 114.5,194.5 109.5,194.5 104.5,194.5C 104.5,189.5 104.5,184.5 104.5,179.5C 99.5,179.5 94.5,179.5 89.5,179.5C 89.5,174.5 89.5,169.5 89.5,164.5C 84.5,164.5 79.5,164.5 74.5,164.5C 74.5,159.5 74.5,154.5 74.5,149.5C 69.5,149.5 64.5,149.5 59.5,149.5C 59.5,144.5 59.5,139.5 59.5,134.5C 63.1667,134.5 66.8333,134.5 70.5,134.5C 83.6314,148.132 96.9648,161.632 110.5,175C 111.5,175.667 112.5,175.667 113.5,175C 172.035,116.632 230.368,58.1321 288.5,-0.5 Z"/></g>
<g><path style="opacity:1" fill="#fefffe" d="M 239.5,74.5 C 239.5,79.5 239.5,84.5 239.5,89.5C 234.5,89.5 229.5,89.5 224.5,89.5C 224.5,84.5 224.5,79.5 224.5,74.5C 229.5,74.5 234.5,74.5 239.5,74.5 Z"/></g>
<g><path style="opacity:1" fill="#eeeeed" d="M 239.5,74.5 C 244.5,74.5 249.5,74.5 254.5,74.5C 254.5,79.5 254.5,84.5 254.5,89.5C 249.5,89.5 244.5,89.5 239.5,89.5C 239.5,84.5 239.5,79.5 239.5,74.5 Z"/></g>
<g><path style="opacity:1" fill="#fefffe" d="M 254.5,74.5 C 259.5,74.5 264.5,74.5 269.5,74.5C 269.5,79.5 269.5,84.5 269.5,89.5C 264.5,89.5 259.5,89.5 254.5,89.5C 254.5,84.5 254.5,79.5 254.5,74.5 Z"/></g>
<g><path style="opacity:1" fill="#eeeeed" d="M 269.5,74.5 C 274.5,74.5 279.5,74.5 284.5,74.5C 284.5,79.5 284.5,84.5 284.5,89.5C 279.5,89.5 274.5,89.5 269.5,89.5C 269.5,84.5 269.5,79.5 269.5,74.5 Z"/></g>
<g><path style="opacity:1" fill="#fefffe" d="M 284.5,74.5 C 289.5,74.5 294.5,74.5 299.5,74.5C 299.5,79.5 299.5,84.5 299.5,89.5C 294.5,89.5 289.5,89.5 284.5,89.5C 284.5,84.5 284.5,79.5 284.5,74.5 Z"/></g>
<g><path style="opacity:1" fill="#eeeeed" d="M 299.5,74.5 C 304.5,74.5 309.5,74.5 314.5,74.5C 314.5,79.5 314.5,84.5 314.5,89.5C 309.5,89.5 304.5,89.5 299.5,89.5C 299.5,84.5 299.5,79.5 299.5,74.5 Z"/></g>
<g><path style="opacity:1" fill="#fefffe" d="M 314.5,74.5 C 319.5,74.5 324.5,74.5 329.5,74.5C 329.5,79.5 329.5,84.5 329.5,89.5C 324.5,89.5 319.5,89.5 314.5,89.5C 314.5,84.5 314.5,79.5 314.5,74.5 Z"/></g>
<g><path style="opacity:1" fill="#eeeeed" d="M 329.5,74.5 C 334.5,74.5 339.5,74.5 344.5,74.5C 344.5,79.5 344.5,84.5 344.5,89.5C 339.5,89.5 334.5,89.5 329.5,89.5C 329.5,84.5 329.5,79.5 329.5,74.5 Z"/></g>
<g><path style="opacity:1" fill="#fefffe" d="M 344.5,74.5 C 349.5,74.5 354.5,74.5 359.5,74.5C 359.5,79.5 359.5,84.5 359.5,89.5C 354.5,89.5 349.5,89.5 344.5,89.5C 344.5,84.5 344.5,79.5 344.5,74.5 Z"/></g>
<g><path style="opacity:1" fill="#fefffe" d="M -0.5,89.5 C 4.5,89.5 9.5,89.5 14.5,89.5C 14.5,94.5 14.5,99.5 14.5,104.5C 9.5,104.5 4.5,104.5 -0.5,104.5C -0.5,99.5 -0.5,94.5 -0.5,89.5 Z"/></g>
<g><path style="opacity:1" fill="#eeeeed" d="M 14.5,89.5 C 19.5,89.5 24.5,89.5 29.5,89.5C 29.5,94.5 29.5,99.5 29.5,104.5C 24.5,104.5 19.5,104.5 14.5,104.5C 14.5,99.5 14.5,94.5 14.5,89.5 Z"/></g>
<g><path style="opacity:1" fill="#fefffe" d="M 29.5,89.5 C 34.5,89.5 39.5,89.5 44.5,89.5C 44.5,94.5 44.5,99.5 44.5,104.5C 39.5,104.5 34.5,104.5 29.5,104.5C 29.5,99.5 29.5,94.5 29.5,89.5 Z"/></g>
<g><path style="opacity:1" fill="#eeeeed" d="M 44.5,89.5 C 49.5,89.5 54.5,89.5 59.5,89.5C 59.5,94.5 59.5,99.5 59.5,104.5C 54.5,104.5 49.5,104.5 44.5,104.5C 44.5,99.5 44.5,94.5 44.5,89.5 Z"/></g>
<g><path style="opacity:1" fill="#fefffe" d="M 59.5,89.5 C 64.5,89.5 69.5,89.5 74.5,89.5C 74.5,94.5 74.5,99.5 74.5,104.5C 69.5,104.5 64.5,104.5 59.5,104.5C 59.5,99.5 59.5,94.5 59.5,89.5 Z"/></g>
<g><path style="opacity:1" fill="#eeeeed" d="M 74.5,89.5 C 79.5,89.5 84.5,89.5 89.5,89.5C 89.5,94.5 89.5,99.5 89.5,104.5C 84.5,104.5 79.5,104.5 74.5,104.5C 74.5,99.5 74.5,94.5 74.5,89.5 Z"/></g>
<g><path style="opacity:1" fill="#fefffe" d="M 224.5,89.5 C 224.5,94.5 224.5,99.5 224.5,104.5C 219.5,104.5 214.5,104.5 209.5,104.5C 209.5,99.5 209.5,94.5 209.5,89.5C 214.5,89.5 219.5,89.5 224.5,89.5 Z"/></g>
<g><path style="opacity:1" fill="#eeeeed" d="M 224.5,89.5 C 229.5,89.5 234.5,89.5 239.5,89.5C 239.5,94.5 239.5,99.5 239.5,104.5C 234.5,104.5 229.5,104.5 224.5,104.5C 224.5,99.5 224.5,94.5 224.5,89.5 Z"/></g>
<g><path style="opacity:1" fill="#fefffe" d="M 239.5,89.5 C 244.5,89.5 249.5,89.5 254.5,89.5C 254.5,94.5 254.5,99.5 254.5,104.5C 249.5,104.5 244.5,104.5 239.5,104.5C 239.5,99.5 239.5,94.5 239.5,89.5 Z"/></g>
<g><path style="opacity:1" fill="#eeeeed" d="M 254.5,89.5 C 259.5,89.5 264.5,89.5 269.5,89.5C 269.5,94.5 269.5,99.5 269.5,104.5C 264.5,104.5 259.5,104.5 254.5,104.5C 254.5,99.5 254.5,94.5 254.5,89.5 Z"/></g>
<g><path style="opacity:1" fill="#fefffe" d="M 269.5,89.5 C 274.5,89.5 279.5,89.5 284.5,89.5C 284.5,94.5 284.5,99.5 284.5,104.5C 279.5,104.5 274.5,104.5 269.5,104.5C 269.5,99.5 269.5,94.5 269.5,89.5 Z"/></g>
<g><path style="opacity:1" fill="#eeeeed" d="M 284.5,89.5 C 289.5,89.5 294.5,89.5 299.5,89.5C 299.5,94.5 299.5,99.5 299.5,104.5C 294.5,104.5 289.5,104.5 284.5,104.5C 284.5,99.5 284.5,94.5 284.5,89.5 Z"/></g>
<g><path style="opacity:1" fill="#fefffe" d="M 299.5,89.5 C 304.5,89.5 309.5,89.5 314.5,89.5C 314.5,94.5 314.5,99.5 314.5,104.5C 309.5,104.5 304.5,104.5 299.5,104.5C 299.5,99.5 299.5,94.5 299.5,89.5 Z"/></g>
<g><path style="opacity:1" fill="#eeeeed" d="M 314.5,89.5 C 319.5,89.5 324.5,89.5 329.5,89.5C 329.5,94.5 329.5,99.5 329.5,104.5C 324.5,104.5 319.5,104.5 314.5,104.5C 314.5,99.5 314.5,94.5 314.5,89.5 Z"/></g>
<g><path style="opacity:1" fill="#fefffe" d="M 329.5,89.5 C 334.5,89.5 339.5,89.5 344.5,89.5C 344.5,94.5 344.5,99.5 344.5,104.5C 339.5,104.5 334.5,104.5 329.5,104.5C 329.5,99.5 329.5,94.5 329.5,89.5 Z"/></g>
<g><path style="opacity:1" fill="#eeeeed" d="M 344.5,89.5 C 349.5,89.5 354.5,89.5 359.5,89.5C 359.5,94.5 359.5,99.5 359.5,104.5C 354.5,104.5 349.5,104.5 344.5,104.5C 344.5,99.5 344.5,94.5 344.5,89.5 Z"/></g>
<g><path style="opacity:1" fill="#eeeeed" d="M -0.5,104.5 C 4.5,104.5 9.5,104.5 14.5,104.5C 14.5,109.5 14.5,114.5 14.5,119.5C 9.5,119.5 4.5,119.5 -0.5,119.5C -0.5,114.5 -0.5,109.5 -0.5,104.5 Z"/></g>
<g><path style="opacity:1" fill="#fefffe" d="M 14.5,104.5 C 19.5,104.5 24.5,104.5 29.5,104.5C 29.5,109.5 29.5,114.5 29.5,119.5C 24.5,119.5 19.5,119.5 14.5,119.5C 14.5,114.5 14.5,109.5 14.5,104.5 Z"/></g>
<g><path style="opacity:1" fill="#eeeeed" d="M 29.5,104.5 C 34.5,104.5 39.5,104.5 44.5,104.5C 44.5,109.5 44.5,114.5 44.5,119.5C 39.5,119.5 34.5,119.5 29.5,119.5C 29.5,114.5 29.5,109.5 29.5,104.5 Z"/></g>
<g><path style="opacity:1" fill="#fefffe" d="M 44.5,104.5 C 49.5,104.5 54.5,104.5 59.5,104.5C 59.5,109.5 59.5,114.5 59.5,119.5C 54.5,119.5 49.5,119.5 44.5,119.5C 44.5,114.5 44.5,109.5 44.5,104.5 Z"/></g>
<g><path style="opacity:1" fill="#eeeeed" d="M 59.5,104.5 C 64.5,104.5 69.5,104.5 74.5,104.5C 74.5,109.5 74.5,114.5 74.5,119.5C 69.5,119.5 64.5,119.5 59.5,119.5C 59.5,114.5 59.5,109.5 59.5,104.5 Z"/></g>
<g><path style="opacity:1" fill="#fefffe" d="M -0.5,119.5 C 4.5,119.5 9.5,119.5 14.5,119.5C 14.5,124.5 14.5,129.5 14.5,134.5C 9.5,134.5 4.5,134.5 -0.5,134.5C -0.5,129.5 -0.5,124.5 -0.5,119.5 Z"/></g>
<g><path style="opacity:1" fill="#eeeeed" d="M 14.5,119.5 C 19.5,119.5 24.5,119.5 29.5,119.5C 29.5,124.5 29.5,129.5 29.5,134.5C 24.5,134.5 19.5,134.5 14.5,134.5C 14.5,129.5 14.5,124.5 14.5,119.5 Z"/></g>
<g><path style="opacity:1" fill="#fefffe" d="M 29.5,119.5 C 34.5,119.5 39.5,119.5 44.5,119.5C 44.5,124.5 44.5,129.5 44.5,134.5C 39.5,134.5 34.5,134.5 29.5,134.5C 29.5,129.5 29.5,124.5 29.5,119.5 Z"/></g>
<g><path style="opacity:1" fill="#eeeeed" d="M 44.5,119.5 C 49.5,119.5 54.5,119.5 59.5,119.5C 59.5,124.5 59.5,129.5 59.5,134.5C 54.5,134.5 49.5,134.5 44.5,134.5C 44.5,129.5 44.5,124.5 44.5,119.5 Z"/></g>
<g><path style="opacity:1" fill="#f7f6f6" d="M 209.5,104.5 C 214.5,104.5 219.5,104.5 224.5,104.5C 229.5,104.5 234.5,104.5 239.5,104.5C 244.5,104.5 249.5,104.5 254.5,104.5C 259.5,104.5 264.5,104.5 269.5,104.5C 274.5,104.5 279.5,104.5 284.5,104.5C 289.5,104.5 294.5,104.5 299.5,104.5C 304.5,104.5 309.5,104.5 314.5,104.5C 319.5,104.5 324.5,104.5 329.5,104.5C 334.5,104.5 339.5,104.5 344.5,104.5C 349.5,104.5 354.5,104.5 359.5,104.5C 359.5,159.5 359.5,214.5 359.5,269.5C 339.5,269.5 319.5,269.5 299.5,269.5C 299.5,264.5 299.5,259.5 299.5,254.5C 299.5,249.5 299.5,244.5 299.5,239.5C 299.5,234.5 299.5,229.5 299.5,224.5C 299.5,219.5 299.5,214.5 299.5,209.5C 299.5,204.5 299.5,199.5 299.5,194.5C 299.5,189.5 299.5,184.5 299.5,179.5C 299.5,174.5 299.5,169.5 299.5,164.5C 299.5,159.5 299.5,154.5 299.5,149.5C 299.5,144.5 299.5,139.5 299.5,134.5C 299.5,129.5 299.5,124.5 299.5,119.5C 294.5,119.5 289.5,119.5 284.5,119.5C 284.5,120.833 284.5,122.167 284.5,123.5C 258.165,123.333 231.831,123.5 205.5,124C 201.964,127.704 198.298,131.204 194.5,134.5C 189.5,134.5 184.5,134.5 179.5,134.5C 179.5,129.5 179.5,124.5 179.5,119.5C 184.5,119.5 189.5,119.5 194.5,119.5C 194.5,114.5 194.5,109.5 194.5,104.5C 199.5,104.5 204.5,104.5 209.5,104.5 Z"/></g>
<g><path style="opacity:1" fill="#68b6f6" d="M 284.5,123.5 C 285.873,123.343 287.207,123.51 288.5,124C 264.271,148.062 240.271,172.228 216.5,196.5C 216.5,196.833 216.5,197.167 216.5,197.5C 216.167,197.5 215.833,197.5 215.5,197.5C 202.115,183.114 188.115,169.447 173.5,156.5C 175.5,154.167 177.5,151.833 179.5,149.5C 184.833,144.833 189.833,139.833 194.5,134.5C 198.298,131.204 201.964,127.704 205.5,124C 231.831,123.5 258.165,123.333 284.5,123.5 Z"/></g>
<g><path style="opacity:1" fill="#eeeeed" d="M -0.5,134.5 C 4.5,134.5 9.5,134.5 14.5,134.5C 14.5,139.5 14.5,144.5 14.5,149.5C 9.5,149.5 4.5,149.5 -0.5,149.5C -0.5,144.5 -0.5,139.5 -0.5,134.5 Z"/></g>
<g><path style="opacity:1" fill="#fefffe" d="M 14.5,134.5 C 19.5,134.5 24.5,134.5 29.5,134.5C 29.5,139.5 29.5,144.5 29.5,149.5C 24.5,149.5 19.5,149.5 14.5,149.5C 14.5,144.5 14.5,139.5 14.5,134.5 Z"/></g>
<g><path style="opacity:1" fill="#eeeeed" d="M 29.5,134.5 C 34.5,134.5 39.5,134.5 44.5,134.5C 44.5,139.5 44.5,144.5 44.5,149.5C 39.5,149.5 34.5,149.5 29.5,149.5C 29.5,144.5 29.5,139.5 29.5,134.5 Z"/></g>
<g><path style="opacity:1" fill="#fefffe" d="M 44.5,134.5 C 49.5,134.5 54.5,134.5 59.5,134.5C 59.5,139.5 59.5,144.5 59.5,149.5C 54.5,149.5 49.5,149.5 44.5,149.5C 44.5,144.5 44.5,139.5 44.5,134.5 Z"/></g>
<g><path style="opacity:1" fill="#fefffe" d="M 179.5,134.5 C 179.5,139.5 179.5,144.5 179.5,149.5C 174.5,149.5 169.5,149.5 164.5,149.5C 164.5,144.5 164.5,139.5 164.5,134.5C 169.5,134.5 174.5,134.5 179.5,134.5 Z"/></g>
<g><path style="opacity:1" fill="#eeeeed" d="M 179.5,134.5 C 184.5,134.5 189.5,134.5 194.5,134.5C 189.833,139.833 184.833,144.833 179.5,149.5C 179.5,144.5 179.5,139.5 179.5,134.5 Z"/></g>
<g><path style="opacity:1" fill="#fefffe" d="M 299.5,134.5 C 299.5,139.5 299.5,144.5 299.5,149.5C 294.5,149.5 289.5,149.5 284.5,149.5C 284.5,144.5 284.5,139.5 284.5,134.5C 289.5,134.5 294.5,134.5 299.5,134.5 Z"/></g>
<g><path style="opacity:1" fill="#fefffe" d="M -0.5,149.5 C 4.5,149.5 9.5,149.5 14.5,149.5C 14.5,154.5 14.5,159.5 14.5,164.5C 9.5,164.5 4.5,164.5 -0.5,164.5C -0.5,159.5 -0.5,154.5 -0.5,149.5 Z"/></g>
<g><path style="opacity:1" fill="#eeeeed" d="M 14.5,149.5 C 19.5,149.5 24.5,149.5 29.5,149.5C 29.5,154.5 29.5,159.5 29.5,164.5C 24.5,164.5 19.5,164.5 14.5,164.5C 14.5,159.5 14.5,154.5 14.5,149.5 Z"/></g>
<g><path style="opacity:1" fill="#fefffe" d="M 29.5,149.5 C 34.5,149.5 39.5,149.5 44.5,149.5C 44.5,154.5 44.5,159.5 44.5,164.5C 39.5,164.5 34.5,164.5 29.5,164.5C 29.5,159.5 29.5,154.5 29.5,149.5 Z"/></g>
<g><path style="opacity:1" fill="#eeeeed" d="M 44.5,149.5 C 49.5,149.5 54.5,149.5 59.5,149.5C 59.5,154.5 59.5,159.5 59.5,164.5C 54.5,164.5 49.5,164.5 44.5,164.5C 44.5,159.5 44.5,154.5 44.5,149.5 Z"/></g>
<g><path style="opacity:1" fill="#fefffe" d="M 59.5,149.5 C 64.5,149.5 69.5,149.5 74.5,149.5C 74.5,154.5 74.5,159.5 74.5,164.5C 69.5,164.5 64.5,164.5 59.5,164.5C 59.5,159.5 59.5,154.5 59.5,149.5 Z"/></g>
<g><path style="opacity:1" fill="#fefffe" d="M 164.5,149.5 C 164.5,154.5 164.5,159.5 164.5,164.5C 159.5,164.5 154.5,164.5 149.5,164.5C 149.5,159.5 149.5,154.5 149.5,149.5C 154.5,149.5 159.5,149.5 164.5,149.5 Z"/></g>
<g><path style="opacity:1" fill="#efeeee" d="M 164.5,149.5 C 169.5,149.5 174.5,149.5 179.5,149.5C 177.5,151.833 175.5,154.167 173.5,156.5C 170.5,159.167 167.5,161.833 164.5,164.5C 164.5,159.5 164.5,154.5 164.5,149.5 Z"/></g>
<g><path style="opacity:1" fill="#fefffe" d="M 284.5,149.5 C 284.5,154.5 284.5,159.5 284.5,164.5C 279.5,164.5 274.5,164.5 269.5,164.5C 269.5,159.5 269.5,154.5 269.5,149.5C 274.5,149.5 279.5,149.5 284.5,149.5 Z"/></g>
<g><path style="opacity:1" fill="#eeeeed" d="M 284.5,149.5 C 289.5,149.5 294.5,149.5 299.5,149.5C 299.5,154.5 299.5,159.5 299.5,164.5C 294.5,164.5 289.5,164.5 284.5,164.5C 284.5,159.5 284.5,154.5 284.5,149.5 Z"/></g>
<g><path style="opacity:1" fill="#41a5f6" d="M 173.5,156.5 C 188.115,169.447 202.115,183.114 215.5,197.5C 201.833,210.833 188.167,224.167 174.5,237.5C 160.868,224.369 147.368,211.035 134,197.5C 133.53,196.423 133.697,195.423 134.5,194.5C 139.833,189.833 144.833,184.833 149.5,179.5C 154.833,174.833 159.833,169.833 164.5,164.5C 167.5,161.833 170.5,159.167 173.5,156.5 Z"/></g>
<g><path style="opacity:1" fill="#eeeeed" d="M -0.5,164.5 C 4.5,164.5 9.5,164.5 14.5,164.5C 14.5,169.5 14.5,174.5 14.5,179.5C 9.5,179.5 4.5,179.5 -0.5,179.5C -0.5,174.5 -0.5,169.5 -0.5,164.5 Z"/></g>
<g><path style="opacity:1" fill="#fefffe" d="M 14.5,164.5 C 19.5,164.5 24.5,164.5 29.5,164.5C 29.5,169.5 29.5,174.5 29.5,179.5C 24.5,179.5 19.5,179.5 14.5,179.5C 14.5,174.5 14.5,169.5 14.5,164.5 Z"/></g>
<g><path style="opacity:1" fill="#eeeeed" d="M 29.5,164.5 C 34.5,164.5 39.5,164.5 44.5,164.5C 44.5,169.5 44.5,174.5 44.5,179.5C 39.5,179.5 34.5,179.5 29.5,179.5C 29.5,174.5 29.5,169.5 29.5,164.5 Z"/></g>
<g><path style="opacity:1" fill="#fefffe" d="M 44.5,164.5 C 49.5,164.5 54.5,164.5 59.5,164.5C 59.5,169.5 59.5,174.5 59.5,179.5C 54.5,179.5 49.5,179.5 44.5,179.5C 44.5,174.5 44.5,169.5 44.5,164.5 Z"/></g>
<g><path style="opacity:1" fill="#eeeeed" d="M 59.5,164.5 C 64.5,164.5 69.5,164.5 74.5,164.5C 74.5,169.5 74.5,174.5 74.5,179.5C 69.5,179.5 64.5,179.5 59.5,179.5C 59.5,174.5 59.5,169.5 59.5,164.5 Z"/></g>
<g><path style="opacity:1" fill="#fefffe" d="M 74.5,164.5 C 79.5,164.5 84.5,164.5 89.5,164.5C 89.5,169.5 89.5,174.5 89.5,179.5C 84.5,179.5 79.5,179.5 74.5,179.5C 74.5,174.5 74.5,169.5 74.5,164.5 Z"/></g>
<g><path style="opacity:1" fill="#fefffe" d="M 149.5,164.5 C 149.5,169.5 149.5,174.5 149.5,179.5C 144.5,179.5 139.5,179.5 134.5,179.5C 134.5,174.5 134.5,169.5 134.5,164.5C 139.5,164.5 144.5,164.5 149.5,164.5 Z"/></g>
<g><path style="opacity:1" fill="#eeeeed" d="M 149.5,164.5 C 154.5,164.5 159.5,164.5 164.5,164.5C 159.833,169.833 154.833,174.833 149.5,179.5C 149.5,174.5 149.5,169.5 149.5,164.5 Z"/></g>
<g><path style="opacity:1" fill="#fefffe" d="M 269.5,164.5 C 269.5,169.5 269.5,174.5 269.5,179.5C 264.5,179.5 259.5,179.5 254.5,179.5C 254.5,174.5 254.5,169.5 254.5,164.5C 259.5,164.5 264.5,164.5 269.5,164.5 Z"/></g>
<g><path style="opacity:1" fill="#eeeeed" d="M 269.5,164.5 C 274.5,164.5 279.5,164.5 284.5,164.5C 284.5,169.5 284.5,174.5 284.5,179.5C 279.5,179.5 274.5,179.5 269.5,179.5C 269.5,174.5 269.5,169.5 269.5,164.5 Z"/></g>
<g><path style="opacity:1" fill="#fefffe" d="M 284.5,164.5 C 289.5,164.5 294.5,164.5 299.5,164.5C 299.5,169.5 299.5,174.5 299.5,179.5C 294.5,179.5 289.5,179.5 284.5,179.5C 284.5,174.5 284.5,169.5 284.5,164.5 Z"/></g>
<g><path style="opacity:1" fill="#f0efef" d="M 299.5,134.5 C 294.5,134.5 289.5,134.5 284.5,134.5C 284.5,139.5 284.5,144.5 284.5,149.5C 279.5,149.5 274.5,149.5 269.5,149.5C 269.5,154.5 269.5,159.5 269.5,164.5C 264.5,164.5 259.5,164.5 254.5,164.5C 254.5,169.5 254.5,174.5 254.5,179.5C 249.5,179.5 244.5,179.5 239.5,179.5C 239.5,184.5 239.5,189.5 239.5,194.5C 234.5,194.5 229.5,194.5 224.5,194.5C 224.664,197.187 224.497,199.854 224,202.5C 221.894,199.882 219.394,197.882 216.5,196.5C 240.271,172.228 264.271,148.062 288.5,124C 287.207,123.51 285.873,123.343 284.5,123.5C 284.5,122.167 284.5,120.833 284.5,119.5C 289.5,119.5 294.5,119.5 299.5,119.5C 299.5,124.5 299.5,129.5 299.5,134.5 Z"/></g>
<g><path style="opacity:1" fill="#fefffe" d="M -0.5,179.5 C 4.5,179.5 9.5,179.5 14.5,179.5C 14.5,184.5 14.5,189.5 14.5,194.5C 9.5,194.5 4.5,194.5 -0.5,194.5C -0.5,189.5 -0.5,184.5 -0.5,179.5 Z"/></g>
<g><path style="opacity:1" fill="#eeeeed" d="M 14.5,179.5 C 19.5,179.5 24.5,179.5 29.5,179.5C 29.5,184.5 29.5,189.5 29.5,194.5C 24.5,194.5 19.5,194.5 14.5,194.5C 14.5,189.5 14.5,184.5 14.5,179.5 Z"/></g>
<g><path style="opacity:1" fill="#fefffe" d="M 29.5,179.5 C 34.5,179.5 39.5,179.5 44.5,179.5C 44.5,184.5 44.5,189.5 44.5,194.5C 39.5,194.5 34.5,194.5 29.5,194.5C 29.5,189.5 29.5,184.5 29.5,179.5 Z"/></g>
<g><path style="opacity:1" fill="#eeeeed" d="M 44.5,179.5 C 49.5,179.5 54.5,179.5 59.5,179.5C 59.5,184.5 59.5,189.5 59.5,194.5C 54.5,194.5 49.5,194.5 44.5,194.5C 44.5,189.5 44.5,184.5 44.5,179.5 Z"/></g>
<g><path style="opacity:1" fill="#fefffe" d="M 59.5,179.5 C 64.5,179.5 69.5,179.5 74.5,179.5C 74.5,184.5 74.5,189.5 74.5,194.5C 69.5,194.5 64.5,194.5 59.5,194.5C 59.5,189.5 59.5,184.5 59.5,179.5 Z"/></g>
<g><path style="opacity:1" fill="#eeeeed" d="M 74.5,179.5 C 79.5,179.5 84.5,179.5 89.5,179.5C 89.5,184.5 89.5,189.5 89.5,194.5C 84.5,194.5 79.5,194.5 74.5,194.5C 74.5,189.5 74.5,184.5 74.5,179.5 Z"/></g>
<g><path style="opacity:1" fill="#fefffe" d="M 89.5,179.5 C 94.5,179.5 99.5,179.5 104.5,179.5C 104.5,184.5 104.5,189.5 104.5,194.5C 99.5,194.5 94.5,194.5 89.5,194.5C 89.5,189.5 89.5,184.5 89.5,179.5 Z"/></g>
<g><path style="opacity:1" fill="#fefffe" d="M 134.5,179.5 C 134.5,184.5 134.5,189.5 134.5,194.5C 129.5,194.5 124.5,194.5 119.5,194.5C 119.5,189.5 119.5,184.5 119.5,179.5C 124.5,179.5 129.5,179.5 134.5,179.5 Z"/></g>
<g><path style="opacity:1" fill="#efeeee" d="M 134.5,179.5 C 139.5,179.5 144.5,179.5 149.5,179.5C 144.833,184.833 139.833,189.833 134.5,194.5C 134.5,189.5 134.5,184.5 134.5,179.5 Z"/></g>
<g><path style="opacity:1" fill="#fefffe" d="M 254.5,179.5 C 254.5,184.5 254.5,189.5 254.5,194.5C 249.5,194.5 244.5,194.5 239.5,194.5C 239.5,189.5 239.5,184.5 239.5,179.5C 244.5,179.5 249.5,179.5 254.5,179.5 Z"/></g>
<g><path style="opacity:1" fill="#eeeeed" d="M 254.5,179.5 C 259.5,179.5 264.5,179.5 269.5,179.5C 269.5,184.5 269.5,189.5 269.5,194.5C 264.5,194.5 259.5,194.5 254.5,194.5C 254.5,189.5 254.5,184.5 254.5,179.5 Z"/></g>
<g><path style="opacity:1" fill="#fefffe" d="M 269.5,179.5 C 274.5,179.5 279.5,179.5 284.5,179.5C 284.5,184.5 284.5,189.5 284.5,194.5C 279.5,194.5 274.5,194.5 269.5,194.5C 269.5,189.5 269.5,184.5 269.5,179.5 Z"/></g>
<g><path style="opacity:1" fill="#eeeeed" d="M 284.5,179.5 C 289.5,179.5 294.5,179.5 299.5,179.5C 299.5,184.5 299.5,189.5 299.5,194.5C 294.5,194.5 289.5,194.5 284.5,194.5C 284.5,189.5 284.5,184.5 284.5,179.5 Z"/></g>
<g><path style="opacity:1" fill="#eeeeed" d="M -0.5,194.5 C 4.5,194.5 9.5,194.5 14.5,194.5C 14.5,199.5 14.5,204.5 14.5,209.5C 9.5,209.5 4.5,209.5 -0.5,209.5C -0.5,204.5 -0.5,199.5 -0.5,194.5 Z"/></g>
<g><path style="opacity:1" fill="#fefffe" d="M 14.5,194.5 C 19.5,194.5 24.5,194.5 29.5,194.5C 29.5,199.5 29.5,204.5 29.5,209.5C 24.5,209.5 19.5,209.5 14.5,209.5C 14.5,204.5 14.5,199.5 14.5,194.5 Z"/></g>
<g><path style="opacity:1" fill="#eeeeed" d="M 29.5,194.5 C 34.5,194.5 39.5,194.5 44.5,194.5C 44.5,199.5 44.5,204.5 44.5,209.5C 39.5,209.5 34.5,209.5 29.5,209.5C 29.5,204.5 29.5,199.5 29.5,194.5 Z"/></g>
<g><path style="opacity:1" fill="#fefffe" d="M 44.5,194.5 C 49.5,194.5 54.5,194.5 59.5,194.5C 59.5,199.5 59.5,204.5 59.5,209.5C 54.5,209.5 49.5,209.5 44.5,209.5C 44.5,204.5 44.5,199.5 44.5,194.5 Z"/></g>
<g><path style="opacity:1" fill="#eeeeed" d="M 59.5,194.5 C 64.5,194.5 69.5,194.5 74.5,194.5C 74.5,199.5 74.5,204.5 74.5,209.5C 69.5,209.5 64.5,209.5 59.5,209.5C 59.5,204.5 59.5,199.5 59.5,194.5 Z"/></g>
<g><path style="opacity:1" fill="#fefffe" d="M 74.5,194.5 C 79.5,194.5 84.5,194.5 89.5,194.5C 89.5,199.5 89.5,204.5 89.5,209.5C 84.5,209.5 79.5,209.5 74.5,209.5C 74.5,204.5 74.5,199.5 74.5,194.5 Z"/></g>
<g><path style="opacity:1" fill="#eeeeed" d="M 89.5,194.5 C 94.5,194.5 99.5,194.5 104.5,194.5C 104.5,199.5 104.5,204.5 104.5,209.5C 99.5,209.5 94.5,209.5 89.5,209.5C 89.5,204.5 89.5,199.5 89.5,194.5 Z"/></g>
<g><path style="opacity:1" fill="#fefffe" d="M 104.5,194.5 C 109.5,194.5 114.5,194.5 119.5,194.5C 119.5,199.5 119.5,204.5 119.5,209.5C 114.5,209.5 109.5,209.5 104.5,209.5C 104.5,204.5 104.5,199.5 104.5,194.5 Z"/></g>
<g><path style="opacity:1" fill="#eeeeed" d="M 239.5,194.5 C 244.5,194.5 249.5,194.5 254.5,194.5C 254.5,199.5 254.5,204.5 254.5,209.5C 249.5,209.5 244.5,209.5 239.5,209.5C 239.5,204.5 239.5,199.5 239.5,194.5 Z"/></g>
<g><path style="opacity:1" fill="#fefffe" d="M 254.5,194.5 C 259.5,194.5 264.5,194.5 269.5,194.5C 269.5,199.5 269.5,204.5 269.5,209.5C 264.5,209.5 259.5,209.5 254.5,209.5C 254.5,204.5 254.5,199.5 254.5,194.5 Z"/></g>
<g><path style="opacity:1" fill="#eeeeed" d="M 269.5,194.5 C 274.5,194.5 279.5,194.5 284.5,194.5C 284.5,199.5 284.5,204.5 284.5,209.5C 279.5,209.5 274.5,209.5 269.5,209.5C 269.5,204.5 269.5,199.5 269.5,194.5 Z"/></g>
<g><path style="opacity:1" fill="#fefffe" d="M 284.5,194.5 C 289.5,194.5 294.5,194.5 299.5,194.5C 299.5,199.5 299.5,204.5 299.5,209.5C 294.5,209.5 289.5,209.5 284.5,209.5C 284.5,204.5 284.5,199.5 284.5,194.5 Z"/></g>
<g><path style="opacity:1" fill="#12356d" d="M 215.5,197.5 C 215.833,197.5 216.167,197.5 216.5,197.5C 217.833,198.167 218.833,199.167 219.5,200.5C 218.504,200.586 217.671,200.252 217,199.5C 213.529,203.611 210.695,208.111 208.5,213C 208.422,215.953 208.755,218.953 209.5,222C 207.959,223.579 206.792,225.413 206,227.5C 205.026,225.122 204.359,225.456 204,228.5C 203.667,227.833 203.333,227.167 203,226.5C 202.5,227.667 201.667,228.5 200.5,229C 192.833,232 185.167,235 177.5,238C 176.748,238.671 176.414,239.504 176.5,240.5C 175.094,240.027 174.427,239.027 174.5,237.5C 188.167,224.167 201.833,210.833 215.5,197.5 Z"/></g>
<g><path style="opacity:1" fill="#13479f" d="M 219.5,200.5 C 242.833,223.167 265.833,246.167 288.5,269.5C 260.5,269.5 232.5,269.5 204.5,269.5C 195.167,259.833 185.833,250.167 176.5,240.5C 176.414,239.504 176.748,238.671 177.5,238C 185.167,235 192.833,232 200.5,229C 201.667,228.5 202.5,227.667 203,226.5C 203.333,227.167 203.667,227.833 204,228.5C 204.359,225.456 205.026,225.122 206,227.5C 206.792,225.413 207.959,223.579 209.5,222C 208.755,218.953 208.422,215.953 208.5,213C 210.695,208.111 213.529,203.611 217,199.5C 217.671,200.252 218.504,200.586 219.5,200.5 Z"/></g>
<g><path style="opacity:1" fill="#fefffe" d="M -0.5,209.5 C 4.5,209.5 9.5,209.5 14.5,209.5C 14.5,214.5 14.5,219.5 14.5,224.5C 9.5,224.5 4.5,224.5 -0.5,224.5C -0.5,219.5 -0.5,214.5 -0.5,209.5 Z"/></g>
<g><path style="opacity:1" fill="#eeeeed" d="M 14.5,209.5 C 19.5,209.5 24.5,209.5 29.5,209.5C 29.5,214.5 29.5,219.5 29.5,224.5C 24.5,224.5 19.5,224.5 14.5,224.5C 14.5,219.5 14.5,214.5 14.5,209.5 Z"/></g>
<g><path style="opacity:1" fill="#fefffe" d="M 29.5,209.5 C 34.5,209.5 39.5,209.5 44.5,209.5C 44.5,214.5 44.5,219.5 44.5,224.5C 39.5,224.5 34.5,224.5 29.5,224.5C 29.5,219.5 29.5,214.5 29.5,209.5 Z"/></g>
<g><path style="opacity:1" fill="#eeeeed" d="M 44.5,209.5 C 49.5,209.5 54.5,209.5 59.5,209.5C 59.5,214.5 59.5,219.5 59.5,224.5C 54.5,224.5 49.5,224.5 44.5,224.5C 44.5,219.5 44.5,214.5 44.5,209.5 Z"/></g>
<g><path style="opacity:1" fill="#fefffe" d="M 59.5,209.5 C 64.5,209.5 69.5,209.5 74.5,209.5C 74.5,214.5 74.5,219.5 74.5,224.5C 69.5,224.5 64.5,224.5 59.5,224.5C 59.5,219.5 59.5,214.5 59.5,209.5 Z"/></g>
<g><path style="opacity:1" fill="#eeeeed" d="M 74.5,209.5 C 79.5,209.5 84.5,209.5 89.5,209.5C 89.5,214.5 89.5,219.5 89.5,224.5C 84.5,224.5 79.5,224.5 74.5,224.5C 74.5,219.5 74.5,214.5 74.5,209.5 Z"/></g>
<g><path style="opacity:1" fill="#fefffe" d="M 89.5,209.5 C 94.5,209.5 99.5,209.5 104.5,209.5C 104.5,214.5 104.5,219.5 104.5,224.5C 99.5,224.5 94.5,224.5 89.5,224.5C 89.5,219.5 89.5,214.5 89.5,209.5 Z"/></g>
<g><path style="opacity:1" fill="#eeeeed" d="M 104.5,209.5 C 109.5,209.5 114.5,209.5 119.5,209.5C 119.5,214.5 119.5,219.5 119.5,224.5C 114.5,224.5 109.5,224.5 104.5,224.5C 104.5,219.5 104.5,214.5 104.5,209.5 Z"/></g>
<g><path style="opacity:1" fill="#fefffe" d="M 119.5,209.5 C 124.5,209.5 129.5,209.5 134.5,209.5C 134.5,214.5 134.5,219.5 134.5,224.5C 129.5,224.5 124.5,224.5 119.5,224.5C 119.5,219.5 119.5,214.5 119.5,209.5 Z"/></g>
<g><path style="opacity:1" fill="#eeeeed" d="M 254.5,209.5 C 259.5,209.5 264.5,209.5 269.5,209.5C 269.5,214.5 269.5,219.5 269.5,224.5C 264.5,224.5 259.5,224.5 254.5,224.5C 254.5,219.5 254.5,214.5 254.5,209.5 Z"/></g>
<g><path style="opacity:1" fill="#fefffe" d="M 269.5,209.5 C 274.5,209.5 279.5,209.5 284.5,209.5C 284.5,214.5 284.5,219.5 284.5,224.5C 279.5,224.5 274.5,224.5 269.5,224.5C 269.5,219.5 269.5,214.5 269.5,209.5 Z"/></g>
<g><path style="opacity:1" fill="#eeeeed" d="M 284.5,209.5 C 289.5,209.5 294.5,209.5 299.5,209.5C 299.5,214.5 299.5,219.5 299.5,224.5C 294.5,224.5 289.5,224.5 284.5,224.5C 284.5,219.5 284.5,214.5 284.5,209.5 Z"/></g>
<g><path style="opacity:1" fill="#eeeeed" d="M -0.5,224.5 C 4.5,224.5 9.5,224.5 14.5,224.5C 14.5,229.5 14.5,234.5 14.5,239.5C 9.5,239.5 4.5,239.5 -0.5,239.5C -0.5,234.5 -0.5,229.5 -0.5,224.5 Z"/></g>
<g><path style="opacity:1" fill="#fefffe" d="M 14.5,224.5 C 19.5,224.5 24.5,224.5 29.5,224.5C 29.5,229.5 29.5,234.5 29.5,239.5C 24.5,239.5 19.5,239.5 14.5,239.5C 14.5,234.5 14.5,229.5 14.5,224.5 Z"/></g>
<g><path style="opacity:1" fill="#eeeeed" d="M 29.5,224.5 C 34.5,224.5 39.5,224.5 44.5,224.5C 44.5,229.5 44.5,234.5 44.5,239.5C 39.5,239.5 34.5,239.5 29.5,239.5C 29.5,234.5 29.5,229.5 29.5,224.5 Z"/></g>
<g><path style="opacity:1" fill="#fefffe" d="M 44.5,224.5 C 49.5,224.5 54.5,224.5 59.5,224.5C 59.5,229.5 59.5,234.5 59.5,239.5C 54.5,239.5 49.5,239.5 44.5,239.5C 44.5,234.5 44.5,229.5 44.5,224.5 Z"/></g>
<g><path style="opacity:1" fill="#eeeeed" d="M 59.5,224.5 C 64.5,224.5 69.5,224.5 74.5,224.5C 74.5,229.5 74.5,234.5 74.5,239.5C 69.5,239.5 64.5,239.5 59.5,239.5C 59.5,234.5 59.5,229.5 59.5,224.5 Z"/></g>
<g><path style="opacity:1" fill="#fefffe" d="M 74.5,224.5 C 79.5,224.5 84.5,224.5 89.5,224.5C 89.5,229.5 89.5,234.5 89.5,239.5C 84.5,239.5 79.5,239.5 74.5,239.5C 74.5,234.5 74.5,229.5 74.5,224.5 Z"/></g>
<g><path style="opacity:1" fill="#eeeeed" d="M 89.5,224.5 C 94.5,224.5 99.5,224.5 104.5,224.5C 104.5,229.5 104.5,234.5 104.5,239.5C 99.5,239.5 94.5,239.5 89.5,239.5C 89.5,234.5 89.5,229.5 89.5,224.5 Z"/></g>
<g><path style="opacity:1" fill="#fefffe" d="M 104.5,224.5 C 109.5,224.5 114.5,224.5 119.5,224.5C 119.5,229.5 119.5,234.5 119.5,239.5C 114.5,239.5 109.5,239.5 104.5,239.5C 104.5,234.5 104.5,229.5 104.5,224.5 Z"/></g>
<g><path style="opacity:1" fill="#eeeeed" d="M 119.5,224.5 C 124.5,224.5 129.5,224.5 134.5,224.5C 134.5,229.5 134.5,234.5 134.5,239.5C 129.5,239.5 124.5,239.5 119.5,239.5C 119.5,234.5 119.5,229.5 119.5,224.5 Z"/></g>
<g><path style="opacity:1" fill="#fefffe" d="M 134.5,224.5 C 139.5,224.5 144.5,224.5 149.5,224.5C 149.5,229.5 149.5,234.5 149.5,239.5C 144.5,239.5 139.5,239.5 134.5,239.5C 134.5,234.5 134.5,229.5 134.5,224.5 Z"/></g>
<g><path style="opacity:1" fill="#eff0f1" d="M 119.5,194.5 C 124.5,194.5 129.5,194.5 134.5,194.5C 133.697,195.423 133.53,196.423 134,197.5C 147.368,211.035 160.868,224.369 174.5,237.5C 174.427,239.027 175.094,240.027 176.5,240.5C 185.833,250.167 195.167,259.833 204.5,269.5C 196.167,269.5 187.833,269.5 179.5,269.5C 179.5,264.5 179.5,259.5 179.5,254.5C 174.5,254.5 169.5,254.5 164.5,254.5C 164.5,249.5 164.5,244.5 164.5,239.5C 159.5,239.5 154.5,239.5 149.5,239.5C 149.5,234.5 149.5,229.5 149.5,224.5C 144.5,224.5 139.5,224.5 134.5,224.5C 134.5,219.5 134.5,214.5 134.5,209.5C 129.5,209.5 124.5,209.5 119.5,209.5C 119.5,204.5 119.5,199.5 119.5,194.5 Z"/></g>
<g><path style="opacity:1" fill="#eeeeed" d="M 269.5,224.5 C 274.5,224.5 279.5,224.5 284.5,224.5C 284.5,229.5 284.5,234.5 284.5,239.5C 279.5,239.5 274.5,239.5 269.5,239.5C 269.5,234.5 269.5,229.5 269.5,224.5 Z"/></g>
<g><path style="opacity:1" fill="#fefffe" d="M 284.5,224.5 C 289.5,224.5 294.5,224.5 299.5,224.5C 299.5,229.5 299.5,234.5 299.5,239.5C 294.5,239.5 289.5,239.5 284.5,239.5C 284.5,234.5 284.5,229.5 284.5,224.5 Z"/></g>
<g><path style="opacity:1" fill="#fefffe" d="M -0.5,239.5 C 4.5,239.5 9.5,239.5 14.5,239.5C 14.5,244.5 14.5,249.5 14.5,254.5C 9.5,254.5 4.5,254.5 -0.5,254.5C -0.5,249.5 -0.5,244.5 -0.5,239.5 Z"/></g>
<g><path style="opacity:1" fill="#eeeeed" d="M 14.5,239.5 C 19.5,239.5 24.5,239.5 29.5,239.5C 29.5,244.5 29.5,249.5 29.5,254.5C 24.5,254.5 19.5,254.5 14.5,254.5C 14.5,249.5 14.5,244.5 14.5,239.5 Z"/></g>
<g><path style="opacity:1" fill="#fefffe" d="M 29.5,239.5 C 34.5,239.5 39.5,239.5 44.5,239.5C 44.5,244.5 44.5,249.5 44.5,254.5C 39.5,254.5 34.5,254.5 29.5,254.5C 29.5,249.5 29.5,244.5 29.5,239.5 Z"/></g>
<g><path style="opacity:1" fill="#eeeeed" d="M 44.5,239.5 C 49.5,239.5 54.5,239.5 59.5,239.5C 59.5,244.5 59.5,249.5 59.5,254.5C 54.5,254.5 49.5,254.5 44.5,254.5C 44.5,249.5 44.5,244.5 44.5,239.5 Z"/></g>
<g><path style="opacity:1" fill="#fefffe" d="M 59.5,239.5 C 64.5,239.5 69.5,239.5 74.5,239.5C 74.5,244.5 74.5,249.5 74.5,254.5C 69.5,254.5 64.5,254.5 59.5,254.5C 59.5,249.5 59.5,244.5 59.5,239.5 Z"/></g>
<g><path style="opacity:1" fill="#eeeeed" d="M 74.5,239.5 C 79.5,239.5 84.5,239.5 89.5,239.5C 89.5,244.5 89.5,249.5 89.5,254.5C 84.5,254.5 79.5,254.5 74.5,254.5C 74.5,249.5 74.5,244.5 74.5,239.5 Z"/></g>
<g><path style="opacity:1" fill="#fefffe" d="M 89.5,239.5 C 94.5,239.5 99.5,239.5 104.5,239.5C 104.5,244.5 104.5,249.5 104.5,254.5C 99.5,254.5 94.5,254.5 89.5,254.5C 89.5,249.5 89.5,244.5 89.5,239.5 Z"/></g>
<g><path style="opacity:1" fill="#eeeeed" d="M 104.5,239.5 C 109.5,239.5 114.5,239.5 119.5,239.5C 119.5,244.5 119.5,249.5 119.5,254.5C 114.5,254.5 109.5,254.5 104.5,254.5C 104.5,249.5 104.5,244.5 104.5,239.5 Z"/></g>
<g><path style="opacity:1" fill="#fefffe" d="M 119.5,239.5 C 124.5,239.5 129.5,239.5 134.5,239.5C 134.5,244.5 134.5,249.5 134.5,254.5C 129.5,254.5 124.5,254.5 119.5,254.5C 119.5,249.5 119.5,244.5 119.5,239.5 Z"/></g>
<g><path style="opacity:1" fill="#eeeeed" d="M 134.5,239.5 C 139.5,239.5 144.5,239.5 149.5,239.5C 149.5,244.5 149.5,249.5 149.5,254.5C 144.5,254.5 139.5,254.5 134.5,254.5C 134.5,249.5 134.5,244.5 134.5,239.5 Z"/></g>
<g><path style="opacity:1" fill="#fefffe" d="M 149.5,239.5 C 154.5,239.5 159.5,239.5 164.5,239.5C 164.5,244.5 164.5,249.5 164.5,254.5C 159.5,254.5 154.5,254.5 149.5,254.5C 149.5,249.5 149.5,244.5 149.5,239.5 Z"/></g>
<g><path style="opacity:1" fill="#fcfcfc" d="M 239.5,194.5 C 239.5,199.5 239.5,204.5 239.5,209.5C 244.5,209.5 249.5,209.5 254.5,209.5C 254.5,214.5 254.5,219.5 254.5,224.5C 259.5,224.5 264.5,224.5 269.5,224.5C 269.5,229.5 269.5,234.5 269.5,239.5C 274.5,239.5 279.5,239.5 284.5,239.5C 284.5,244.5 284.5,249.5 284.5,254.5C 289.5,254.5 294.5,254.5 299.5,254.5C 299.5,259.5 299.5,264.5 299.5,269.5C 295.833,269.5 292.167,269.5 288.5,269.5C 265.833,246.167 242.833,223.167 219.5,200.5C 218.833,199.167 217.833,198.167 216.5,197.5C 216.5,197.167 216.5,196.833 216.5,196.5C 219.394,197.882 221.894,199.882 224,202.5C 224.497,199.854 224.664,197.187 224.5,194.5C 229.5,194.5 234.5,194.5 239.5,194.5 Z"/></g>
<g><path style="opacity:1" fill="#eeeeed" d="M 284.5,239.5 C 289.5,239.5 294.5,239.5 299.5,239.5C 299.5,244.5 299.5,249.5 299.5,254.5C 294.5,254.5 289.5,254.5 284.5,254.5C 284.5,249.5 284.5,244.5 284.5,239.5 Z"/></g>
<g><path style="opacity:1" fill="#eeeeed" d="M -0.5,254.5 C 4.5,254.5 9.5,254.5 14.5,254.5C 14.5,259.5 14.5,264.5 14.5,269.5C 9.5,269.5 4.5,269.5 -0.5,269.5C -0.5,264.5 -0.5,259.5 -0.5,254.5 Z"/></g>
<g><path style="opacity:1" fill="#fefffe" d="M 14.5,254.5 C 19.5,254.5 24.5,254.5 29.5,254.5C 29.5,259.5 29.5,264.5 29.5,269.5C 24.5,269.5 19.5,269.5 14.5,269.5C 14.5,264.5 14.5,259.5 14.5,254.5 Z"/></g>
<g><path style="opacity:1" fill="#eeeeed" d="M 29.5,254.5 C 34.5,254.5 39.5,254.5 44.5,254.5C 44.5,259.5 44.5,264.5 44.5,269.5C 39.5,269.5 34.5,269.5 29.5,269.5C 29.5,264.5 29.5,259.5 29.5,254.5 Z"/></g>
<g><path style="opacity:1" fill="#fefffe" d="M 44.5,254.5 C 49.5,254.5 54.5,254.5 59.5,254.5C 59.5,259.5 59.5,264.5 59.5,269.5C 54.5,269.5 49.5,269.5 44.5,269.5C 44.5,264.5 44.5,259.5 44.5,254.5 Z"/></g>
<g><path style="opacity:1" fill="#eeeeed" d="M 59.5,254.5 C 64.5,254.5 69.5,254.5 74.5,254.5C 74.5,259.5 74.5,264.5 74.5,269.5C 69.5,269.5 64.5,269.5 59.5,269.5C 59.5,264.5 59.5,259.5 59.5,254.5 Z"/></g>
<g><path style="opacity:1" fill="#fefffe" d="M 74.5,254.5 C 79.5,254.5 84.5,254.5 89.5,254.5C 89.5,259.5 89.5,264.5 89.5,269.5C 84.5,269.5 79.5,269.5 74.5,269.5C 74.5,264.5 74.5,259.5 74.5,254.5 Z"/></g>
<g><path style="opacity:1" fill="#eeeeed" d="M 89.5,254.5 C 94.5,254.5 99.5,254.5 104.5,254.5C 104.5,259.5 104.5,264.5 104.5,269.5C 99.5,269.5 94.5,269.5 89.5,269.5C 89.5,264.5 89.5,259.5 89.5,254.5 Z"/></g>
<g><path style="opacity:1" fill="#fefffe" d="M 104.5,254.5 C 109.5,254.5 114.5,254.5 119.5,254.5C 119.5,259.5 119.5,264.5 119.5,269.5C 114.5,269.5 109.5,269.5 104.5,269.5C 104.5,264.5 104.5,259.5 104.5,254.5 Z"/></g>
<g><path style="opacity:1" fill="#eeeeed" d="M 119.5,254.5 C 124.5,254.5 129.5,254.5 134.5,254.5C 134.5,259.5 134.5,264.5 134.5,269.5C 129.5,269.5 124.5,269.5 119.5,269.5C 119.5,264.5 119.5,259.5 119.5,254.5 Z"/></g>
<g><path style="opacity:1" fill="#fefffe" d="M 134.5,254.5 C 139.5,254.5 144.5,254.5 149.5,254.5C 149.5,259.5 149.5,264.5 149.5,269.5C 144.5,269.5 139.5,269.5 134.5,269.5C 134.5,264.5 134.5,259.5 134.5,254.5 Z"/></g>
<g><path style="opacity:1" fill="#eeeeed" d="M 149.5,254.5 C 154.5,254.5 159.5,254.5 164.5,254.5C 164.5,259.5 164.5,264.5 164.5,269.5C 159.5,269.5 154.5,269.5 149.5,269.5C 149.5,264.5 149.5,259.5 149.5,254.5 Z"/></g>
<g><path style="opacity:1" fill="#fefffe" d="M 164.5,254.5 C 169.5,254.5 174.5,254.5 179.5,254.5C 179.5,259.5 179.5,264.5 179.5,269.5C 174.5,269.5 169.5,269.5 164.5,269.5C 164.5,264.5 164.5,259.5 164.5,254.5 Z"/></g>
</svg>
