<?xml version="1.0" encoding="UTF-8"?>
<!DOCTYPE svg PUBLIC "-//W3C//DTD SVG 1.1//EN" "http://www.w3.org/Graphics/SVG/1.1/DTD/svg11.dtd">
<svg xmlns="http://www.w3.org/2000/svg" version="1.1" width="391px" height="202px" style="shape-rendering:geometricPrecision; text-rendering:geometricPrecision; image-rendering:optimizeQuality; fill-rule:evenodd; clip-rule:evenodd" xmlns:xlink="http://www.w3.org/1999/xlink">
<g><path style="opacity:0.845" fill="#005f8c" d="M 247.5,-0.5 C 250.5,-0.5 253.5,-0.5 256.5,-0.5C 262.233,1.87133 267.566,5.038 272.5,9C 279.422,9.06399 286.089,10.3973 292.5,13C 309.283,22.116 322.449,34.9493 332,51.5C 336.345,63.1908 341.511,74.5241 347.5,85.5C 361.215,91.2645 373.048,99.5978 383,110.5C 383.617,111.449 383.451,112.282 382.5,113C 376.101,114.288 369.768,115.788 363.5,117.5C 369.902,122.13 376.069,127.13 382,132.5C 384.36,135.36 386.527,138.36 388.5,141.5C 388.167,141.833 387.833,142.167 387.5,142.5C 378.671,135.916 369.338,130.082 359.5,125C 356.286,122.068 353.953,118.568 352.5,114.5C 354.416,112.683 356.749,111.516 359.5,111C 364.785,109.974 370.118,109.307 375.5,109C 366.007,101.186 355.341,95.5193 343.5,92C 336.088,79.3422 329.588,66.1755 324,52.5C 310.385,30.1752 290.885,16.6752 265.5,12C 246.502,1.32819 243.669,4.49486 257,21.5C 260.392,29.0088 263.392,36.6754 266,44.5C 267.513,47.5244 269.513,50.1911 272,52.5C 272.667,54.8333 272.667,57.1667 272,59.5C 267.061,71.3455 267.395,83.0121 273,94.5C 273.667,95.1667 274.333,95.8333 275,96.5C 276.148,91.1448 277.482,85.8114 279,80.5C 280.529,79.2713 281.696,77.7713 282.5,76C 283.167,75.3333 283.833,75.3333 284.5,76C 289.846,90.5322 297.846,103.365 308.5,114.5C 307.998,115.521 307.332,115.688 306.5,115C 297.557,108.227 290.224,100.06 284.5,90.5C 283.56,93.8025 282.727,97.1358 282,100.5C 278.075,104.41 274.075,104.41 270,100.5C 266.91,96.318 264.91,91.6513 264,86.5C 263.333,79.8333 263.333,73.1667 264,66.5C 264.794,62.8411 265.961,59.3411 267.5,56C 260.737,47.6378 256.237,38.1378 254,27.5C 249.943,22.4415 246.276,17.1082 243,11.5C 242.02,6.47609 243.52,2.47609 247.5,-0.5 Z"/></g>
<g><path style="opacity:0.703" fill="#005f8c" d="M 272.5,23.5 C 279.839,24.014 281.839,27.514 278.5,34C 278.167,34.1667 277.833,34.3333 277.5,34.5C 276.411,31.3215 274.577,28.6548 272,26.5C 271.53,25.4232 271.697,24.4232 272.5,23.5 Z"/></g>
<g><path style="opacity:0.935" fill="#005f8c" d="M -0.5,183.5 C -0.5,165.5 -0.5,147.5 -0.5,129.5C 0.220313,126.94 1.88698,125.107 4.5,124C 10.1817,122.064 15.8484,122.064 21.5,124C 23.3783,125.543 24.8783,127.376 26,129.5C 31.8967,143.626 38.0634,157.626 44.5,171.5C 51.2384,156.358 58.2384,141.358 65.5,126.5C 72.0768,121.707 79.0768,121.207 86.5,125C 87.3333,125.833 88.1667,126.667 89,127.5C 89.4999,146.164 89.6666,164.83 89.5,183.5C 84.8333,183.5 80.1667,183.5 75.5,183.5C 75.6666,168.163 75.4999,152.83 75,137.5C 68.6667,151.5 62.3333,165.5 56,179.5C 53.3231,183.338 49.6565,185.005 45,184.5C 40.6343,184.935 36.9676,183.602 34,180.5C 27.3333,165.833 20.6667,151.167 14,136.5C 13.5001,152.163 13.3334,167.83 13.5,183.5C 8.83333,183.5 4.16667,183.5 -0.5,183.5 Z"/></g>
<g><path style="opacity:0.922" fill="#e48d00" d="M 184.5,123.5 C 199.5,123.5 214.5,123.5 229.5,123.5C 229.5,126.833 229.5,130.167 229.5,133.5C 215.163,133.333 200.829,133.5 186.5,134C 186,134.5 185.5,135 185,135.5C 184.333,138.833 184.333,142.167 185,145.5C 185.5,146.667 186.333,147.5 187.5,148C 197.107,149.225 206.774,149.892 216.5,150C 221.277,151.133 225.11,153.633 228,157.5C 228.667,163.167 228.667,168.833 228,174.5C 224.967,178.938 220.8,181.771 215.5,183C 200.504,183.5 185.504,183.667 170.5,183.5C 170.5,180.5 170.5,177.5 170.5,174.5C 183.171,174.667 195.838,174.5 208.5,174C 210.519,173.55 212.352,172.717 214,171.5C 214.667,168.167 214.667,164.833 214,161.5C 213.692,160.692 213.192,160.025 212.5,159.5C 202.939,157.844 193.273,157.01 183.5,157C 171.141,153.792 166.974,145.959 171,133.5C 171.792,131.413 172.959,129.579 174.5,128C 177.815,126.17 181.149,124.67 184.5,123.5 Z"/></g>
<g><path style="opacity:0.921" fill="#e48d00" d="M 251.5,123.5 C 262.505,123.333 273.505,123.5 284.5,124C 291.543,124.264 296.71,127.431 300,133.5C 300.667,147.167 300.667,160.833 300,174.5C 298.5,177.333 296.333,179.5 293.5,181C 297.8,184.298 301.8,187.965 305.5,192C 299.833,192.667 294.167,192.667 288.5,192C 285.833,189.333 283.167,186.667 280.5,184C 271.514,184.332 262.514,184.332 253.5,184C 244.96,183.997 239.127,180.164 236,172.5C 235.333,160.167 235.333,147.833 236,135.5C 238.521,127.999 243.687,123.999 251.5,123.5 Z M 255.5,133.5 C 264.839,133.334 274.173,133.5 283.5,134C 284.416,134.374 285.25,134.874 286,135.5C 287.126,141.563 287.626,147.729 287.5,154C 287.333,159.5 287.167,165 287,170.5C 286.163,172.007 284.996,172.507 283.5,172C 281.167,169.667 278.833,167.333 276.5,165C 270.833,164.333 265.167,164.333 259.5,165C 262.535,168.37 265.868,171.37 269.5,174C 265.167,174.667 260.833,174.667 256.5,174C 254.671,173.727 253.171,172.893 252,171.5C 250.378,160.264 250.045,148.931 251,137.5C 252.25,135.807 253.75,134.473 255.5,133.5 Z"/></g>
<g><path style="opacity:0.932" fill="#e48d00" d="M 307.5,123.5 C 312.167,123.5 316.833,123.5 321.5,123.5C 321.182,139.548 321.515,155.548 322.5,171.5C 323.912,172.806 325.579,173.64 327.5,174C 340.162,174.5 352.829,174.667 365.5,174.5C 365.5,177.5 365.5,180.5 365.5,183.5C 351.163,183.667 336.829,183.5 322.5,183C 316.897,182.449 312.397,179.949 309,175.5C 307.542,158.236 307.042,140.903 307.5,123.5 Z"/></g>
<g><path style="opacity:0.936" fill="#005f8c" d="M 147.5,201.5 C 131.5,201.5 115.5,201.5 99.5,201.5C 99.5,198.5 99.5,195.5 99.5,192.5C 113.504,192.667 127.504,192.5 141.5,192C 146.809,191.522 148.809,188.689 147.5,183.5C 136.495,183.667 125.495,183.5 114.5,183C 108.303,182.324 103.469,179.491 100,174.5C 99.5002,163.505 99.3335,152.505 99.5,141.5C 104.167,141.5 108.833,141.5 113.5,141.5C 113.18,152.082 113.513,162.582 114.5,173C 125.397,174.454 136.397,174.954 147.5,174.5C 147.5,163.5 147.5,152.5 147.5,141.5C 152.167,141.5 156.833,141.5 161.5,141.5C 161.667,158.17 161.5,174.837 161,191.5C 160.208,193.587 159.041,195.421 157.5,197C 154.185,198.83 150.851,200.33 147.5,201.5 Z"/></g>
<g><path style="opacity:0.698" fill="#e48d00" d="M 390.5,170.5 C 390.5,173.167 390.5,175.833 390.5,178.5C 385.133,185.669 378.966,186.336 372,180.5C 368.833,167.667 373.667,162.833 386.5,166C 388.07,167.397 389.404,168.897 390.5,170.5 Z M 375.5,169.5 C 376.641,172.64 376.808,175.973 376,179.5C 372.867,176.307 372.7,172.973 375.5,169.5 Z M 385.5,170.5 C 388.134,173.088 388.134,175.754 385.5,178.5C 384.713,177.758 384.047,176.925 383.5,176C 385.155,174.556 385.822,172.722 385.5,170.5 Z M 379.5,171.5 C 382.797,171.329 383.131,171.995 380.5,173.5C 379.702,173.043 379.369,172.376 379.5,171.5 Z M 379.5,176.5 C 382.229,178.139 382.562,179.805 380.5,181.5C 379.833,181.333 379.167,181.167 378.5,181C 379.38,179.644 379.714,178.144 379.5,176.5 Z"/></g>
</svg>
