<?xml version="1.0" encoding="UTF-8"?>
<!DOCTYPE svg PUBLIC "-//W3C//DTD SVG 1.1//EN" "http://www.w3.org/Graphics/SVG/1.1/DTD/svg11.dtd">
<svg xmlns="http://www.w3.org/2000/svg" version="1.1" width="2367px" height="2050px" style="shape-rendering:geometricPrecision; text-rendering:geometricPrecision; image-rendering:optimizeQuality; fill-rule:evenodd; clip-rule:evenodd" xmlns:xlink="http://www.w3.org/1999/xlink">
<g><path style="opacity:0.999" fill="#41b783" d="M -0.5,-0.5 C 157.5,-0.5 315.5,-0.5 473.5,-0.5C 709.471,409.439 945.971,819.105 1183,1228.5C 1420.03,819.105 1656.53,409.439 1892.5,-0.5C 2050.5,-0.5 2208.5,-0.5 2366.5,-0.5C 2366.5,0.166667 2366.5,0.833333 2366.5,1.5C 1972.18,684.131 1577.85,1366.8 1183.5,2049.5C 1182.83,2049.5 1182.17,2049.5 1181.5,2049.5C 788.002,1366.5 394.002,683.832 -0.5,1.5C -0.5,0.833333 -0.5,0.166667 -0.5,-0.5 Z"/></g>
<g><path style="opacity:1" fill="#34495e" d="M 473.5,-0.5 C 619.167,-0.5 764.833,-0.5 910.5,-0.5C 1001.07,156.969 1091.9,314.303 1183,471.5C 1273.66,314.02 1364.49,156.687 1455.5,-0.5C 1601.17,-0.5 1746.83,-0.5 1892.5,-0.5C 1656.53,409.439 1420.03,819.105 1183,1228.5C 945.971,819.105 709.471,409.439 473.5,-0.5 Z"/></g>
</svg>
