<?xml version="1.0" encoding="UTF-8"?>
<!DOCTYPE svg PUBLIC "-//W3C//DTD SVG 1.1//EN" "http://www.w3.org/Graphics/SVG/1.1/DTD/svg11.dtd">
<svg xmlns="http://www.w3.org/2000/svg" version="1.1" width="3543px" height="1193px" style="shape-rendering:geometricPrecision; text-rendering:geometricPrecision; image-rendering:optimizeQuality; fill-rule:evenodd; clip-rule:evenodd" xmlns:xlink="http://www.w3.org/1999/xlink">
<g><path style="opacity:1" fill="#da182f" d="M 541.5,-0.5 C 564.5,-0.5 587.5,-0.5 610.5,-0.5C 756.374,9.96899 881.041,66.3023 984.5,168.5C 916.514,236.986 848.347,305.32 780,373.5C 715.311,310.82 637.811,282.986 547.5,290C 453.929,301.666 381.762,346.833 331,425.5C 281.029,511.823 275.029,601.157 313,693.5C 356.099,783.578 426.599,839.078 524.5,860C 636.661,876.403 729.161,841.569 802,755.5C 842.576,702.947 863.409,643.281 864.5,576.5C 960.833,576.5 1057.17,576.5 1153.5,576.5C 1153.5,769.167 1153.5,961.833 1153.5,1154.5C 948.491,1154.98 743.491,1154.48 538.5,1153C 356.122,1137.26 211.289,1056.1 104,909.5C 41.4414,819.663 6.60809,719.997 -0.5,610.5C -0.5,587.833 -0.5,565.167 -0.5,542.5C 12.1113,378.443 80.1113,242.61 203.5,135C 301.308,53.6238 413.975,8.45711 541.5,-0.5 Z"/></g>
<g><path style="opacity:0.99" fill="#000000" d="M 2748.5,142.5 C 2772.17,142.5 2795.83,142.5 2819.5,142.5C 2820.09,183.897 2819.26,225.231 2817,266.5C 2837.07,246.719 2861.24,236.052 2889.5,234.5C 2928.62,235.447 2952.12,255.114 2960,293.5C 2961.54,300.422 2962.54,307.422 2963,314.5C 2963.5,369.499 2963.67,424.499 2963.5,479.5C 2939.83,479.5 2916.17,479.5 2892.5,479.5C 2892.95,427.48 2892.45,375.48 2891,323.5C 2890.09,305.642 2880.76,296.308 2863,295.5C 2854.23,296.066 2846.07,298.566 2838.5,303C 2832.04,307.79 2825.87,312.957 2820,318.5C 2819.5,372.166 2819.33,425.832 2819.5,479.5C 2795.83,479.5 2772.17,479.5 2748.5,479.5C 2748.5,367.167 2748.5,254.833 2748.5,142.5 Z"/></g>
<g><path style="opacity:0.98" fill="#000000" d="M 1590.5,159.5 C 1630.99,158.929 1665.33,172.929 1693.5,201.5C 1680.52,216.316 1667.35,230.982 1654,245.5C 1628.09,221.851 1598.59,216.018 1565.5,228C 1542.41,239.087 1527.25,256.92 1520,281.5C 1511.89,312.804 1512.89,343.804 1523,374.5C 1535.58,403.742 1557.75,419.909 1589.5,423C 1598.88,423.816 1608.21,423.483 1617.5,422C 1623.56,420.651 1629.06,418.151 1634,414.5C 1634.5,396.836 1634.67,379.17 1634.5,361.5C 1617.17,361.5 1599.83,361.5 1582.5,361.5C 1582.5,341.833 1582.5,322.167 1582.5,302.5C 1621.17,302.5 1659.83,302.5 1698.5,302.5C 1698.67,351.168 1698.5,399.834 1698,448.5C 1650.57,484.518 1598.07,494.351 1540.5,478C 1489.71,460.202 1458.21,425.035 1446,372.5C 1436.97,330.596 1439.97,289.596 1455,249.5C 1482.16,192.526 1527.33,162.526 1590.5,159.5 Z"/></g>
<g><path style="opacity:0.982" fill="#000000" d="M 1850.5,234.5 C 1913.35,233.181 1947.18,263.848 1952,326.5C 1952.5,377.499 1952.67,428.499 1952.5,479.5C 1932.83,479.5 1913.17,479.5 1893.5,479.5C 1892.49,471.256 1890.65,463.256 1888,455.5C 1865.6,477.28 1838.76,487.114 1807.5,485C 1776.22,480.05 1756.72,462.217 1749,431.5C 1741.83,396.372 1753.33,369.539 1783.5,351C 1799.3,342.623 1815.96,336.623 1833.5,333C 1848.38,329.908 1863.38,327.575 1878.5,326C 1880.87,314.683 1877.21,305.35 1867.5,298C 1863.47,295.545 1859.14,293.879 1854.5,293C 1837.44,291.146 1821.1,293.813 1805.5,301C 1797.24,305.047 1789.07,309.213 1781,313.5C 1772.12,298.253 1763.62,282.753 1755.5,267C 1784.35,247.883 1816.02,237.049 1850.5,234.5 Z M 1874.5,369.5 C 1876.83,369.5 1879.17,369.5 1881.5,369.5C 1881.67,382.837 1881.5,396.171 1881,409.5C 1871.08,421.874 1858.25,428.54 1842.5,429.5C 1818.7,428.567 1810.87,416.901 1819,394.5C 1824.37,387.476 1831.2,382.309 1839.5,379C 1851.08,375.024 1862.75,371.857 1874.5,369.5 Z"/></g>
<g><path style="opacity:0.99" fill="#000000" d="M 2148.5,234.5 C 2186.3,232.629 2210.8,249.629 2222,285.5C 2224.53,294.679 2226.2,304.012 2227,313.5C 2227.5,368.832 2227.67,424.166 2227.5,479.5C 2203.83,479.5 2180.17,479.5 2156.5,479.5C 2156.94,427.148 2156.44,374.814 2155,322.5C 2153.77,305.341 2144.6,296.341 2127.5,295.5C 2118.55,295.986 2110.22,298.486 2102.5,303C 2096.04,307.79 2089.87,312.957 2084,318.5C 2083.5,372.166 2083.33,425.832 2083.5,479.5C 2059.83,479.5 2036.17,479.5 2012.5,479.5C 2012.5,399.833 2012.5,320.167 2012.5,240.5C 2031.84,240.167 2051.18,240.5 2070.5,241.5C 2071.97,251.309 2073.97,260.976 2076.5,270.5C 2091.62,255.601 2109.29,244.767 2129.5,238C 2135.91,236.438 2142.24,235.271 2148.5,234.5 Z"/></g>
<g><path style="opacity:0.982" fill="#000000" d="M 2380.5,234.5 C 2438.96,234.454 2473.79,263.121 2485,320.5C 2488.33,339.833 2488.33,359.167 2485,378.5C 2437.57,379.497 2390.07,379.83 2342.5,379.5C 2346.81,407.978 2363.14,424.811 2391.5,430C 2413.53,432.595 2433.86,427.928 2452.5,416C 2453.5,415.333 2454.5,415.333 2455.5,416C 2463.43,429.856 2471.09,443.856 2478.5,458C 2444.43,481.884 2406.76,490.217 2365.5,483C 2314.47,470.971 2284.3,439.138 2275,387.5C 2267.24,343.215 2277.57,303.882 2306,269.5C 2326.64,248.763 2351.47,237.097 2380.5,234.5 Z M 2381.5,289.5 C 2411.89,289.554 2426.89,304.887 2426.5,335.5C 2398.16,335.833 2369.83,335.5 2341.5,334.5C 2345.11,310.571 2358.44,295.571 2381.5,289.5 Z"/></g>
<g><path style="opacity:0.977" fill="#000000" d="M 2611.5,234.5 C 2645.67,233.889 2676,244.222 2702.5,265.5C 2692.08,280.012 2681.41,294.345 2670.5,308.5C 2661.27,301.716 2651.27,296.216 2640.5,292C 2629.34,288.306 2618.01,287.639 2606.5,290C 2594.65,294.528 2591.15,302.695 2596,314.5C 2602.12,320.613 2609.29,325.113 2617.5,328C 2639.48,334.65 2660.15,343.983 2679.5,356C 2702.05,375.363 2709.55,399.529 2702,428.5C 2694.78,452.055 2679.61,468.222 2656.5,477C 2604.63,493.756 2557.29,485.423 2514.5,452C 2524.6,436.735 2535.27,421.902 2546.5,407.5C 2560.74,418.785 2576.74,426.618 2594.5,431C 2607.01,433.848 2619.01,432.514 2630.5,427C 2640.36,416.689 2639.69,407.022 2628.5,398C 2613.11,389.647 2597.11,382.647 2580.5,377C 2560.41,369.232 2544.58,356.398 2533,338.5C 2520.15,306.389 2526.32,278.556 2551.5,255C 2569.54,242.326 2589.54,235.493 2611.5,234.5 Z"/></g>
<g><path style="opacity:0.979" fill="#000000" d="M 3117.5,234.5 C 3137.78,233.713 3157.12,237.546 3175.5,246C 3198.34,260.148 3211.84,280.648 3216,307.5C 3217.71,317.092 3218.71,326.759 3219,336.5C 3219.5,384.166 3219.67,431.832 3219.5,479.5C 3199.82,479.833 3180.16,479.5 3160.5,478.5C 3158.75,470.761 3156.75,463.094 3154.5,455.5C 3134.97,474.265 3111.63,484.265 3084.5,485.5C 3054.6,485.39 3033.1,472.057 3020,445.5C 3011.05,423.338 3011.38,401.338 3021,379.5C 3028.73,366.047 3039.57,355.88 3053.5,349C 3071.35,340.536 3090.02,334.536 3109.5,331C 3122.13,328.838 3134.8,327.005 3147.5,325.5C 3146.83,307.607 3137.83,296.774 3120.5,293C 3101.84,291.081 3084.18,294.414 3067.5,303C 3060.68,306.245 3054.01,309.745 3047.5,313.5C 3038.6,298.029 3029.93,282.363 3021.5,266.5C 3050.93,247.765 3082.93,237.099 3117.5,234.5 Z M 3141.5,369.5 C 3143.5,369.5 3145.5,369.5 3147.5,369.5C 3147.67,383.171 3147.5,396.837 3147,410.5C 3140.62,417.545 3133.12,423.045 3124.5,427C 3112.52,430.872 3100.85,430.205 3089.5,425C 3078.13,410.893 3079.46,397.893 3093.5,386C 3108.42,377.194 3124.42,371.694 3141.5,369.5 Z"/></g>
<g><path style="opacity:0.997" fill="#f4ba33" d="M 563.5,388.5 C 620.337,386.107 669.004,404.607 709.5,444C 665.5,488 621.5,532 577.5,576C 639.832,576.5 702.166,576.667 764.5,576.5C 761.189,655.336 724.522,712.502 654.5,748C 593.671,773.173 534.671,769.506 477.5,737C 414.966,695.099 385.466,636.265 389,560.5C 396.578,494.122 429.078,444.288 486.5,411C 510.8,398.347 536.467,390.847 563.5,388.5 Z"/></g>
<g><path style="opacity:0.97" fill="#000000" d="M 2945.5,544.5 C 2962.52,541.725 2977.02,546.392 2989,558.5C 3000.08,576.49 2998.58,593.323 2984.5,609C 2969.27,619.277 2952.94,621.277 2935.5,615C 2913.92,602.24 2908.42,584.407 2919,561.5C 2925.69,552.41 2934.52,546.743 2945.5,544.5 Z"/></g>
<g><path style="opacity:0.983" fill="#000000" d="M 1565.5,572.5 C 1660.63,569.124 1713.8,614.79 1725,709.5C 1729.83,753.203 1722.16,794.536 1702,833.5C 1678.42,871.351 1644.25,892.518 1599.5,897C 1517.09,901.235 1465.92,863.402 1446,783.5C 1436.93,739.627 1439.93,696.627 1455,654.5C 1476.35,606.322 1513.18,578.988 1565.5,572.5 Z M 1572.5,634.5 C 1606.55,631.605 1630.05,645.938 1643,677.5C 1654.06,710.752 1655.39,744.418 1647,778.5C 1641.67,801.029 1629.17,818.195 1609.5,830C 1568.85,843.226 1540.35,830.059 1524,790.5C 1513.35,758.322 1511.68,725.655 1519,692.5C 1523.34,674.635 1532.18,659.468 1545.5,647C 1553.83,641.165 1562.83,636.998 1572.5,634.5 Z"/></g>
<g><path style="opacity:0.983" fill="#000000" d="M 2757.5,589.5 C 2777.17,589.5 2796.83,589.5 2816.5,589.5C 2816.5,610.5 2816.5,631.5 2816.5,652.5C 2835.5,652.5 2854.5,652.5 2873.5,652.5C 2873.5,671.5 2873.5,690.5 2873.5,709.5C 2854.5,709.5 2835.5,709.5 2816.5,709.5C 2816.33,742.835 2816.5,776.168 2817,809.5C 2818.42,832.588 2830.58,843.088 2853.5,841C 2859.01,840.122 2864.35,838.622 2869.5,836.5C 2873.63,853.804 2877.63,871.137 2881.5,888.5C 2855.44,897.737 2828.77,899.903 2801.5,895C 2773.16,887.323 2755.66,869.156 2749,840.5C 2747.48,834.248 2746.48,827.914 2746,821.5C 2745.5,784.168 2745.33,746.835 2745.5,709.5C 2734.5,709.5 2723.5,709.5 2712.5,709.5C 2712.5,691.5 2712.5,673.5 2712.5,655.5C 2724.87,654.856 2737.21,653.856 2749.5,652.5C 2751.76,631.434 2754.42,610.434 2757.5,589.5 Z"/></g>
<g><path style="opacity:0.985" fill="#000000" d="M 1909.5,646.5 C 1954.33,648.85 1983.5,671.517 1997,714.5C 2007.8,753.156 2006.8,791.49 1994,829.5C 1983.1,857.398 1964.26,877.898 1937.5,891C 1904.32,903.805 1874.65,898.305 1848.5,874.5C 1848.17,875.333 1847.83,876.167 1847.5,877C 1848.23,883.143 1848.73,889.309 1849,895.5C 1849.5,923.831 1849.67,952.165 1849.5,980.5C 1825.83,980.5 1802.17,980.5 1778.5,980.5C 1778.5,871.167 1778.5,761.833 1778.5,652.5C 1797.84,652.333 1817.17,652.5 1836.5,653C 1838.43,660.834 1840.43,668.667 1842.5,676.5C 1861.43,658.752 1883.76,648.752 1909.5,646.5 Z M 1884.5,705.5 C 1908.78,704.273 1923.28,715.606 1928,739.5C 1931.84,761.982 1931.18,784.315 1926,806.5C 1915.65,835.756 1895.82,845.256 1866.5,835C 1860.21,832.275 1854.71,828.442 1850,823.5C 1849.33,791.5 1849.33,759.5 1850,727.5C 1859.13,716.198 1870.63,708.865 1884.5,705.5 Z"/></g>
<g><path style="opacity:0.978" fill="#000000" d="M 2149.5,646.5 C 2205,647.149 2238.83,674.483 2251,728.5C 2255.37,749.813 2255.53,771.147 2251.5,792.5C 2203.83,792.333 2156.17,792.5 2108.5,793C 2118.4,831.188 2143.07,847.522 2182.5,842C 2195.8,839.846 2208.14,835.18 2219.5,828C 2220.64,827.251 2221.64,827.417 2222.5,828.5C 2230.17,842.5 2237.83,856.5 2245.5,870.5C 2202.03,899.726 2155.69,905.226 2106.5,887C 2068.35,867.903 2046.51,837.07 2041,794.5C 2034.86,752.393 2045.19,715.06 2072,682.5C 2093.29,660.605 2119.12,648.605 2149.5,646.5 Z M 2150.5,701.5 C 2163.21,700.708 2174.04,704.708 2183,713.5C 2189.89,723.722 2193.39,735.055 2193.5,747.5C 2165.17,747.5 2136.83,747.5 2108.5,747.5C 2111.6,721.816 2125.6,706.483 2150.5,701.5 Z"/></g>
<g><path style="opacity:0.983" fill="#000000" d="M 2432.5,646.5 C 2442.36,646.758 2452.03,648.258 2461.5,651C 2462.52,651.519 2463.18,652.353 2463.5,653.5C 2459.32,673.418 2455.65,693.418 2452.5,713.5C 2414.72,703.138 2388.56,716.138 2374,752.5C 2373.5,799.165 2373.33,845.832 2373.5,892.5C 2349.83,892.5 2326.17,892.5 2302.5,892.5C 2302.5,812.5 2302.5,732.5 2302.5,652.5C 2321.83,652.5 2341.17,652.5 2360.5,652.5C 2362,666.538 2363.84,680.538 2366,694.5C 2376.69,674.81 2392.19,660.31 2412.5,651C 2419.14,648.774 2425.81,647.274 2432.5,646.5 Z"/></g>
<g><path style="opacity:0.978" fill="#000000" d="M 2578.5,646.5 C 2632.94,645.795 2664.78,672.128 2674,725.5C 2675,733.471 2675.66,741.471 2676,749.5C 2676.67,796.833 2676.67,844.167 2676,891.5C 2656.58,892.493 2637.08,892.826 2617.5,892.5C 2615.86,884.133 2614.03,875.8 2612,867.5C 2595.44,883.035 2575.94,892.869 2553.5,897C 2517.64,901.326 2491.8,887.493 2476,855.5C 2461.51,808.65 2476.68,775.484 2521.5,756C 2547.66,746.301 2574.66,740.301 2602.5,738C 2604,720.139 2595.67,709.139 2577.5,705C 2560.79,703.341 2544.79,706.008 2529.5,713C 2520.93,717.625 2512.26,721.625 2503.5,725C 2495.42,709.507 2487.09,694.173 2478.5,679C 2509.01,659.217 2542.35,648.383 2578.5,646.5 Z M 2598.5,781.5 C 2600.5,781.5 2602.5,781.5 2604.5,781.5C 2604.67,795.171 2604.5,808.837 2604,822.5C 2593.86,834.321 2581.03,840.987 2565.5,842.5C 2542.63,840.726 2534.79,829.06 2542,807.5C 2547.38,799.722 2554.54,794.222 2563.5,791C 2575.08,787.024 2586.75,783.857 2598.5,781.5 Z"/></g>
<g><path style="opacity:0.982" fill="#000000" d="M 3152.5,646.5 C 3209.06,648.515 3246.56,676.181 3265,729.5C 3271.11,753.941 3272.11,778.608 3268,803.5C 3255.46,856.706 3222.3,887.873 3168.5,897C 3118.38,901.122 3080.21,881.955 3054,839.5C 3040.48,812.725 3035.48,784.391 3039,754.5C 3045.47,700.042 3074.97,665.208 3127.5,650C 3135.92,648.361 3144.25,647.195 3152.5,646.5 Z M 3146.5,705.5 C 3170.42,703.263 3185.92,713.596 3193,736.5C 3197.24,753.586 3198.58,770.919 3197,788.5C 3196.12,806.182 3189.28,821.015 3176.5,833C 3157.38,843.672 3140.21,841.172 3125,825.5C 3118.64,815.743 3114.64,805.077 3113,793.5C 3109.88,772.747 3111.54,752.414 3118,732.5C 3123.21,718.786 3132.71,709.786 3146.5,705.5 Z"/></g>
<g><path style="opacity:0.981" fill="#000000" d="M 3457.5,646.5 C 3501.48,647.972 3526.31,670.638 3532,714.5C 3533.05,723.469 3533.72,732.469 3534,741.5C 3534.67,791.5 3534.67,841.5 3534,891.5C 3510.24,892.494 3486.41,892.828 3462.5,892.5C 3462.96,839.141 3462.46,785.808 3461,732.5C 3456.92,712.525 3444.75,704.691 3424.5,709C 3410.67,712.838 3399.17,720.338 3390,731.5C 3389.5,785.166 3389.33,838.832 3389.5,892.5C 3365.83,892.5 3342.17,892.5 3318.5,892.5C 3318.5,812.5 3318.5,732.5 3318.5,652.5C 3337.84,652.333 3357.17,652.5 3376.5,653C 3378.6,663.078 3380.43,673.245 3382,683.5C 3398.34,666.744 3417.84,655.244 3440.5,649C 3446.3,648.109 3451.97,647.275 3457.5,646.5 Z"/></g>
<g><path style="opacity:0.973" fill="#000000" d="M 2919.5,652.5 C 2943.5,652.5 2967.5,652.5 2991.5,652.5C 2991.67,732.167 2991.5,811.834 2991,891.5C 2967.24,892.494 2943.41,892.828 2919.5,892.5C 2919.5,812.5 2919.5,732.5 2919.5,652.5 Z"/></g>
<g><path style="opacity:0.933" fill="#000000" d="M 1590.5,1031.5 C 1592.2,1032.02 1593.53,1033.02 1594.5,1034.5C 1580.61,1055.03 1571.11,1077.36 1566,1101.5C 1572.58,1092.91 1580.42,1085.75 1589.5,1080C 1603.91,1076.08 1610.41,1081.58 1609,1096.5C 1603.83,1114.87 1600.16,1133.54 1598,1152.5C 1590.51,1154.42 1583.01,1156.42 1575.5,1158.5C 1575.2,1138.67 1579.2,1119.67 1587.5,1101.5C 1586.79,1099.95 1585.62,1098.95 1584,1098.5C 1572.32,1105.16 1564.98,1115.16 1562,1128.5C 1560.12,1137.14 1558.45,1145.8 1557,1154.5C 1555.31,1158.21 1552.48,1159.38 1548.5,1158C 1540.98,1154.29 1536.65,1148.29 1535.5,1140C 1537.62,1132.58 1540.46,1125.42 1544,1118.5C 1546.45,1095.59 1551.45,1073.26 1559,1051.5C 1560.3,1047.73 1562.47,1044.56 1565.5,1042C 1573,1036.24 1581.34,1032.74 1590.5,1031.5 Z"/></g>
<g><path style="opacity:0.938" fill="#000000" d="M 2171.5,1192.5 C 2168.83,1192.5 2166.17,1192.5 2163.5,1192.5C 2161.51,1184.32 2161.01,1175.99 2162,1167.5C 2166.88,1140.68 2169.88,1113.68 2171,1086.5C 2173.46,1084.79 2176.12,1083.46 2179,1082.5C 2184.13,1067.09 2190.8,1052.42 2199,1038.5C 2201.42,1035.57 2204.26,1033.23 2207.5,1031.5C 2217.4,1035.97 2221.57,1043.63 2220,1054.5C 2211.32,1062.71 2204.48,1072.21 2199.5,1083C 2204.15,1083.5 2208.82,1083.67 2213.5,1083.5C 2213.28,1087.18 2212.94,1090.85 2212.5,1094.5C 2206.82,1094.33 2201.16,1094.5 2195.5,1095C 2189.41,1108.18 2185.58,1122.01 2184,1136.5C 2183.97,1150.18 2184.31,1163.85 2185,1177.5C 2184.11,1180.95 2182.44,1183.95 2180,1186.5C 2177.26,1188.75 2174.43,1190.75 2171.5,1192.5 Z"/></g>
<g><path style="opacity:0.935" fill="#000000" d="M 2363.5,1031.5 C 2366.08,1032.69 2366.91,1034.69 2366,1037.5C 2352.54,1057.41 2343.21,1079.08 2338,1102.5C 2343.47,1096.03 2349.3,1089.86 2355.5,1084C 2361.39,1079.26 2368.06,1077.59 2375.5,1079C 2379.65,1081.96 2381.98,1085.96 2382.5,1091C 2381.16,1100.36 2378.99,1109.53 2376,1118.5C 2374.05,1129.79 2372.39,1141.13 2371,1152.5C 2362.91,1154.73 2354.74,1156.73 2346.5,1158.5C 2347.87,1138.68 2352.54,1119.68 2360.5,1101.5C 2359.52,1100.02 2358.35,1098.69 2357,1097.5C 2347.52,1103.12 2340.85,1111.12 2337,1121.5C 2333.59,1131.93 2331.26,1142.6 2330,1153.5C 2326.99,1159.17 2322.82,1160 2317.5,1156C 2312.24,1151.64 2308.9,1146.14 2307.5,1139.5C 2310.94,1132.28 2314.11,1124.95 2317,1117.5C 2319.36,1093.02 2325.03,1069.35 2334,1046.5C 2342.23,1038.14 2352.06,1033.14 2363.5,1031.5 Z"/></g>
<g><path style="opacity:0.936" fill="#000000" d="M 3204.5,1032.5 C 3208.19,1031.97 3211.36,1032.97 3214,1035.5C 3219.14,1041.59 3221.47,1048.59 3221,1056.5C 3216.88,1066.08 3212.21,1075.41 3207,1084.5C 3198.69,1106.57 3196.53,1129.24 3200.5,1152.5C 3193.33,1155.11 3186,1157.11 3178.5,1158.5C 3176.54,1114.29 3185.21,1072.29 3204.5,1032.5 Z"/></g>
<g><path style="opacity:0.929" fill="#000000" d="M 1783.5,1036.5 C 1784.68,1036.28 1785.68,1036.61 1786.5,1037.5C 1784.42,1052.62 1781.92,1067.62 1779,1082.5C 1788.02,1068.48 1798.19,1055.31 1809.5,1043C 1811.83,1041.33 1814.17,1039.67 1816.5,1038C 1819.63,1037.21 1822.63,1037.54 1825.5,1039C 1830.8,1043.3 1835.8,1047.97 1840.5,1053C 1830.54,1059.29 1822.21,1067.29 1815.5,1077C 1807.21,1076.39 1805.54,1072.73 1810.5,1066C 1803.65,1068.81 1797.82,1073.31 1793,1079.5C 1797.96,1104.08 1808.79,1125.75 1825.5,1144.5C 1820.8,1150.21 1815.46,1155.21 1809.5,1159.5C 1793.89,1144.11 1783.89,1125.61 1779.5,1104C 1780.33,1100.5 1781.17,1097 1782,1093.5C 1785.12,1088.72 1784.45,1088.39 1780,1092.5C 1777.14,1096.89 1774.81,1101.55 1773,1106.5C 1768.46,1122.99 1763.46,1139.33 1758,1155.5C 1754.46,1159.22 1750.63,1159.38 1746.5,1156C 1742.85,1150.53 1739.85,1144.69 1737.5,1138.5C 1738.71,1132.31 1740.55,1126.31 1743,1120.5C 1754.59,1103.72 1760.59,1085.06 1761,1064.5C 1761.5,1057.17 1761.67,1049.84 1761.5,1042.5C 1769.11,1041.1 1776.44,1039.1 1783.5,1036.5 Z"/></g>
<g><path style="opacity:0.932" fill="#000000" d="M 2575.5,1036.5 C 2584.17,1036.74 2592.84,1037.07 2601.5,1037.5C 2599.71,1044.88 2597.71,1052.22 2595.5,1059.5C 2582.89,1057.68 2570.23,1057.18 2557.5,1058C 2551.18,1071.3 2546.68,1085.14 2544,1099.5C 2546.21,1097.63 2548.04,1095.46 2549.5,1093C 2561.36,1090.38 2573.36,1089.21 2585.5,1089.5C 2583.47,1096.73 2580.47,1103.56 2576.5,1110C 2564.89,1108.38 2553.23,1108.22 2541.5,1109.5C 2539.44,1123.42 2538.11,1137.42 2537.5,1151.5C 2529.28,1154.07 2521.11,1156.74 2513,1159.5C 2515.68,1128.44 2522.01,1098.1 2532,1068.5C 2535.57,1065.3 2539.4,1062.47 2543.5,1060C 2537.82,1060.56 2532.16,1061.22 2526.5,1062C 2528.8,1056.57 2530.96,1051.07 2533,1045.5C 2536.8,1043.17 2540.97,1041.67 2545.5,1041C 2555.56,1038.87 2565.56,1037.37 2575.5,1036.5 Z"/></g>
<g><path style="opacity:0.931" fill="#000000" d="M 3068.5,1036.5 C 3084.56,1035.69 3098.89,1040.19 3111.5,1050C 3107.79,1056.58 3103.96,1063.08 3100,1069.5C 3091.08,1063.79 3081.58,1059.29 3071.5,1056C 3064.99,1054.24 3059.49,1055.74 3055,1060.5C 3053.83,1062.33 3052.67,1064.17 3051.5,1066C 3054.36,1071.87 3058.36,1076.87 3063.5,1081C 3069.83,1085.33 3076.17,1089.67 3082.5,1094C 3094.3,1104.11 3096.8,1116.28 3090,1130.5C 3069.98,1162.54 3044.81,1167.21 3014.5,1144.5C 3018.17,1137.83 3021.83,1131.17 3025.5,1124.5C 3035.34,1131.39 3046.18,1136.06 3058,1138.5C 3066.1,1137.2 3072.26,1133.03 3076.5,1126C 3063.43,1114.05 3050.26,1102.22 3037,1090.5C 3032.7,1083.03 3032.36,1075.36 3036,1067.5C 3042.53,1052.47 3053.36,1042.14 3068.5,1036.5 Z"/></g>
<g><path style="opacity:0.936" fill="#000000" d="M 1484.5,1038.5 C 1505.24,1044.49 1526.08,1044.49 1547,1038.5C 1548.17,1038.83 1549.33,1039.17 1550.5,1039.5C 1548.39,1045.77 1546.06,1051.93 1543.5,1058C 1534.72,1060.89 1525.72,1062.89 1516.5,1064C 1519.04,1065.43 1521.37,1067.1 1523.5,1069C 1513.48,1095.15 1509.81,1122.15 1512.5,1150C 1512.09,1150.95 1511.43,1151.61 1510.5,1152C 1502.49,1154.17 1494.49,1156.33 1486.5,1158.5C 1485.41,1143.36 1486.58,1128.36 1490,1113.5C 1493.45,1097.31 1497.62,1081.31 1502.5,1065.5C 1493.81,1063.79 1485.14,1061.62 1476.5,1059C 1479.27,1052.19 1481.93,1045.36 1484.5,1038.5 Z"/></g>
<g><path style="opacity:0.885" fill="#000000" d="M 1867.5,1044.5 C 1870.12,1044.23 1872.62,1044.56 1875,1045.5C 1875.63,1052.19 1877.46,1058.52 1880.5,1064.5C 1873.63,1066.45 1866.63,1066.95 1859.5,1066C 1852.98,1063.09 1851.81,1058.59 1856,1052.5C 1859.48,1049.16 1863.32,1046.49 1867.5,1044.5 Z"/></g>
<g><path style="opacity:0.901" fill="#000000" d="M 3386.5,1044.5 C 3389.36,1044.05 3391.86,1044.72 3394,1046.5C 3394.41,1053.13 3395.91,1059.47 3398.5,1065.5C 3391.86,1066.5 3385.19,1066.66 3378.5,1066C 3372.38,1063.73 3370.88,1059.56 3374,1053.5C 3377.3,1049.12 3381.47,1046.12 3386.5,1044.5 Z"/></g>
<g><path style="opacity:0.926" fill="#000000" d="M 2295.5,1063.5 C 2296.83,1063.5 2298.17,1063.5 2299.5,1063.5C 2297.67,1070.83 2295.33,1078 2292.5,1085C 2298.84,1085.35 2305.17,1085.18 2311.5,1084.5C 2310.8,1088.1 2309.8,1091.6 2308.5,1095C 2302.18,1095.5 2295.84,1095.67 2289.5,1095.5C 2287.6,1105.81 2285.77,1116.14 2284,1126.5C 2283.33,1130.83 2283.33,1135.17 2284,1139.5C 2284.41,1141.41 2285.57,1142.41 2287.5,1142.5C 2291.7,1141.27 2295.86,1139.93 2300,1138.5C 2300.5,1138.83 2301,1139.17 2301.5,1139.5C 2300.5,1143.35 2298.83,1146.85 2296.5,1150C 2290.27,1154.69 2283.27,1157.52 2275.5,1158.5C 2270.91,1158.4 2267.41,1156.4 2265,1152.5C 2259.69,1142.18 2259.03,1131.51 2263,1120.5C 2265.17,1112.48 2267.34,1104.48 2269.5,1096.5C 2266.5,1096.5 2263.5,1096.5 2260.5,1096.5C 2261.33,1092.86 2261.99,1089.2 2262.5,1085.5C 2266.47,1084.84 2270.47,1084.5 2274.5,1084.5C 2276.03,1079.09 2277.86,1073.76 2280,1068.5C 2285.23,1066.74 2290.4,1065.07 2295.5,1063.5 Z"/></g>
<g><path style="opacity:0.928" fill="#000000" d="M 2771.5,1063.5 C 2773.2,1063.34 2774.87,1063.51 2776.5,1064C 2773.67,1071 2771.33,1078.17 2769.5,1085.5C 2775.51,1085.3 2781.51,1084.97 2787.5,1084.5C 2787.25,1088.25 2786.58,1091.92 2785.5,1095.5C 2779.13,1095.17 2772.8,1095.5 2766.5,1096.5C 2763.27,1108.66 2760.94,1120.99 2759.5,1133.5C 2760.04,1136.21 2760.71,1138.87 2761.5,1141.5C 2762.17,1141.83 2762.83,1142.17 2763.5,1142.5C 2768.25,1141.36 2772.92,1140.02 2777.5,1138.5C 2777.51,1143.64 2775.51,1147.8 2771.5,1151C 2763.7,1157.16 2755.03,1159.16 2745.5,1157C 2741.85,1153.55 2739.35,1149.38 2738,1144.5C 2737.24,1128.03 2740.07,1112.2 2746.5,1097C 2743.17,1096.67 2739.83,1096.33 2736.5,1096C 2737.56,1093.26 2738.39,1090.43 2739,1087.5C 2739.52,1086.48 2740.35,1085.82 2741.5,1085.5C 2744.54,1085.02 2747.54,1084.35 2750.5,1083.5C 2752.5,1078.5 2754.5,1073.5 2756.5,1068.5C 2761.54,1066.66 2766.54,1065 2771.5,1063.5 Z"/></g>
<g><path style="opacity:0.926" fill="#000000" d="M 2960.5,1063.5 C 2961.83,1063.5 2963.17,1063.5 2964.5,1063.5C 2962.67,1070.83 2960.33,1078 2957.5,1085C 2963.84,1085.35 2970.17,1085.18 2976.5,1084.5C 2976.04,1088.17 2975.04,1091.67 2973.5,1095C 2967.18,1095.5 2960.84,1095.67 2954.5,1095.5C 2952.48,1106.12 2950.64,1116.78 2949,1127.5C 2948.33,1131.5 2948.33,1135.5 2949,1139.5C 2949.41,1141.41 2950.57,1142.41 2952.5,1142.5C 2956.7,1141.27 2960.86,1139.93 2965,1138.5C 2966.15,1142.67 2964.99,1146.5 2961.5,1150C 2955.42,1155.04 2948.42,1157.87 2940.5,1158.5C 2935.93,1158.44 2932.43,1156.44 2930,1152.5C 2925.44,1143.91 2924.44,1134.91 2927,1125.5C 2929.35,1115.78 2931.85,1106.11 2934.5,1096.5C 2931.5,1096.5 2928.5,1096.5 2925.5,1096.5C 2926.33,1092.86 2926.99,1089.2 2927.5,1085.5C 2931.47,1084.84 2935.47,1084.5 2939.5,1084.5C 2941.03,1079.09 2942.86,1073.76 2945,1068.5C 2950.23,1066.74 2955.4,1065.07 2960.5,1063.5 Z"/></g>
<g><path style="opacity:0.927" fill="#000000" d="M 3337.5,1063.5 C 3339.2,1063.34 3340.87,1063.51 3342.5,1064C 3339.67,1071 3337.33,1078.17 3335.5,1085.5C 3341.51,1085.3 3347.51,1084.97 3353.5,1084.5C 3352.99,1088.2 3352.33,1091.86 3351.5,1095.5C 3345.13,1095.17 3338.8,1095.5 3332.5,1096.5C 3329.27,1108.65 3326.94,1120.99 3325.5,1133.5C 3325.94,1136.18 3326.44,1138.85 3327,1141.5C 3327.72,1142.06 3328.56,1142.39 3329.5,1142.5C 3334.25,1141.36 3338.92,1140.02 3343.5,1138.5C 3342.35,1147.5 3337.35,1153.33 3328.5,1156C 3315.76,1161.76 3307.59,1157.92 3304,1144.5C 3303.33,1138.83 3303.33,1133.17 3304,1127.5C 3306.35,1117.1 3308.85,1106.77 3311.5,1096.5C 3308.43,1096.82 3305.43,1096.48 3302.5,1095.5C 3303.65,1092.55 3304.65,1089.55 3305.5,1086.5C 3309.08,1085.23 3312.75,1084.23 3316.5,1083.5C 3318.5,1078.5 3320.5,1073.5 3322.5,1068.5C 3327.54,1066.66 3332.54,1065 3337.5,1063.5 Z"/></g>
<g><path style="opacity:0.929" fill="#000000" d="M 1658.5,1077.5 C 1663.51,1077.33 1668.51,1077.5 1673.5,1078C 1678.33,1078.83 1681.17,1081.67 1682,1086.5C 1682.84,1093.57 1682.51,1100.57 1681,1107.5C 1678.2,1112.5 1674.03,1116 1668.5,1118C 1659.3,1120.8 1649.96,1122.97 1640.5,1124.5C 1640.76,1130.86 1643.09,1136.36 1647.5,1141C 1658.11,1138.7 1667.77,1134.2 1676.5,1127.5C 1677.34,1131.48 1677.18,1135.48 1676,1139.5C 1665.2,1150.06 1652.2,1156.4 1637,1158.5C 1631.03,1158.18 1626.37,1155.51 1623,1150.5C 1616.81,1141.77 1615.47,1132.43 1619,1122.5C 1622.17,1112.49 1626.17,1102.82 1631,1093.5C 1638.38,1084.9 1647.55,1079.57 1658.5,1077.5 Z M 1643.5,1113.5 C 1645.85,1105.81 1649.01,1098.48 1653,1091.5C 1655.38,1090.45 1657.88,1089.78 1660.5,1089.5C 1661.06,1095.73 1660.23,1101.73 1658,1107.5C 1654.2,1111.93 1649.37,1113.93 1643.5,1113.5 Z"/></g>
<g><path style="opacity:0.935" fill="#000000" d="M 1907.5,1077.5 C 1908.8,1079.22 1909.47,1081.39 1909.5,1084C 1909.04,1089.23 1908.54,1094.4 1908,1099.5C 1916.75,1087.72 1928.25,1080.56 1942.5,1078C 1946.33,1080.5 1949.5,1083.67 1952,1087.5C 1952.67,1090.17 1952.67,1092.83 1952,1095.5C 1945.47,1113.97 1941.31,1132.97 1939.5,1152.5C 1932.17,1154.5 1924.83,1156.5 1917.5,1158.5C 1916.35,1155.55 1916.18,1152.55 1917,1149.5C 1918.41,1140.45 1920.08,1131.45 1922,1122.5C 1923.36,1115.22 1925.86,1108.39 1929.5,1102C 1928.27,1100.44 1926.77,1099.27 1925,1098.5C 1921.16,1100.09 1917.83,1102.42 1915,1105.5C 1905.88,1118.28 1901.22,1132.61 1901,1148.5C 1896.98,1160.27 1890.65,1161.6 1882,1152.5C 1877.64,1146.64 1876.64,1140.31 1879,1133.5C 1881.86,1129.11 1884.19,1124.45 1886,1119.5C 1887.17,1107.54 1887.84,1095.54 1888,1083.5C 1894.66,1081.72 1901.16,1079.72 1907.5,1077.5 Z"/></g>
<g><path style="opacity:0.932" fill="#000000" d="M 2118.5,1077.5 C 2121.16,1079.15 2123.82,1080.82 2126.5,1082.5C 2132.87,1079.43 2139.54,1077.93 2146.5,1078C 2149.84,1080.67 2151.67,1084.17 2152,1088.5C 2152.95,1117.43 2141.12,1139.6 2116.5,1155C 2107.64,1160.45 2099.81,1159.28 2093,1151.5C 2085.91,1141.8 2083.91,1131.14 2087,1119.5C 2091.69,1101 2102.19,1087 2118.5,1077.5 Z M 2124.5,1090.5 C 2125.82,1090.33 2126.99,1090.66 2128,1091.5C 2132.47,1104.95 2130.8,1117.62 2123,1129.5C 2119.37,1134.13 2115.37,1138.47 2111,1142.5C 2108.61,1140.83 2107.44,1138.5 2107.5,1135.5C 2108.98,1122.57 2112.48,1110.24 2118,1098.5C 2120,1095.67 2122.17,1093 2124.5,1090.5 Z"/></g>
<g><path style="opacity:0.928" fill="#000000" d="M 2431.5,1077.5 C 2436.51,1077.33 2441.51,1077.5 2446.5,1078C 2448.87,1078.54 2450.87,1079.7 2452.5,1081.5C 2456.29,1090.73 2456.46,1100.06 2453,1109.5C 2450.41,1112.76 2447.24,1115.26 2443.5,1117C 2433.59,1119.98 2423.59,1122.64 2413.5,1125C 2413.23,1131.95 2416.06,1137.45 2422,1141.5C 2431.95,1138.28 2441.11,1133.61 2449.5,1127.5C 2449.83,1127.83 2450.17,1128.17 2450.5,1128.5C 2449.74,1132.11 2449.24,1135.78 2449,1139.5C 2438.1,1150.03 2425.1,1156.36 2410,1158.5C 2403.47,1158.07 2398.47,1155.07 2395,1149.5C 2390.13,1142.03 2388.8,1134.03 2391,1125.5C 2394.31,1111.73 2400.14,1099.23 2408.5,1088C 2415.25,1082.29 2422.92,1078.79 2431.5,1077.5 Z M 2416.5,1113.5 C 2418.38,1105.74 2421.38,1098.41 2425.5,1091.5C 2428.08,1090.45 2430.75,1089.78 2433.5,1089.5C 2434.03,1096.17 2432.87,1102.51 2430,1108.5C 2426.13,1111.84 2421.63,1113.51 2416.5,1113.5 Z"/></g>
<g><path style="opacity:0.932" fill="#000000" d="M 2628.5,1077.5 C 2633.37,1079.53 2637.87,1082.2 2642,1085.5C 2650.34,1076.79 2657.34,1077.79 2663,1088.5C 2663.67,1091.5 2663.67,1094.5 2663,1097.5C 2659.94,1104.62 2656.61,1111.62 2653,1118.5C 2651.65,1130.22 2653.48,1141.39 2658.5,1152C 2652.45,1154.35 2646.29,1156.52 2640,1158.5C 2639.5,1158.17 2639,1157.83 2638.5,1157.5C 2635.65,1149.76 2634.15,1141.76 2634,1133.5C 2627.46,1143.04 2619.29,1150.88 2609.5,1157C 2605.3,1159.16 2601.3,1158.83 2597.5,1156C 2590.41,1150.43 2586.08,1143.26 2584.5,1134.5C 2586,1126.16 2589.17,1118.49 2594,1111.5C 2603.4,1097.93 2614.9,1086.6 2628.5,1077.5 Z M 2636.5,1092.5 C 2637.24,1092.37 2637.91,1092.54 2638.5,1093C 2635.01,1100.77 2633.18,1108.93 2633,1117.5C 2628.29,1125.22 2622.46,1132.05 2615.5,1138C 2612.91,1138.45 2610.91,1137.45 2609.5,1135C 2613.86,1117.74 2622.86,1103.58 2636.5,1092.5 Z"/></g>
<g><path style="opacity:0.921" fill="#000000" d="M 2698.5,1077.5 C 2711.27,1077.05 2722.61,1080.89 2732.5,1089C 2729.54,1094.42 2726.21,1099.59 2722.5,1104.5C 2716.66,1101.08 2710.66,1097.91 2704.5,1095C 2700.76,1094.07 2697.26,1094.57 2694,1096.5C 2693.83,1098.68 2694.67,1100.51 2696.5,1102C 2704.29,1107.45 2711.79,1113.28 2719,1119.5C 2721.87,1126.55 2721.54,1133.55 2718,1140.5C 2708.28,1158.63 2694.11,1163.13 2675.5,1154C 2671.72,1152.13 2668.39,1149.79 2665.5,1147C 2668.11,1140.95 2671.11,1135.11 2674.5,1129.5C 2682.77,1134.92 2691.77,1138.59 2701.5,1140.5C 2707.05,1139.06 2707.72,1136.56 2703.5,1133C 2695.04,1128.02 2687.21,1122.19 2680,1115.5C 2675.44,1108.9 2675.44,1102.24 2680,1095.5C 2682.33,1092.17 2684.67,1088.83 2687,1085.5C 2690.46,1082.19 2694.3,1079.53 2698.5,1077.5 Z"/></g>
<g><path style="opacity:0.929" fill="#000000" d="M 2826.5,1077.5 C 2831.51,1077.33 2836.51,1077.5 2841.5,1078C 2845.9,1078.73 2848.73,1081.23 2850,1085.5C 2850.86,1093.23 2850.52,1100.9 2849,1108.5C 2846.78,1112.39 2843.61,1115.22 2839.5,1117C 2829.34,1120.29 2819.01,1122.79 2808.5,1124.5C 2808.61,1131.72 2811.61,1137.38 2817.5,1141.5C 2827.22,1138.14 2836.22,1133.47 2844.5,1127.5C 2845.58,1131.85 2845.42,1136.18 2844,1140.5C 2832.91,1150.13 2820.08,1156.13 2805.5,1158.5C 2799.83,1158.42 2795.33,1156.08 2792,1151.5C 2785.62,1143.01 2783.96,1133.68 2787,1123.5C 2790.08,1113.93 2793.75,1104.6 2798,1095.5C 2805.07,1085.55 2814.57,1079.55 2826.5,1077.5 Z M 2825.5,1089.5 C 2826.5,1089.5 2827.5,1089.5 2828.5,1089.5C 2831.44,1103.66 2825.94,1111.99 2812,1114.5C 2813.79,1106.48 2816.79,1098.82 2821,1091.5C 2822.62,1090.9 2824.12,1090.23 2825.5,1089.5 Z"/></g>
<g><path style="opacity:0.921" fill="#000000" d="M 2887.5,1077.5 C 2900.16,1077.16 2911.16,1081.16 2920.5,1089.5C 2917.9,1095.05 2914.56,1100.05 2910.5,1104.5C 2904.94,1100.55 2898.94,1097.39 2892.5,1095C 2881.08,1093.76 2879.42,1096.76 2887.5,1104C 2894.28,1108.45 2900.78,1113.28 2907,1118.5C 2910.42,1126.27 2910.08,1133.94 2906,1141.5C 2896.91,1157.75 2883.74,1162.25 2866.5,1155C 2861.84,1153.01 2857.51,1150.51 2853.5,1147.5C 2856.34,1141.14 2859.68,1135.14 2863.5,1129.5C 2871.62,1134.82 2880.45,1138.49 2890,1140.5C 2892.43,1139.97 2894.26,1138.64 2895.5,1136.5C 2887.72,1130.43 2879.72,1124.6 2871.5,1119C 2863.74,1110.07 2863.58,1100.9 2871,1091.5C 2875.2,1085.12 2880.7,1080.46 2887.5,1077.5 Z"/></g>
<g><path style="opacity:0.931" fill="#000000" d="M 3133.5,1077.5 C 3134.55,1077.35 3135.55,1077.52 3136.5,1078C 3138.05,1079.89 3139.89,1081.39 3142,1082.5C 3146.09,1080.8 3150.26,1079.3 3154.5,1078C 3162.36,1076.19 3166.53,1079.36 3167,1087.5C 3169.46,1106.44 3164.46,1123.11 3152,1137.5C 3144.22,1146.29 3135.06,1153.12 3124.5,1158C 3117.69,1159.17 3112.19,1157.01 3108,1151.5C 3099.18,1138.51 3098.18,1124.84 3105,1110.5C 3111.18,1096.5 3120.68,1085.5 3133.5,1077.5 Z M 3139.5,1090.5 C 3140.83,1090.5 3142.17,1090.5 3143.5,1090.5C 3148.81,1111.55 3142.98,1128.88 3126,1142.5C 3125.59,1142.04 3125.09,1141.71 3124.5,1141.5C 3123.79,1138.97 3123.12,1136.47 3122.5,1134C 3124.5,1122.52 3127.66,1111.35 3132,1100.5C 3134.27,1096.96 3136.77,1093.62 3139.5,1090.5 Z"/></g>
<g><path style="opacity:0.931" fill="#000000" d="M 3251.5,1077.5 C 3252.98,1077.24 3254.31,1077.57 3255.5,1078.5C 3252.39,1097.92 3247.89,1116.92 3242,1135.5C 3243.11,1137.33 3244.61,1138.16 3246.5,1138C 3256.94,1130.31 3263.77,1120.14 3267,1107.5C 3268.2,1098.73 3269.87,1090.07 3272,1081.5C 3272.37,1080.58 3272.87,1079.75 3273.5,1079C 3275.83,1078.33 3278.17,1078.33 3280.5,1079C 3287.34,1083 3291.67,1088.83 3293.5,1096.5C 3290.33,1104.84 3287.16,1113.17 3284,1121.5C 3283.14,1131.74 3283.64,1141.91 3285.5,1152C 3285.36,1152.77 3285.02,1153.44 3284.5,1154C 3277.8,1155.73 3271.13,1157.57 3264.5,1159.5C 3262.96,1151.93 3262.13,1144.26 3262,1136.5C 3254.51,1146.32 3245.01,1153.49 3233.5,1158C 3228.27,1159.47 3224.1,1157.97 3221,1153.5C 3219.69,1151.04 3218.52,1148.54 3217.5,1146C 3224.52,1125.72 3229.19,1104.89 3231.5,1083.5C 3238.37,1081.79 3245.04,1079.79 3251.5,1077.5 Z"/></g>
<g><path style="opacity:0.933" fill="#000000" d="M 3429.5,1077.5 C 3430.55,1077.35 3431.55,1077.52 3432.5,1078C 3434.05,1079.89 3435.89,1081.39 3438,1082.5C 3444.47,1079.17 3451.31,1077.67 3458.5,1078C 3460.89,1079.95 3462.39,1082.45 3463,1085.5C 3466.18,1104.12 3461.84,1120.79 3450,1135.5C 3443.76,1142.41 3436.93,1148.57 3429.5,1154C 3421.39,1160.08 3413.56,1159.91 3406,1153.5C 3396.62,1140.53 3394.95,1126.53 3401,1111.5C 3406.75,1096.92 3416.25,1085.59 3429.5,1077.5 Z M 3436.5,1090.5 C 3438.12,1090.36 3439.29,1091.03 3440,1092.5C 3444.76,1112.99 3438.76,1129.66 3422,1142.5C 3419.98,1140.48 3419.15,1137.98 3419.5,1135C 3420.59,1121.81 3424.09,1109.31 3430,1097.5C 3432.4,1095.27 3434.57,1092.94 3436.5,1090.5 Z"/></g>
<g><path style="opacity:0.933" fill="#000000" d="M 3542.5,1087.5 C 3542.5,1090.5 3542.5,1093.5 3542.5,1096.5C 3538.94,1103.7 3536.44,1111.37 3535,1119.5C 3532.77,1130.44 3530.93,1141.44 3529.5,1152.5C 3521.86,1154.66 3514.2,1156.66 3506.5,1158.5C 3507.47,1146.71 3509.3,1135.04 3512,1123.5C 3513.51,1115.96 3516.01,1108.8 3519.5,1102C 3518.09,1099.55 3516.09,1098.55 3513.5,1099C 3504.56,1105.35 3498.39,1113.85 3495,1124.5C 3493.81,1134.7 3491.81,1144.7 3489,1154.5C 3482.89,1159.99 3477.22,1159.33 3472,1152.5C 3469.8,1148.41 3468.3,1144.07 3467.5,1139.5C 3470.05,1132.74 3472.88,1126.07 3476,1119.5C 3477.2,1107.54 3477.87,1095.54 3478,1083.5C 3484.83,1081.58 3491.67,1079.58 3498.5,1077.5C 3498.83,1080 3499.17,1082.5 3499.5,1085C 3499.35,1089.96 3498.85,1094.79 3498,1099.5C 3506.25,1089.58 3516.41,1082.42 3528.5,1078C 3530.17,1077.33 3531.83,1077.33 3533.5,1078C 3537.08,1080.68 3540.08,1083.85 3542.5,1087.5 Z"/></g>
<g><path style="opacity:0.928" fill="#000000" d="M 1869.5,1078.5 C 1870.68,1078.28 1871.68,1078.61 1872.5,1079.5C 1862.12,1102.7 1856.62,1127.04 1856,1152.5C 1848.57,1154.73 1841.07,1156.73 1833.5,1158.5C 1835.11,1134.61 1839.61,1111.28 1847,1088.5C 1847.57,1086.51 1848.74,1085.01 1850.5,1084C 1857,1082.3 1863.33,1080.46 1869.5,1078.5 Z"/></g>
<g><path style="opacity:0.931" fill="#000000" d="M 1987.5,1192.5 C 1984.5,1192.5 1981.5,1192.5 1978.5,1192.5C 1968.91,1183.07 1969.24,1173.91 1979.5,1165C 1985.37,1161.71 1991.54,1159.21 1998,1157.5C 2002.37,1150.39 2004.71,1142.72 2005,1134.5C 1998.79,1143.71 1990.95,1151.21 1981.5,1157C 1974.12,1160.18 1968.29,1158.35 1964,1151.5C 1956.36,1142.64 1955.03,1132.97 1960,1122.5C 1969.87,1104.3 1983.53,1089.63 2001,1078.5C 2005.39,1081.06 2009.89,1083.39 2014.5,1085.5C 2021.16,1083.17 2027.83,1080.84 2034.5,1078.5C 2035.35,1090.98 2034.19,1103.31 2031,1115.5C 2027.58,1128.93 2023.08,1141.93 2017.5,1154.5C 2020.83,1154.17 2024.17,1153.83 2027.5,1153.5C 2027.5,1156.5 2027.5,1159.5 2027.5,1162.5C 2021.05,1163.86 2014.72,1165.7 2008.5,1168C 2003.79,1178.2 1996.79,1186.37 1987.5,1192.5 Z M 2010.5,1091.5 C 2012.72,1091.56 2013.72,1092.73 2013.5,1095C 2010.48,1113.67 2001.32,1128.51 1986,1139.5C 1984.31,1137.98 1982.81,1136.32 1981.5,1134.5C 1985.98,1116.51 1995.65,1102.17 2010.5,1091.5 Z"/></g>
<g><path style="opacity:0.929" fill="#000000" d="M 3388.5,1078.5 C 3389.5,1078.47 3390.16,1078.97 3390.5,1080C 3380.48,1102.76 3375.31,1126.6 3375,1151.5C 3374.48,1152.52 3373.65,1153.18 3372.5,1153.5C 3365.53,1155.5 3358.53,1157 3351.5,1158C 3353.6,1133.43 3358.6,1109.43 3366.5,1086C 3366.91,1085.05 3367.57,1084.39 3368.5,1084C 3375.37,1082.45 3382.04,1080.62 3388.5,1078.5 Z"/></g>
</svg>
