<?xml version="1.0" encoding="UTF-8"?>
<!DOCTYPE svg PUBLIC "-//W3C//DTD SVG 1.1//EN" "http://www.w3.org/Graphics/SVG/1.1/DTD/svg11.dtd">
<svg xmlns="http://www.w3.org/2000/svg" version="1.1" width="1200px" height="1444px" style="shape-rendering:geometricPrecision; text-rendering:geometricPrecision; image-rendering:optimizeQuality; fill-rule:evenodd; clip-rule:evenodd" xmlns:xlink="http://www.w3.org/1999/xlink">
<g><path style="opacity:0.998" fill="#ff3e00" d="M 724.5,-0.5 C 745.5,-0.5 766.5,-0.5 787.5,-0.5C 935.716,13.9927 1051.22,82.6594 1134,205.5C 1172.76,265.887 1194.6,331.887 1199.5,403.5C 1199.5,419.5 1199.5,435.5 1199.5,451.5C 1195.39,522.175 1174.05,587.175 1135.5,646.5C 1184.1,742.067 1194.6,841.733 1167,945.5C 1140.85,1033.69 1090.35,1104.19 1015.5,1157C 894.003,1234.58 772.336,1311.92 650.5,1389C 592.29,1421.63 529.957,1439.8 463.5,1443.5C 449.167,1443.5 434.833,1443.5 420.5,1443.5C 279.774,1433.23 166.607,1372.57 81,1261.5C 34.0313,1197.44 6.86466,1125.77 -0.5,1046.5C -0.5,1024.5 -0.5,1002.5 -0.5,980.5C 4.85232,913.943 25.8523,852.776 62.5,797C 20.85,717.127 7.01671,632.627 21,543.5C 39.2872,437.698 91.4538,353.198 177.5,290C 299.664,211.417 421.997,133.084 544.5,55C 600.457,23.1808 660.457,4.68078 724.5,-0.5 Z"/></g>
<g><path style="opacity:1" fill="#fffefe" d="M 744.5,163.5 C 851.943,160.466 935.11,203.466 994,292.5C 1036.03,364.182 1042.03,438.849 1012,516.5C 964.254,479.375 911.087,452.375 852.5,435.5C 855.138,410.593 849.305,387.926 835,367.5C 813.455,343.206 786.621,334.04 754.5,340C 745.779,342.352 737.446,345.685 729.5,350C 614.997,423.084 500.664,496.417 386.5,570C 363.1,592.772 356.934,619.605 368,650.5C 387.512,690.672 419.345,706.506 463.5,698C 471.517,695.492 479.184,692.159 486.5,688C 529.997,659.751 573.664,631.751 617.5,604C 676.96,569.529 740.293,559.862 807.5,575C 898.182,598.918 961.682,654.085 998,740.5C 1022.19,808.596 1018.19,874.93 986,939.5C 969.925,967.919 949.092,992.419 923.5,1013C 798.843,1093.67 673.51,1173.33 547.5,1252C 488.376,1280.04 427.042,1286.04 363.5,1270C 277.556,1244.45 217.389,1190.28 183,1107.5C 162.199,1047.47 162.365,987.469 183.5,927.5C 184.365,926.417 185.365,926.251 186.5,927C 233.932,963.551 286.599,990.385 344.5,1007.5C 339.767,1050.55 356.767,1081.38 395.5,1100C 421.467,1109.34 446.134,1106.67 469.5,1092C 580.167,1021.33 690.833,950.667 801.5,880C 825.994,862.498 836.494,838.665 833,808.5C 825.357,774.858 804.857,753.691 771.5,745C 751.506,740.855 732.506,743.522 714.5,753C 667.003,783.583 619.336,813.916 571.5,844C 504.034,877.412 434.367,882.745 362.5,860C 274.549,827.051 217.383,765.551 191,675.5C 170.509,582.993 194.342,504.159 262.5,439C 268.833,434 275.167,429 281.5,424C 402.167,347.333 522.833,270.667 643.5,194C 675.253,177.023 708.92,166.856 744.5,163.5 Z"/></g>
</svg>
