<?xml version="1.0" encoding="UTF-8"?>
<!DOCTYPE svg PUBLIC "-//W3C//DTD SVG 1.1//EN" "http://www.w3.org/Graphics/SVG/1.1/DTD/svg11.dtd">
<svg xmlns="http://www.w3.org/2000/svg" version="1.1" width="800px" height="800px" style="shape-rendering:geometricPrecision; text-rendering:geometricPrecision; image-rendering:optimizeQuality; fill-rule:evenodd; clip-rule:evenodd" xmlns:xlink="http://www.w3.org/1999/xlink">
<g><path style="opacity:1" fill="#512bd4" d="M -0.5,-0.5 C 266.167,-0.5 532.833,-0.5 799.5,-0.5C 799.5,266.167 799.5,532.833 799.5,799.5C 532.833,799.5 266.167,799.5 -0.5,799.5C -0.5,532.833 -0.5,266.167 -0.5,-0.5 Z"/></g>
<g><path style="opacity:1" fill="#fdfdfe" d="M 196.5,299.5 C 209.504,299.333 222.504,299.5 235.5,300C 269.333,353.833 303.167,407.667 337,461.5C 335.544,407.583 335.044,353.583 335.5,299.5C 346.5,299.5 357.5,299.5 368.5,299.5C 368.5,368.833 368.5,438.167 368.5,507.5C 356.162,507.667 343.829,507.5 331.5,507C 296.362,452.555 261.862,397.722 228,342.5C 228.487,397.445 228.654,452.445 228.5,507.5C 217.833,507.5 207.167,507.5 196.5,507.5C 196.5,438.167 196.5,368.833 196.5,299.5 Z"/></g>
<g><path style="opacity:1" fill="#fdfdfe" d="M 521.5,299.5 C 521.5,309.167 521.5,318.833 521.5,328.5C 496.328,328.169 471.328,328.502 446.5,329.5C 446.5,348.833 446.5,368.167 446.5,387.5C 469.833,387.5 493.167,387.5 516.5,387.5C 516.5,397.167 516.5,406.833 516.5,416.5C 493.167,416.5 469.833,416.5 446.5,416.5C 446.5,437.167 446.5,457.833 446.5,478.5C 473.167,478.5 499.833,478.5 526.5,478.5C 526.5,488.167 526.5,497.833 526.5,507.5C 488.5,507.5 450.5,507.5 412.5,507.5C 412.5,438.167 412.5,368.833 412.5,299.5C 448.833,299.5 485.167,299.5 521.5,299.5 Z"/></g>
<g><path style="opacity:1" fill="#fdfdfe" d="M 538.5,299.5 C 588.5,299.5 638.5,299.5 688.5,299.5C 688.5,309.167 688.5,318.833 688.5,328.5C 669.167,328.5 649.833,328.5 630.5,328.5C 630.5,388.167 630.5,447.833 630.5,507.5C 619.167,507.5 607.833,507.5 596.5,507.5C 596.5,447.833 596.5,388.167 596.5,328.5C 577.167,328.5 557.833,328.5 538.5,328.5C 538.5,318.833 538.5,309.167 538.5,299.5 Z"/></g>
<g><path style="opacity:1" fill="#8e75e2" d="M 521.5,299.5 C 522.494,309.319 522.827,319.319 522.5,329.5C 497.167,329.5 471.833,329.5 446.5,329.5C 471.328,328.502 496.328,328.169 521.5,328.5C 521.5,318.833 521.5,309.167 521.5,299.5 Z"/></g>
<g><path style="opacity:1" fill="#fcfbfe" d="M 136.5,471.5 C 158.657,471.465 166.157,481.799 159,502.5C 152.64,509.386 144.807,511.886 135.5,510C 120.317,501.983 117.651,490.983 127.5,477C 130.263,474.626 133.263,472.792 136.5,471.5 Z"/></g>
</svg>
