<?xml version="1.0" encoding="UTF-8"?>
<!DOCTYPE svg PUBLIC "-//W3C//DTD SVG 1.1//EN" "http://www.w3.org/Graphics/SVG/1.1/DTD/svg11.dtd">
<svg xmlns="http://www.w3.org/2000/svg" version="1.1" width="1024px" height="1024px" style="shape-rendering:geometricPrecision; text-rendering:geometricPrecision; image-rendering:optimizeQuality; fill-rule:evenodd; clip-rule:evenodd" xmlns:xlink="http://www.w3.org/1999/xlink">
<g><path style="opacity:0.994" fill="#00d1b8" d="M 538.5,-0.5 C 545.5,-0.5 552.5,-0.5 559.5,-0.5C 575.959,3.89723 590.626,11.7306 603.5,23C 643.694,63.5278 684.194,103.695 725,143.5C 733.571,168.3 742.405,192.966 751.5,217.5C 751.5,217.833 751.5,218.167 751.5,218.5C 732.143,213.853 712.476,211.853 692.5,212.5C 533.668,211.5 374.668,211.167 215.5,211.5C 319.595,142.589 423.595,73.4221 527.5,4C 531.157,2.17763 534.824,0.677626 538.5,-0.5 Z"/></g>
<g><path style="opacity:1" fill="#01bbbc" d="M 215.5,211.5 C 374.668,211.167 533.668,211.5 692.5,212.5C 533.666,212.167 374.999,212.5 216.5,213.5C 216.167,213.5 215.833,213.5 215.5,213.5C 215.5,212.833 215.5,212.167 215.5,211.5 Z"/></g>
<g><path style="opacity:0.994" fill="#0081c5" d="M 215.5,211.5 C 215.5,212.167 215.5,212.833 215.5,213.5C 215.333,374.834 215.5,536.167 216,697.5C 215.766,713.757 217.599,729.757 221.5,745.5C 221.5,746.167 221.5,746.833 221.5,747.5C 196.756,739.307 172.09,730.807 147.5,722C 107.028,680.528 66.1945,639.361 25,598.5C 11.3216,583.305 3.82156,565.471 2.5,545C 2.31309,538.58 3.47975,532.414 6,526.5C 75.8568,421.435 145.69,316.435 215.5,211.5 Z"/></g>
<g><path style="opacity:1" fill="#0082c8" d="M 216.5,213.5 C 374.999,212.5 533.666,212.167 692.5,212.5C 712.476,211.853 732.143,213.853 751.5,218.5C 812.637,393.245 873.971,567.912 935.5,742.5C 916.394,786.369 897.061,830.036 877.5,873.5C 877.167,873.5 876.833,873.5 876.5,873.5C 656.833,653.167 436.833,433.167 216.5,213.5 Z"/></g>
<g><path style="opacity:1" fill="#00d1b8" d="M 215.5,213.5 C 215.833,213.5 216.167,213.5 216.5,213.5C 436.833,433.167 656.833,653.167 876.5,873.5C 873.972,875.78 870.972,877.614 867.5,879C 826.917,896.639 786.417,914.472 746,932.5C 572.553,871.194 399.053,810.027 225.5,749C 223.65,748.31 222.316,747.144 221.5,745.5C 217.599,729.757 215.766,713.757 216,697.5C 215.5,536.167 215.333,374.834 215.5,213.5 Z"/></g>
<g><path style="opacity:0.995" fill="#00a3e3" d="M 751.5,217.5 C 787.646,227.406 820.312,243.906 849.5,267C 906.694,323.861 963.528,381.027 1020,438.5C 1020.83,568.835 1020.67,699.168 1019.5,829.5C 972.549,844.706 925.549,859.706 878.5,874.5C 877.833,874.5 877.5,874.167 877.5,873.5C 897.061,830.036 916.394,786.369 935.5,742.5C 873.971,567.912 812.637,393.245 751.5,218.5C 751.5,218.167 751.5,217.833 751.5,217.5 Z"/></g>
<g><path style="opacity:0.996" fill="#54dcc9" d="M 221.5,745.5 C 222.316,747.144 223.65,748.31 225.5,749C 399.053,810.027 572.553,871.194 746,932.5C 786.417,914.472 826.917,896.639 867.5,879C 870.972,877.614 873.972,875.78 876.5,873.5C 876.833,873.5 877.167,873.5 877.5,873.5C 877.5,874.167 877.833,874.5 878.5,874.5C 862.348,924.103 846.348,973.769 830.5,1023.5C 703.167,1023.5 575.833,1023.5 448.5,1023.5C 388.895,964.395 329.395,905.062 270,845.5C 247.213,816.258 231.046,783.591 221.5,747.5C 221.5,746.833 221.5,746.167 221.5,745.5 Z"/></g>
</svg>
