<?xml version="1.0" encoding="UTF-8"?>
<!DOCTYPE svg PUBLIC "-//W3C//DTD SVG 1.1//EN" "http://www.w3.org/Graphics/SVG/1.1/DTD/svg11.dtd">
<svg xmlns="http://www.w3.org/2000/svg" version="1.1" width="400px" height="400px" style="shape-rendering:geometricPrecision; text-rendering:geometricPrecision; image-rendering:optimizeQuality; fill-rule:evenodd; clip-rule:evenodd" xmlns:xlink="http://www.w3.org/1999/xlink">
<g><path style="opacity:0.966" fill="#000000" d="M 123.5,79.5 C 174.501,79.3333 225.501,79.5 276.5,80C 279.377,80.9562 282.044,82.2895 284.5,84C 294.667,94.1667 304.833,104.333 315,114.5C 317.194,117.554 318.861,120.888 320,124.5C 320.667,174.5 320.667,224.5 320,274.5C 319.241,277.785 317.908,280.785 316,283.5C 305.167,294.333 294.333,305.167 283.5,316C 280.382,317.893 277.049,319.226 273.5,320C 224.5,320.667 175.5,320.667 126.5,320C 122.825,319.443 119.492,318.11 116.5,316C 105.333,304.833 94.1667,293.667 83,282.5C 81.4379,280.043 80.4379,277.376 80,274.5C 79.3333,224.5 79.3333,174.5 80,124.5C 81.0587,121.382 82.3921,118.382 84,115.5C 94.5,105 105,94.5 115.5,84C 118.099,82.205 120.766,80.705 123.5,79.5 Z M 134.5,104.5 C 178.168,104.333 221.835,104.5 265.5,105C 267.246,105.471 268.913,106.138 270.5,107C 278,114.5 285.5,122 293,129.5C 294.656,175.75 294.99,222.083 294,268.5C 285.833,276.667 277.667,284.833 269.5,293C 223.917,294.656 178.25,294.989 132.5,294C 123.363,285.864 114.53,277.364 106,268.5C 105.333,222.833 105.333,177.167 106,131.5C 114.46,121.201 123.96,112.201 134.5,104.5 Z"/></g>
<g><path style="opacity:0.956" fill="#000000" d="M 156.5,147.5 C 180.951,145.953 194.951,157.286 198.5,181.5C 195.759,194.369 188.426,197.869 176.5,192C 174.959,190.421 173.792,188.587 173,186.5C 173.015,176.159 168.182,172.326 158.5,175C 157.667,175.833 156.833,176.667 156,177.5C 155.839,190.669 149.339,196.169 136.5,194C 134.376,192.878 132.543,191.378 131,189.5C 127.284,168.055 135.784,154.055 156.5,147.5 Z"/></g>
<g><path style="opacity:0.949" fill="#000000" d="M 252.5,149.5 C 265.888,149.939 270.722,156.606 267,169.5C 255.939,178.281 244.439,186.447 232.5,194C 216.585,195.344 211.418,188.51 217,173.5C 228.501,164.846 240.334,156.846 252.5,149.5 Z"/></g>
<g><path style="opacity:0.981" fill="#000000" d="M 138.5,226.5 C 179.835,226.333 221.168,226.5 262.5,227C 270.095,230.473 272.595,236.306 270,244.5C 268.5,247.333 266.333,249.5 263.5,251C 221.833,251.667 180.167,251.667 138.5,251C 130.408,246.379 128.574,239.879 133,231.5C 134.73,229.598 136.563,227.931 138.5,226.5 Z"/></g>
</svg>
